<?xml version="1.0" encoding="UTF-8"?>
<svg version="1.1" xmlns="http://www.w3.org/2000/svg" width="1024" height="1024">
<path d="M0 0 C0.99 0.33 1.98 0.66 3 1 C3 1.66 3 2.32 3 3 C4.17433594 2.9278125 5.34867188 2.855625 6.55859375 2.78125 C15.57259526 2.25361952 24.5351674 1.87967031 33.56616211 2.03710938 C36.87177168 2.07923453 39.84000447 2.03447424 43 1 C43 1.66 43 2.32 43 3 C48.37531833 2.88192372 53.75044513 2.75768794 59.12548828 2.62768555 C60.95487575 2.58431435 62.78430427 2.54264089 64.61376953 2.50268555 C67.24003486 2.44503582 69.8660931 2.38132635 72.4921875 2.31640625 C73.31306854 2.29969376 74.13394958 2.28298126 74.97970581 2.26576233 C79.1233696 2.2568613 79.1233696 2.2568613 83 1 C83 1.66 83 2.32 83 3 C83.5775 2.67 84.155 2.34 84.75 2 C87 1 87 1 91 1 C91 1.66 91 2.32 91 3 C103.22159376 2.89262371 115.44312691 2.78001602 127.66460991 2.66066074 C133.3390493 2.60540991 139.01349383 2.55198646 144.68798828 2.50268555 C150.16041794 2.45507386 155.63278349 2.40273223 161.10513687 2.34705925 C163.1967828 2.32662119 165.28844632 2.30791055 167.38012314 2.29092598 C170.30149468 2.26691407 173.22274432 2.23685515 176.14404297 2.20532227 C177.01582184 2.1995668 177.88760071 2.19381134 178.78579712 2.18788147 C183.02795794 2.25324889 183.02795794 2.25324889 187 1 C187 1.66 187 2.32 187 3 C188.27103577 2.99333817 189.54207153 2.98667633 190.85162354 2.97981262 C202.91260495 2.91862472 214.9735543 2.87384818 227.03465652 2.84456348 C233.23329458 2.82900115 239.43180593 2.80793809 245.63037109 2.77368164 C251.62804128 2.74074819 257.62559069 2.72307636 263.62334442 2.71536827 C265.89552457 2.70988508 268.16769918 2.69918075 270.43982697 2.68280983 C288.08861598 2.56086898 305.58774028 3.34319345 322.5 8.875 C323.33055908 9.13692139 324.16111816 9.39884277 325.0168457 9.66870117 C359.17995732 20.64315503 388.61864758 42.41188425 405.453125 74.5859375 C410.52544763 84.68082363 414.56686421 94.9466798 417 106 C417.24603879 107.06051134 417.49207758 108.12102268 417.74557209 109.21367073 C420.5633108 122.92448052 420.44169506 136.50135454 420.43237305 150.45263672 C420.43976248 153.20042683 420.45161171 155.9481937 420.46325684 158.69596863 C420.48594244 164.59632828 420.4979128 170.49662938 420.50238609 176.39702988 C420.50892629 185.00931687 420.53201858 193.62150133 420.55872939 202.23374654 C420.60195956 216.3195533 420.63191684 230.40535571 420.65356445 244.49121094 C420.67431586 257.9765862 420.70147251 271.4619223 420.73754883 284.94726562 C420.73974595 285.77022238 420.74194307 286.59317914 420.74420677 287.44107398 C420.75528758 291.58008493 420.76647774 295.71909558 420.77770591 299.85810614 C420.86822988 333.32680971 420.93095521 366.79551519 420.97898979 400.26430419 C420.99352637 410.36197212 421.01243355 420.45962429 421.03472656 430.55727804 C421.05069571 437.85701286 421.06340349 445.15674609 421.07232529 452.45649302 C421.07702325 456.27434877 421.08301095 460.09218568 421.09348106 463.91003036 C421.20772665 506.94936363 421.20772665 506.94936363 418.375 520.625 C418.20315186 521.4799707 418.03130371 522.33494141 417.85424805 523.21582031 C412.38649583 548.6897753 399.72188953 570.15396076 382 589 C381.4740625 589.59039063 380.948125 590.18078125 380.40625 590.7890625 C358.18155434 614.71462772 321.993752 627.93143845 290 630 C284.33082424 630.17046491 278.66950913 630.12490963 273 630 C272.67 630.66 272.34 631.32 272 632 C230.8615717 632.04597086 189.7231468 632.08111666 148.58469786 632.10213066 C143.70669307 632.1046315 138.82868832 632.1072202 133.95068359 632.10986328 C132.97972974 632.1103879 132.0087759 632.11091252 131.0083992 632.11145304 C115.37213567 632.12011013 99.73588713 632.13585363 84.09963243 632.15430559 C68.00581325 632.17313639 51.91200183 632.18414427 35.8181721 632.18817699 C26.79943549 632.19065367 17.78073023 632.19657408 8.76200485 632.21146011 C-56.56383959 632.31572544 -56.56383959 632.31572544 -78.59130859 631.17529297 C-79.29782665 631.14061928 -80.0043447 631.10594559 -80.73227239 631.07022119 C-94.77425836 630.34115682 -108.9906783 628.29780568 -122.5 624.3125 C-123.36818359 624.05903809 -124.23636719 623.80557617 -125.13085938 623.54443359 C-157.45891742 613.7318202 -185.39732123 592.89332246 -203 564 C-203.37205566 563.39752441 -203.74411133 562.79504883 -204.12744141 562.17431641 C-211.35024211 550.26698554 -215.83262748 536.98552407 -219.1328125 523.49609375 C-219.82124173 520.17524372 -219.82124173 520.17524372 -221 518 C-222.70329307 504.33642873 -222.18015547 490.34923013 -222.21526766 476.61339819 C-222.2254458 473.03964069 -222.24113185 469.46590639 -222.25605774 465.89216614 C-222.2843907 458.89367147 -222.30758343 451.89516901 -222.3288355 444.89664961 C-222.34629825 439.17012189 -222.36554071 433.44360267 -222.38599777 427.71708488 C-222.39039066 426.48575076 -222.39039066 426.48575076 -222.3948723 425.22954119 C-222.40083127 423.56024885 -222.40679248 421.89095651 -222.41275589 420.22166418 C-222.46842779 404.57066282 -222.51806075 388.91964663 -222.5657609 373.26861923 C-222.60900097 359.1370968 -222.65925057 345.00561033 -222.71309371 330.87412465 C-222.76881903 316.23287604 -222.81970079 301.59161737 -222.86572587 286.95033497 C-222.89146497 278.78475922 -222.91881027 270.61919841 -222.9510994 262.45364571 C-223.03358349 241.30223255 -223.06432516 220.15150912 -223 199 C-222.99772081 198.20617076 -222.99544163 197.41234152 -222.99309337 196.59445685 C-222.96140206 185.90865723 -222.89912137 175.22356466 -222.79697299 164.53820217 C-222.76787272 161.44141008 -222.74707458 158.34475469 -222.73426747 155.2478534 C-222.63047276 132.30578584 -221.1885226 109.69679967 -213 88 C-212.01 87.505 -212.01 87.505 -211 87 C-210.88398438 86.32839844 -210.76796875 85.65679687 -210.6484375 84.96484375 C-205.37203455 60.83960374 -179.89307317 38.02046732 -160.14257812 25.34326172 C-150.33428797 19.19408072 -140.38441832 14.4921726 -129.4375 10.6875 C-128.5602124 10.37393555 -127.6829248 10.06037109 -126.77905273 9.73730469 C-105.23585425 2.66900375 -82.99561356 2.37833176 -60.58483887 2.32006836 C-54.53511252 2.29991885 -48.48557528 2.24326719 -42.43605614 2.19130516 C-40.34604996 2.17611036 -38.2561432 2.16880791 -36.16609192 2.16316223 C-34.90254379 2.15612778 -33.63899567 2.14909332 -32.3371582 2.1418457 C-30.67702446 2.13662651 -30.67702446 2.13662651 -28.98335266 2.13130188 C-26.20507199 2.00902553 -23.71157918 1.58118811 -21 1 C-20.01 1 -19.02 1 -18 1 C-18 1.66 -18 2.32 -18 3 C-16.68 3 -15.36 3 -14 3 C-13.67 2.34 -13.34 1.68 -13 1 C-13 1.66 -13 2.32 -13 3 C-11.02013918 2.88652381 -9.04108402 2.7589065 -7.0625 2.625 C-5.40927734 2.52058594 -5.40927734 2.52058594 -3.72265625 2.4140625 C-2.82417969 2.27742187 -1.92570313 2.14078125 -1 2 C-0.67 1.34 -0.34 0.68 0 0 Z " fill="#6B86FD" transform="translate(413,200)"/>
<path d="M0 0 C1.13695312 0.51433594 2.27390625 1.02867187 3.4453125 1.55859375 C17.04977909 8.03192785 28.3398007 16.50519166 39 27 C39.77988281 27.75539063 40.55976562 28.51078125 41.36328125 29.2890625 C62.44086189 51.07796469 71.18882552 81.76529076 71.18530273 111.37426758 C71.18749208 113.4300602 71.20571824 115.48531717 71.22460938 117.54101562 C71.25513592 124.95829594 70.77145928 131.7811284 69 139 C63.06 139 57.12 139 51 139 C51.309375 136.40125 51.61875 133.8025 51.9375 131.125 C52.08046509 129.89934326 52.08046509 129.89934326 52.22631836 128.64892578 C52.88888889 123.22222222 52.88888889 123.22222222 54 121 C44.43 121.33 34.86 121.66 25 122 C24.42576234 127.84694449 24.42576234 127.84694449 23.86376953 133.69506836 C22.37407693 148.33531369 22.37407693 148.33531369 19.30078125 152.05859375 C18.64464844 152.51363281 17.98851562 152.96867188 17.3125 153.4375 C8.8742805 160.11456661 4.53178099 168.66467037 2 179 C1.48924826 183.50560699 1.39583535 187.96831206 1.375 192.5 C1.34948145 194.78135847 1.31597558 197.0626454 1.2734375 199.34375 C1.26747559 200.33568359 1.26151367 201.32761719 1.25537109 202.34960938 C0.99551087 205.04659078 0.37762849 206.6923183 -1 209 C-0.34 209 0.32 209 1 209 C1 214.28 1 219.56 1 225 C-4.5966615 227.938566 -10.11784704 230.23745456 -16.125 232.1875 C-16.89714844 232.44724609 -17.66929687 232.70699219 -18.46484375 232.97460938 C-38.61189868 239.61592987 -63.49913819 237.81521511 -83 230 C-83.75941895 229.70029297 -84.51883789 229.40058594 -85.30126953 229.09179688 C-100.16207824 223.05649538 -112.44348592 214.03819866 -124 203 C-125.19496094 201.93458984 -125.19496094 201.93458984 -126.4140625 200.84765625 C-143.08298941 185.36936698 -153.13233266 163.94313529 -158 142 C-158.21269531 141.08734375 -158.42539062 140.1746875 -158.64453125 139.234375 C-163.50554897 116.99259607 -162.53508876 91.52882502 -155 70 C-149.06 70 -143.12 70 -137 70 C-137.34933594 71.68867188 -137.69867188 73.37734375 -138.05859375 75.1171875 C-138.51848958 77.36973851 -138.97811039 79.62234569 -139.4375 81.875 C-139.66759766 82.98359375 -139.89769531 84.0921875 -140.13476562 85.234375 C-140.46831055 86.87792969 -140.46831055 86.87792969 -140.80859375 88.5546875 C-141.11494751 90.04718018 -141.11494751 90.04718018 -141.42749023 91.56982422 C-142.1695133 96.01563404 -142.55150612 100.51506116 -143 105 C-133.1 105 -123.2 105 -113 105 C-113 101.7 -113 98.4 -113 95 C-112.78156594 92.96381206 -112.51079679 90.9316913 -112.16015625 88.9140625 C-111.98419922 87.88152344 -111.80824219 86.84898437 -111.62695312 85.78515625 C-111.44068359 84.74230469 -111.25441406 83.69945312 -111.0625 82.625 C-110.88009766 81.55894531 -110.69769531 80.49289062 -110.50976562 79.39453125 C-109.78709224 75.21616512 -109.02901341 71.11605366 -108 67 C-110.97 66.01 -113.94 65.02 -117 64 C-115.96630958 59.86523833 -114.98066584 58.39129228 -112.25 55.25 C-111.57453125 54.45078125 -110.8990625 53.6515625 -110.203125 52.828125 C-108 51 -108 51 -105.234375 50.734375 C-104.49703125 50.82203125 -103.7596875 50.9096875 -103 51 C-102.88785156 50.47535156 -102.77570313 49.95070313 -102.66015625 49.41015625 C-101.09397049 43.25801479 -98.56696615 37.83979607 -95.625 32.25 C-95.24996338 31.52949463 -94.87492676 30.80898926 -94.48852539 30.06665039 C-92.07208549 25.57467698 -89.39160547 21.81106198 -86 18 C-88.31 18.66 -90.62 19.32 -93 20 C-93 13.07 -93 6.14 -93 -1 C-89.29306587 -2.15053142 -85.5845848 -3.29557359 -81.875 -4.4375 C-80.82828125 -4.76298828 -79.7815625 -5.08847656 -78.703125 -5.42382812 C-77.17558594 -5.89272461 -77.17558594 -5.89272461 -75.6171875 -6.37109375 C-74.68503418 -6.65911865 -73.75288086 -6.94714355 -72.79248047 -7.24389648 C-50.04248233 -13.4037797 -21.16900933 -9.66879688 0 0 Z " fill="#FCFDFE" transform="translate(556,396)"/>
<path d="M0 0 C1.07254028 -0.00671722 2.14508057 -0.01343445 3.25012207 -0.02035522 C6.78577345 -0.03930687 10.32123461 -0.04325842 13.85693359 -0.04541016 C16.32685421 -0.05184142 18.79677408 -0.05857003 21.26669312 -0.06558228 C26.44311284 -0.07754897 31.61946586 -0.08126385 36.79589844 -0.08007812 C43.4029064 -0.07987529 50.0094825 -0.10714372 56.61638832 -0.14162254 C61.71932914 -0.16395222 66.82216717 -0.16791375 71.92515182 -0.16685867 C74.35941425 -0.16920679 76.79367986 -0.17798537 79.22789383 -0.19352341 C111.98298389 -0.38298307 111.98298389 -0.38298307 125.06005859 12.13818359 C134.37704452 22.19493021 137.4352075 32.52420372 137.42089844 46.01025391 C137.42761566 46.93678268 137.43433289 47.86331146 137.44125366 48.81791687 C137.46012189 51.85571785 137.46415226 54.89329655 137.46630859 57.93115234 C137.47274451 60.06191088 137.47947345 62.19266856 137.48648071 64.32342529 C137.49842575 68.78171841 137.50216442 73.23993421 137.50097656 77.69824219 C137.50077359 83.38151485 137.52806604 89.06428626 137.56252098 94.74744034 C137.58487397 99.14695465 137.58881152 103.54634996 137.58775711 107.94591522 C137.5901008 110.03966752 137.59885401 112.13342372 137.61442184 114.22711945 C137.71725722 129.48595415 137.21385388 142.92176925 127.13037109 155.29052734 C126.57865234 155.97759766 126.02693359 156.66466797 125.45849609 157.37255859 C118.66223158 164.9675294 108.11532979 170.82503967 97.82794762 171.42474842 C96.63952483 171.43115864 96.63952483 171.43115864 95.42709351 171.43769836 C94.05229324 171.44843132 94.05229324 171.44843132 92.64971924 171.4593811 C91.65639587 171.46207001 90.66307251 171.46475891 89.63964844 171.4675293 C88.58369476 171.47410049 87.52774109 171.48067169 86.43978882 171.48744202 C82.94862797 171.50713568 79.45751009 171.51882965 75.96630859 171.52880859 C74.77104176 171.53288412 73.57577492 171.53695965 72.34428787 171.54115868 C66.01631087 171.56200383 59.68835545 171.57631164 53.36035156 171.58569336 C46.84055088 171.59674731 40.32109246 171.63114051 33.80141258 171.67086506 C28.77405178 171.69707194 23.746772 171.7053889 18.71934891 171.70897484 C16.3169181 171.71383113 13.91449067 171.72541762 11.51212692 171.74401283 C8.14029955 171.76848746 4.76935084 171.76742351 1.39746094 171.76049805 C-0.07430603 171.77971313 -0.07430603 171.77971313 -1.57580566 171.79931641 C-13.85655767 171.70796168 -23.99336381 166.73786362 -32.87353516 158.41162109 C-41.89727314 148.76421223 -45.17368256 137.53405221 -45.16015625 124.5925293 C-45.16687347 123.65639297 -45.1735907 122.72025665 -45.18051147 121.75575256 C-45.19941135 118.68004962 -45.2034119 115.6045659 -45.20556641 112.52880859 C-45.21200083 110.37420057 -45.21872967 108.21959341 -45.22573853 106.06498718 C-45.23769198 101.55363949 -45.24142143 97.04236826 -45.24023438 92.53100586 C-45.24003152 86.77932549 -45.26730831 81.02814104 -45.30177879 75.27657795 C-45.32413166 70.82644953 -45.32806932 66.37643878 -45.32701492 61.92625999 C-45.32935924 59.80738813 -45.33811602 57.68851243 -45.35367966 55.56969643 C-45.46281351 39.1752433 -44.76768838 24.57422549 -32.76416016 12.10302734 C-22.9419338 2.90631282 -13.23701907 -0.0119774 0 0 Z " fill="#FDFEFE" transform="translate(611.86962890625,546.70947265625)"/>
<path d="M0 0 C1.46250687 -0.01007584 1.46250687 -0.01007584 2.95455933 -0.02035522 C6.16555944 -0.03929136 9.37634992 -0.04325768 12.58740234 -0.04541016 C14.83312056 -0.05184269 17.07883795 -0.05857139 19.32455444 -0.06558228 C24.03019145 -0.07754524 28.73575511 -0.08126426 33.44140625 -0.08007812 C39.4430907 -0.07987536 45.44429939 -0.10713861 51.44587135 -0.14162254 C56.08558266 -0.16396944 60.72518105 -0.16791323 65.36494064 -0.16685867 C67.57591765 -0.1692044 69.78689827 -0.17796934 71.99782181 -0.19352341 C89.64658806 -0.30602877 105.02677343 0.92234265 118.73583984 13.41552734 C131.51364361 27.1297659 132.51889423 42.46279903 132.48193359 60.15771484 C132.48650419 62.08383364 132.49181236 64.00995082 132.49781799 65.93606567 C132.50671448 69.9587469 132.50436593 73.98122923 132.49438477 78.00390625 C132.48290466 83.12667365 132.50310985 88.24875072 132.5323019 93.37142754 C132.55076056 97.3454719 132.5503522 101.3193538 132.54466438 105.29343033 C132.54451232 107.18063449 132.55046004 109.06785048 132.56295586 110.95501328 C132.66089982 128.16967956 130.4607676 140.91808852 118.39599609 154.09521484 C111.48432019 160.6182146 101.81403369 165.31644171 92.27978516 165.49584961 C91.33911194 165.51579483 90.39843872 165.53574005 89.42926025 165.55628967 C87.91812653 165.58135841 87.91812653 165.58135841 86.37646484 165.60693359 C85.33891052 165.62771469 84.3013562 165.64849579 83.23236084 165.66990662 C79.92108726 165.73524143 76.60973502 165.79421251 73.29833984 165.85302734 C71.05223799 165.89622783 68.80614406 165.93984262 66.56005859 165.98388672 C61.05623527 166.09090637 55.55233386 166.19270256 50.04833984 166.29052734 C48.36969879 169.45339527 47.80045742 171.56996679 47.77490234 175.16943359 C47.75427734 176.09046875 47.73365234 177.01150391 47.71240234 177.96044922 C47.68630914 179.89265069 47.66811081 181.82497453 47.65771484 183.75732422 C47.63451172 184.67707031 47.61130859 185.59681641 47.58740234 186.54443359 C47.57918457 187.38304932 47.5709668 188.22166504 47.5625 189.08569336 C47.04833984 191.29052734 47.04833984 191.29052734 45.45214844 193.0871582 C41.98799745 194.8213447 39.88014739 194.88960126 36.04833984 194.29052734 C33.66318211 192.30169204 31.88695247 190.53459088 29.90771484 188.20068359 C28.74278678 186.92760613 27.57605809 185.65617443 26.40771484 184.38623047 C24.60298292 182.38468521 22.81589933 180.37347478 21.06005859 178.32885742 C15.00857527 171.34420942 10.13158165 165.77188449 0.51629639 165.03269958 C-2.6532259 164.974276 -5.79344783 165.07650296 -8.95783997 165.25250244 C-18.79757841 165.44015983 -28.34391452 158.96739712 -35.26416016 152.54052734 C-47.15630882 139.90511939 -47.41932183 123.73336446 -47.38525391 107.42333984 C-47.38982451 105.49722105 -47.39513267 103.57110387 -47.40113831 101.64498901 C-47.4100348 97.62230779 -47.40768624 93.59982546 -47.39770508 89.57714844 C-47.38622498 84.45438103 -47.40643016 79.33230397 -47.43562222 74.20962715 C-47.45408087 70.23558279 -47.45367252 66.26170089 -47.4479847 62.28762436 C-47.44783263 60.4004202 -47.45378035 58.51320421 -47.46627617 56.62604141 C-47.56082418 40.0082496 -45.62851087 25.81275349 -33.85009766 13.00537109 C-24.07488836 3.76555312 -13.22392788 -0.01319753 0 0 Z " fill="#FDFEFE" transform="translate(318.95166015625,291.70947265625)"/>
<path d="M0 0 C4.56739239 4.2483466 4.82761232 8.55221942 5.4375 14.4375 C10.00105367 50.79349332 23.07766938 84.60204027 48.5546875 111.37890625 C51 114 51 114 53.1015625 116.63671875 C62.0643393 127.79408493 75.78979226 135.91836053 88 143 C88.85585693 143.50080078 88.85585693 143.50080078 89.72900391 144.01171875 C107.8861019 154.53406696 127.22718517 160.38803364 148 163 C147.22914063 162.24074219 146.45828125 161.48148438 145.6640625 160.69921875 C144.65090904 159.69544634 143.63789552 158.69153268 142.625 157.6875 C142.11710938 157.18798828 141.60921875 156.68847656 141.0859375 156.17382812 C135.13800267 150.26502444 135.13800267 150.26502444 134.625 145.5625 C135 142 135 142 136.5625 139.625 C139.80307376 137.46461749 142.11684403 137.06812554 146 137 C148.9375 138.3125 148.9375 138.3125 151 140 C151 140.66 151 141.32 151 142 C151.99 142.33 152.98 142.66 154 143 C155.6875 144.4375 155.6875 144.4375 157 146 C157 146.66 157 147.32 157 148 C157.58120605 148.25595947 158.16241211 148.51191895 158.76123047 148.77563477 C161.21709277 150.11872631 162.84989468 151.60670873 164.8203125 153.58984375 C165.52027344 154.29173828 166.22023438 154.99363281 166.94140625 155.71679688 C167.66199219 156.44962891 168.38257813 157.18246094 169.125 157.9375 C170.21748047 159.03094727 170.21748047 159.03094727 171.33203125 160.14648438 C178.7024069 167.57816629 178.7024069 167.57816629 179.5625 171.6875 C178.13580063 180.08917405 168.10209892 187.0535347 162.23730469 192.89306641 C160.735137 194.38980932 159.2384727 195.89190999 157.7421875 197.39453125 C156.78157098 198.35448798 155.82064485 199.314135 154.859375 200.2734375 C153.99795898 201.13372559 153.13654297 201.99401367 152.24902344 202.88037109 C149.56150956 205.41326248 147.83560189 206.89100845 144.125 207.375 C140.28147742 206.91377729 138.74399889 205.66559892 136 203 C134.3753739 199.75074779 134.37369218 196.50603246 135 193 C136.48213545 190.45520141 138.38759526 188.53455199 140.5 186.5 C141.02464844 185.96375 141.54929687 185.4275 142.08984375 184.875 C143.3756413 183.56582431 144.68550163 182.28035556 146 181 C145.1495813 180.86537354 145.1495813 180.86537354 144.28198242 180.72802734 C124.81192137 177.58194443 106.78568181 172.5797288 89 164 C88.38205566 163.70399902 87.76411133 163.40799805 87.12744141 163.10302734 C45.45977276 142.83315752 12.57737208 104.60394013 -2.82421875 61.03125 C-4.37020979 56.39562713 -5.72824842 51.71752473 -7 47 C-7.29729004 45.90993652 -7.29729004 45.90993652 -7.60058594 44.79785156 C-15.66591535 14.64467229 -15.66591535 14.64467229 -12 3 C-8.41887602 -1.52906856 -5.3829148 -1.66381003 0 0 Z " fill="#FBFCFE" transform="translate(348,512)"/>
<path d="M0 0 C3.89809425 1.35585887 6.03345882 3.31691764 7.875 7 C8.47931658 10.17266206 8.43342558 12.17598177 6.59375 14.890625 C4.75853001 17.0094699 2.851615 19.01230118 0.875 21 C0.13378906 21.75539063 -0.60742188 22.51078125 -1.37109375 23.2890625 C-3.27395343 25.20888172 -5.19120808 27.11141361 -7.125 29 C-6.3 29.09796875 -5.475 29.1959375 -4.625 29.296875 C39.75669477 35.04271941 82.69637701 57.08298661 110.32861328 92.88330078 C129.59018895 118.58397599 144.98548226 149.47330169 146.875 182 C146.94654297 183.06831055 146.94654297 183.06831055 147.01953125 184.15820312 C147.60197388 193.66865915 147.60197388 193.66865915 146.875 198 C144.1487882 200.8310661 142.71371153 201.88018407 138.8125 202.4375 C135.56440486 201.95374115 134.18088726 201.30588726 131.875 199 C130.73254931 195.57264792 130.40435 192.40553991 130 188.8125 C124.80722264 146.20472515 106.07515267 107.19001071 72.13671875 79.9140625 C63.60226275 73.34701608 54.42740938 67.93958548 44.875 63 C43.95533447 62.52071045 43.95533447 62.52071045 43.01708984 62.03173828 C28.08955267 54.36147811 10.80167755 47.79557153 -6.125 48 C-5.35414063 48.75925781 -4.58328125 49.51851563 -3.7890625 50.30078125 C-2.77590904 51.30455366 -1.76289552 52.30846732 -0.75 53.3125 C-0.24210938 53.81201172 0.26578125 54.31152344 0.7890625 54.82617188 C6.73412464 60.73212176 6.73412464 60.73212176 7.25 65.375 C6.80634295 69.66368479 6.11366314 71.17655008 2.875 74 C-0.375 75.25 -0.375 75.25 -4.125 75 C-5.76879883 73.90136719 -5.76879883 73.90136719 -7.51953125 72.296875 C-8.21675293 71.6584668 -8.91397461 71.02005859 -9.63232422 70.36230469 C-10.45490723 69.58274414 -11.27749023 68.80318359 -12.125 68 C-12.61301086 67.53903931 -13.10102173 67.07807861 -13.6038208 66.60314941 C-17.03290198 63.3544907 -20.41891723 60.06494046 -23.78198242 56.74804688 C-24.97539218 55.57640093 -26.17503457 54.4110719 -27.38061523 53.25195312 C-29.1421758 51.55734758 -30.88318302 49.84381177 -32.62109375 48.125 C-33.15955429 47.61437012 -33.69801483 47.10374023 -34.25279236 46.57763672 C-36.9061563 43.90938976 -38.12391137 42.00388783 -39.14550781 38.35546875 C-39.12281905 34.64315538 -38.86825385 33.74738828 -36.30078125 31.1875 C-35.65189941 30.51976562 -35.00301758 29.85203125 -34.33447266 29.1640625 C-33.24078369 28.09285156 -33.24078369 28.09285156 -32.125 27 C-31.35591309 26.20335937 -30.58682617 25.40671875 -29.79443359 24.5859375 C-27.32539583 22.03138552 -24.82366919 19.51309938 -22.3125 17 C-21.45462891 16.12988281 -20.59675781 15.25976562 -19.71289062 14.36328125 C-18.4840918 13.13158203 -18.4840918 13.13158203 -17.23046875 11.875 C-16.48949951 11.12992187 -15.74853027 10.38484375 -14.98510742 9.6171875 C-13.125 8 -13.125 8 -11.125 8 C-10.91875 7.4225 -10.7125 6.845 -10.5 6.25 C-7.98392893 2.13279279 -4.84733798 0 0 0 Z " fill="#FBFCFE" transform="translate(540.125,297)"/>
<path d="M0 0 C4.09134968 0.85236452 5.42217583 2.36493761 8 5.625 C8.36771245 8.4637401 8.48630804 10.64320151 8.3125 13.4375 C8.28994141 14.13037109 8.26738281 14.82324219 8.24414062 15.53710938 C8.18562661 17.23401573 8.0959548 18.92979861 8 20.625 C8.61530075 20.61611755 9.2306015 20.60723511 9.86454773 20.5980835 C16.27215276 20.50954729 22.67958385 20.44923956 29.08764648 20.40527344 C31.47866881 20.38516582 33.86964201 20.3578757 36.26049805 20.32324219 C39.69852831 20.27468849 43.13590804 20.25202226 46.57421875 20.234375 C47.64210129 20.21372986 48.70998383 20.19308472 49.81022644 20.17181396 C57.19821792 20.16958335 57.19821792 20.16958335 61.17895508 22.43066406 C63 24.625 63 24.625 63.5625 28.125 C62.89617385 32.27102935 62.35724405 33.18146934 59 35.625 C56.08888974 36.24635246 53.21966373 36.32082703 50.25 36.375 C49.45722656 36.40464844 48.66445313 36.43429687 47.84765625 36.46484375 C45.89897906 36.53527787 43.94948505 36.58243482 42 36.625 C41.88785156 37.27082031 41.77570313 37.91664063 41.66015625 38.58203125 C37.66789194 57.65618296 27.08106193 73.53502638 14 87.625 C17.64749909 90.70556571 21.42635476 93.19050479 25.625 95.4375 C26.57669067 95.95026489 26.57669067 95.95026489 27.54760742 96.47338867 C33.74803111 99.69748994 40.20813226 102.06552767 46.82861328 104.27856445 C47.60317871 104.5437085 48.37774414 104.80885254 49.17578125 105.08203125 C49.86583252 105.30866455 50.55588379 105.53529785 51.2668457 105.76879883 C53 106.625 53 106.625 55 109.625 C55.42255137 113.49838754 55.56667558 115.74098609 53.4375 119.0625 C50.03751003 121.24198075 48.02657882 120.94456975 44 120.625 C40.75121505 119.7165307 37.6745554 118.48293448 34.5625 117.1875 C33.69157715 116.83204102 32.8206543 116.47658203 31.92333984 116.11035156 C21.33528778 111.67275469 11.49081661 106.06830669 2 99.625 C1.2471875 100.181875 0.494375 100.73875 -0.28125 101.3125 C-8.78450608 107.42163543 -17.51366823 112.22098024 -27 116.625 C-28.134375 117.16769531 -29.26875 117.71039062 -30.4375 118.26953125 C-40.17512249 122.68797745 -40.17512249 122.68797745 -46 120.625 C-49.0766616 118.49500351 -49.85763576 117.36845769 -50.5625 113.6875 C-49.8018657 109.54626879 -48.18906449 108.33229405 -45 105.625 C-42.53618472 104.55744036 -40.22839879 103.68195537 -37.6875 102.875 C-29.99764679 100.23568217 -23.21586029 96.60369718 -16.23046875 92.48046875 C-13 90.625 -13 90.625 -10 89.625 C-10.34667725 89.19380859 -10.69335449 88.76261719 -11.05053711 88.31835938 C-17.26834003 80.53094411 -23.30829973 72.69736099 -28.3125 64.0625 C-28.69075928 63.4334375 -29.06901855 62.804375 -29.45874023 62.15625 C-32.13305909 57.35680843 -32.42716798 53.96175203 -32 48.625 C-31 46.625 -31 46.625 -29 45.625 C-23.42607683 44.91720023 -23.42607683 44.91720023 -21 45.625 C-17.84368313 48.93104727 -15.89919999 52.5562563 -13.875 56.625 C-11.18608852 61.71763538 -8.23265282 66.3516466 -4.75 70.9375 C-4.3257373 71.50662109 -3.90147461 72.07574219 -3.46435547 72.66210938 C-2.12687755 74.42460454 -2.12687755 74.42460454 0 76.625 C0.99 76.625 1.98 76.625 3 76.625 C4.89054169 74.67032039 6.53210298 72.76712763 8.1875 70.625 C8.6729126 70.00069092 9.1583252 69.37638184 9.65844727 68.7331543 C16.05354048 60.22707989 20.51270882 50.84952234 24.10961914 40.86987305 C24.46504288 39.8857695 24.82046661 38.90166595 25.18666077 37.88774109 C25.45506271 37.14103653 25.72346466 36.39433197 26 35.625 C25.0316925 35.62944122 24.06338501 35.63388245 23.06573486 35.63845825 C13.94298612 35.67899125 4.82025563 35.70897812 -4.30256271 35.72862434 C-8.99276226 35.73906417 -13.68288915 35.75322705 -18.37304688 35.77587891 C-22.89880335 35.79760012 -27.42448991 35.80956713 -31.95029449 35.81475449 C-33.67747346 35.81845153 -35.40464857 35.82567088 -37.13179779 35.83646011 C-39.54986357 35.85096545 -41.96763994 35.85297835 -44.38574219 35.85205078 C-45.10071869 35.85924133 -45.81569519 35.86643188 -46.55233765 35.87384033 C-50.17815115 35.85877761 -52.97708997 35.74138588 -56 33.625 C-57.54586876 30.53326248 -57.29359521 28.03070448 -57 24.625 C-55.62011719 22.42285156 -55.62011719 22.42285156 -53 20.625 C-49.58577025 20.06755451 -46.21683975 20.16043843 -42.765625 20.234375 C-41.77246277 20.24003479 -40.77930054 20.24569458 -39.75604248 20.25152588 C-36.58686941 20.27389974 -33.4188308 20.32409894 -30.25 20.375 C-28.10027676 20.39506365 -25.95053577 20.41331466 -23.80078125 20.4296875 C-18.53346771 20.47376761 -13.26681491 20.54068967 -8 20.625 C-8.08701172 19.08779297 -8.08701172 19.08779297 -8.17578125 17.51953125 C-8.22269957 16.15889989 -8.26819752 14.79821904 -8.3125 13.4375 C-8.35439453 12.76396484 -8.39628906 12.09042969 -8.43945312 11.39648438 C-8.53581607 7.44560348 -8.1466151 5.81041775 -5.66796875 2.67578125 C-3 0.625 -3 0.625 0 0 Z " fill="#7269FB" transform="translate(656,570.375)"/>
<path d="M0 0 C6.7214316 3.99406452 9.1796886 9.77466212 11.9375 16.8125 C12.38714111 17.914729 12.83678223 19.01695801 13.30004883 20.15258789 C14.89427779 24.09128682 16.45124864 28.04326448 18 32 C18.31122803 32.79313599 18.62245605 33.58627197 18.94311523 34.40344238 C22.0353595 42.28450305 25.12269684 50.16743002 28.16577148 58.06762695 C28.81226863 59.74172571 29.45883378 61.41579822 30.10546875 63.08984375 C30.57725807 64.31762291 30.57725807 64.31762291 31.05857849 65.57020569 C32.70354264 69.81303846 34.42076997 74.00545948 36.26806641 78.16455078 C36.63918045 79.00812637 37.01029449 79.85170197 37.39265442 80.72084045 C38.09823313 82.31187362 38.81736365 83.89700053 39.55302429 85.47434998 C41.82030398 90.59822334 42.95248547 95.38426805 42 101 C39.9375 103.625 39.9375 103.625 37 105 C33.5 105.25 33.5 105.25 30 104 C24.14354739 97.00082493 22.24372328 88.64992875 19 80 C3.82 80 -11.36 80 -27 80 C-30.96 89.9 -30.96 89.9 -35 100 C-39 105 -39 105 -41 105.62890625 C-44.47195248 105.51362658 -46.49828003 105.31357498 -49.5 103.4375 C-51.57406415 100.06714576 -51.2830064 97.93742621 -51 94 C-50.24035938 91.18035426 -49.17237164 88.52254854 -48.0625 85.82421875 C-47.75061234 85.03742737 -47.43872467 84.25063599 -47.11738586 83.44000244 C-46.0889856 80.85141049 -45.04453532 78.26961835 -44 75.6875 C-42.53029972 72.00713616 -41.06825842 68.32373992 -39.60546875 64.640625 C-39.22762741 63.69279648 -38.84978607 62.74496796 -38.460495 61.76841736 C-35.7497513 54.95087062 -33.12686425 48.1038459 -30.55078125 41.234375 C-30.1928952 40.28226639 -29.83500916 39.33015778 -29.46627808 38.34919739 C-28.07296514 34.6399563 -26.68055042 30.93048143 -25.3034668 27.21517944 C-24.35185963 24.64964298 -23.38973032 22.08826359 -22.42578125 19.52734375 C-22.15236404 18.78002991 -21.87894684 18.03271606 -21.59724426 17.26275635 C-19.33044514 11.281976 -16.59284142 5.30474793 -11.75 1 C-7.80960738 -0.43287004 -4.08447247 -1.14030225 0 0 Z " fill="#4E98FE" transform="translate(366,321)"/>
<path d="M0 0 C14.19 0 28.38 0 43 0 C43 9.9 43 19.8 43 30 C39.535 30.28875 36.07 30.5775 32.5 30.875 C22.96374252 31.68729 13.48294916 32.70624496 4 34 C1.58664582 22.47964892 0 11.86989825 0 0 Z " fill="#6384FD" transform="translate(460,517)"/>
<path d="M0 0 C14.19 0 28.38 0 43 0 C43 11.25387306 43 11.25387306 42.16015625 15.46484375 C41.8962207 16.81739258 41.8962207 16.81739258 41.62695312 18.19726562 C41.44068359 19.10154297 41.25441406 20.00582031 41.0625 20.9375 C40.88009766 21.86884766 40.69769531 22.80019531 40.50976562 23.75976562 C39.81557035 27.25598548 39.12835692 30.61492925 38 34 C36.82566406 33.86722656 35.65132812 33.73445312 34.44140625 33.59765625 C27.61085955 32.83870662 20.77386261 32.14171265 13.9375 31.4375 C9.338125 30.963125 4.73875 30.48875 0 30 C0 20.1 0 10.2 0 0 Z " fill="#6C84FD" transform="translate(520,517)"/>
<path d="M0 0 C0.79059814 0.11593506 1.58119629 0.23187012 2.39575195 0.35131836 C6.03422926 0.88309786 9.67335277 1.41032529 13.3125 1.9375 C14.55580078 2.11990234 15.79910156 2.30230469 17.08007812 2.49023438 C18.92182617 2.75610352 18.92182617 2.75610352 20.80078125 3.02734375 C21.91622314 3.18968506 23.03166504 3.35202637 24.1809082 3.51928711 C29.10633814 4.13925588 34.05609268 4.55055388 39 5 C39 14.24 39 23.48 39 33 C24.81 33 10.62 33 -4 33 C-2.83928571 10.94642857 -2.83928571 10.94642857 0 0 Z " fill="#6389FE" transform="translate(464,468)"/>
<path d="M0 0 C5.99677763 8.99516645 4.49175625 23.34336883 5 33 C-8.86 33 -22.72 33 -37 33 C-37 23.76 -37 14.52 -37 5 C-24.6875 3.625 -24.6875 3.625 -20.87768555 3.20556641 C-13.85628122 2.4078671 -6.93283625 1.36986162 0 0 Z " fill="#6380FD" transform="translate(558,468)"/>
<path d="M0 0 C9.9 0 19.8 0 30 0 C31.375 12.25 31.375 12.25 31.79443359 16.03222656 C31.91125488 17.05799805 32.02807617 18.08376953 32.1484375 19.140625 C32.32125244 20.68024902 32.32125244 20.68024902 32.49755859 22.25097656 C33.20362967 27.51940586 34.12613187 32.75679124 35 38 C27.41 40.64 19.82 43.28 12 46 C4.73758322 31.47516644 0 16.34765788 0 0 Z " fill="#6288FE" transform="translate(413,517)"/>
<path d="M0 0 C3.37447699 7.72755231 6.34565578 15.41125469 8.3125 23.625 C8.47137695 24.26751709 8.63025391 24.91003418 8.79394531 25.57202148 C10.27232804 32.11670809 10.47034932 38.11454117 11 45 C1.43 45 -8.14 45 -18 45 C-18.88633345 42.34099965 -19.23238033 40.32971304 -19.46484375 37.5703125 C-19.5417041 36.69785889 -19.61856445 35.82540527 -19.69775391 34.92651367 C-19.77687012 34.00201416 -19.85598633 33.07751465 -19.9375 32.125 C-20.66481318 24.01816987 -21.60100602 16.02189099 -23 8 C-22.43490723 7.79318604 -21.86981445 7.58637207 -21.28759766 7.37329102 C-18.73295385 6.43756929 -16.17897086 5.50005683 -13.625 4.5625 C-12.73554687 4.23701172 -11.84609375 3.91152344 -10.9296875 3.57617188 C-10.07890625 3.26357422 -9.228125 2.95097656 -8.3515625 2.62890625 C-7.56604004 2.34088135 -6.78051758 2.05285645 -5.97119141 1.75610352 C-1.39296093 0 -1.39296093 0 0 0 Z " fill="#6C81FD" transform="translate(599,456)"/>
<path d="M0 0 C-3.48173552 2.19832206 -6.92227624 3.86618825 -10.75 5.375 C-22.42707729 10.17145228 -32.69364692 16.78636311 -42.06640625 25.25390625 C-43.36767467 26.42899106 -44.68868923 27.58253289 -46.02734375 28.71484375 C-50.8423588 32.79050908 -54.93366395 37.18847567 -59 42 C-60.2281844 43.37587746 -61.45734175 44.75088706 -62.6875 46.125 C-65.94798211 49.86066448 -69.06840724 53.57869809 -70.8671875 58.25390625 C-71.97577232 60.94126877 -73.32183646 63.39175094 -74.76708984 65.91015625 C-79.32634403 73.93410289 -82.16333464 81.96083212 -84.44091797 90.8828125 C-84.90409591 92.63682085 -85.42723206 94.37487058 -85.96556962 96.10728848 C-87.12405185 100.16908375 -87.66810568 104.20711352 -88.10996819 108.40057182 C-88.19425536 109.18642554 -88.27854253 109.97227925 -88.36538386 110.78194671 C-89.1604643 118.72658513 -89.27407447 126.6136062 -89.24050903 134.59085083 C-89.24138418 136.17381066 -89.2431408 137.75677021 -89.24568737 139.33972824 C-89.25010428 143.63169628 -89.24223645 147.92356222 -89.23213124 152.21551728 C-89.2234162 156.86555079 -89.22642254 161.5155795 -89.22793579 166.1656189 C-89.2289796 174.20295681 -89.22275606 182.24026202 -89.21146011 190.27759171 C-89.19513921 201.89791972 -89.18999039 213.51823206 -89.18748413 225.13857029 C-89.18311732 243.99619773 -89.16983586 262.85380778 -89.15087891 281.71142578 C-89.13249378 300.01936761 -89.11835019 318.3273047 -89.10986328 336.63525391 C-89.10933783 337.7655832 -89.10881239 338.8959125 -89.10827102 340.0604942 C-89.10566076 345.73156983 -89.10313339 351.40264549 -89.10064721 357.07372117 C-89.07994632 404.04915949 -89.04474855 451.02457884 -89 498 C-89.33 498 -89.66 498 -90 498 C-92.04339238 491.24086193 -92.29313797 485.01659393 -92.28520203 477.98144531 C-92.29169999 476.78401073 -92.29819796 475.58657616 -92.30489284 474.35285568 C-92.32084704 471.04379806 -92.32799011 467.73493754 -92.33133328 464.42585754 C-92.33710546 460.84719069 -92.35429919 457.26857583 -92.37002563 453.68994141 C-92.39906687 446.66709229 -92.41752195 439.6442532 -92.43236574 432.62136126 C-92.4501655 424.37350229 -92.47819931 416.12568711 -92.50649796 407.87785864 C-92.55690765 393.07484037 -92.59759866 378.27181093 -92.63305664 363.46875 C-92.66707007 349.27080232 -92.70837493 335.07290161 -92.75805664 320.875 C-92.81244522 305.32835504 -92.86277463 289.78170656 -92.90639621 274.23502731 C-92.90874091 273.39949758 -92.91108561 272.56396785 -92.91350136 271.70311904 C-92.9182044 270.0269139 -92.92289965 268.35070875 -92.92758697 266.67450356 C-92.94364714 261.00552908 -92.96218855 255.33656619 -92.98166466 249.66760254 C-93.05322557 228.44483871 -93.07017227 207.2227906 -93 186 C-92.99755423 185.20500469 -92.99510846 184.41000938 -92.99258858 183.59092331 C-92.95911871 172.90084737 -92.89662818 162.21145927 -92.7946316 151.52181244 C-92.76561764 148.42577932 -92.74492841 145.32988384 -92.73225152 142.23374176 C-92.62954198 119.29605438 -91.18696013 96.69265966 -83 75 C-82.01 74.505 -82.01 74.505 -81 74 C-80.88398438 73.32839844 -80.76796875 72.65679687 -80.6484375 71.96484375 C-75.3799283 47.87569627 -49.92968807 25.04410771 -30.21289062 12.36523438 C-6.60278638 -2.20092879 -6.60278638 -2.20092879 0 0 Z " fill="#55ACFC" transform="translate(283,213)"/>
<path d="M0 0 C0 15.84 0 31.68 0 48 C-15.98264296 41.15029587 -25.04226822 28.93166531 -32.16796875 13.46484375 C-33.5124088 10.08796381 -34 7.67748033 -34 4 C-22.17937598 1.09508622 -12.33933636 0 0 0 Z " fill="#637EFD" transform="translate(503,564)"/>
<path d="M0 0 C0 15.84 0 31.68 0 48 C-19.55574324 46.84966216 -19.55574324 46.84966216 -26.5625 45.4375 C-27.66368164 45.22963867 -27.66368164 45.22963867 -28.78710938 45.01757812 C-30.52656555 44.68787728 -32.26362033 44.34553738 -34 44 C-33.42868663 38.81794637 -31.7661583 34.8332952 -29.4375 30.25 C-29.08179932 29.54625244 -28.72609863 28.84250488 -28.35961914 28.11743164 C-25.24237303 22.13602276 -21.56397916 16.97888636 -17 12 C-16.41347656 11.34515625 -15.82695312 10.6903125 -15.22265625 10.015625 C-5.78485577 0 -5.78485577 0 0 0 Z " fill="#5B86FE" transform="translate(503,408)"/>
<path d="M0 0 C10.12626604 0 10.12626604 0 13.640625 0.62109375 C14.78144531 0.81735352 14.78144531 0.81735352 15.9453125 1.01757812 C16.70585938 1.15615234 17.46640625 1.29472656 18.25 1.4375 C19.41402344 1.63956055 19.41402344 1.63956055 20.6015625 1.84570312 C24.41182557 2.51217405 28.21122207 3.21951175 32 4 C30.30338275 19.36706198 21.70248268 32.39749209 10.17578125 42.34375 C4.05896226 47 4.05896226 47 0 47 C0 31.49 0 15.98 0 0 Z " fill="#6B7FFC" transform="translate(521,564)"/>
<path d="M0 0 C17.0875138 9.49306322 27.18086176 23.80420901 34 42 C34 42.66 34 43.32 34 44 C29.83491163 44.67678186 25.66771325 45.33959148 21.5 46 C20.32695313 46.19078125 19.15390625 46.3815625 17.9453125 46.578125 C16.79804687 46.75859375 15.65078125 46.9390625 14.46875 47.125 C12.89770508 47.37636719 12.89770508 47.37636719 11.29492188 47.6328125 C7.55113421 48.05002179 3.76696292 48 0 48 C0 32.16 0 16.32 0 0 Z " fill="#6285FD" transform="translate(521,408)"/>
<path d="M0 0 C5.2815175 -0.00255338 10.56301232 -0.01001177 15.84452152 -0.01947546 C22.83350172 -0.03157574 29.82239455 -0.03176567 36.81137943 -0.02297735 C39.29961952 -0.02101375 41.78786444 -0.02208834 44.27610111 -0.02665472 C56.95308205 -0.04600268 69.28542509 0.1933298 81.81766605 2.24566126 C81.81766605 2.57566126 81.81766605 2.90566126 81.81766605 3.24566126 C76.20766605 3.24566126 70.59766605 3.24566126 64.81766605 3.24566126 C64.48766605 3.90566126 64.15766605 4.56566126 63.81766605 5.24566126 C22.67923776 5.29163212 -18.45918714 5.32677792 -59.59763608 5.34779192 C-64.47564088 5.35029276 -69.35364563 5.35288146 -74.23165035 5.35552454 C-75.2026042 5.35604916 -76.17355805 5.35657378 -77.17393474 5.3571143 C-92.81019828 5.36577139 -108.44644682 5.38151489 -124.08270152 5.39996685 C-140.17652069 5.41879765 -156.27033212 5.42980553 -172.36416185 5.43383825 C-181.38289844 5.43631493 -190.40160374 5.44222552 -199.42032909 5.45712137 C-272.62310659 5.57468016 -272.62310659 5.57468016 -302.18233395 3.24566126 C-302.18233395 2.91566126 -302.18233395 2.58566126 -302.18233395 2.24566126 C-83.29503279 0.03740261 -83.29503279 0.03740261 0 0 Z " fill="#7671F2" transform="translate(621.182333946228,826.7543387413025)"/>
<path d="M0 0 C1.60624997 2.40937495 2.58487481 4.24364166 3.60400391 6.88891602 C3.90416412 7.66304337 4.20432434 8.43717072 4.51358032 9.23475647 C4.83136444 10.0660759 5.14914856 10.89739532 5.4765625 11.75390625 C5.80667328 12.61056381 6.13678406 13.46722137 6.47689819 14.34983826 C7.17292368 16.15888434 7.86710365 17.96864141 8.55957031 19.77905273 C9.62298411 22.55723346 10.69388267 25.332445 11.765625 28.10742188 C12.44055444 29.86441043 13.11504857 31.62156628 13.7890625 33.37890625 C14.11089508 34.21224991 14.43272766 35.04559357 14.76431274 35.90419006 C17 41.76985221 17 41.76985221 17 44 C6.11 44 -4.78 44 -16 44 C-14.15820845 37.86069484 -12.31167958 31.84281953 -10.1171875 25.83984375 C-9.85745148 25.12389542 -9.59771545 24.40794708 -9.33010864 23.67030334 C-8.78867101 22.18017263 -8.24584903 20.6905442 -7.70166016 19.20141602 C-6.86586835 16.91249178 -6.03620861 14.62140568 -5.20703125 12.33007812 C-4.67744438 10.87486855 -4.14750956 9.41978556 -3.6171875 7.96484375 C-3.3692746 7.27954086 -3.12136169 6.59423798 -2.86593628 5.88816833 C-1.11500094 1.11500094 -1.11500094 1.11500094 0 0 Z " fill="#FAFCFE" transform="translate(361,340)"/>
<path d="M0 0 C13.47096792 4.80379799 26.23703342 15.87957939 35 27 C35 27.66 35 28.32 35 29 C32.73117913 29.83919398 30.46022973 30.67151724 28.1875 31.5 C27.54490234 31.73847656 26.90230469 31.97695313 26.24023438 32.22265625 C23.35066261 33.27068746 21.09923939 34 18 34 C17.59910156 33.01902344 17.19820312 32.03804688 16.78515625 31.02734375 C12.17942474 20.00741942 6.62556936 9.93835404 0 0 Z " fill="#5C7AFD" transform="translate(553,413)"/>
<path d="M0 0 C2.60315407 2.60315407 3.48161942 5.55902936 4.75 8.9375 C9.24581934 20.98926063 9.24581934 20.98926063 17 31 C16.67 31.66 16.34 32.32 16 33 C4.37314476 25.91331446 -6.88913594 18.19943812 -15 7 C-15 6.34 -15 5.68 -15 5 C-10.05 3.35 -5.1 1.7 0 0 Z " fill="#5A78FC" transform="translate(451,572)"/>
<path d="M0 0 C0.33 0 0.66 0 1 0 C3.80918398 28.81431608 3.23937158 57.7645106 3.14405322 86.67867911 C3.12129574 93.70942395 3.11060068 100.74017362 3.10064721 107.77094638 C3.07999088 122.18066876 3.04503595 136.59033333 3 151 C2.67 151 2.34 151 2 151 C-0.32252824 143.64279883 -0.26921037 136.63620616 -0.22705078 128.96484375 C-0.22648584 127.55481474 -0.22680484 126.14478514 -0.22793579 124.73475647 C-0.22850707 120.92744815 -0.21678935 117.12026715 -0.20278788 113.31298828 C-0.19024289 109.32650405 -0.18910706 105.34001655 -0.18673706 101.35351562 C-0.18053333 93.81369462 -0.16413757 86.27393196 -0.14403808 78.73413658 C-0.12164454 70.14645641 -0.11067698 61.55877337 -0.10064721 52.97107124 C-0.07977031 35.31401448 -0.04461596 17.65701194 0 0 Z " fill="#6298F9" transform="translate(191,560)"/>
<path d="M0 0 C0.33 0 0.66 0 1 0 C1.33 3.63 1.66 7.26 2 11 C1.67 11 1.34 11 1 11 C0.67 86.57 0.34 162.14 0 240 C-0.33 240 -0.66 240 -1 240 C-1.15717025 220.25176388 -1.30497851 200.50347608 -1.4429636 180.75509644 C-1.50729482 171.57611563 -1.57423193 162.39717039 -1.64819336 153.21826172 C-1.94949479 115.64185974 -2.14071539 78.07572377 -1.62250781 40.50035095 C-1.59011179 38.1444919 -1.55907097 35.78861753 -1.5281086 33.43273926 C-1.47913008 29.77786673 -1.42434167 26.12312722 -1.3644135 22.46841812 C-1.33287196 20.51258209 -1.30482717 18.55669064 -1.27690697 16.60079956 C-1.17443508 10.98019638 -0.9978129 5.5373549 0 0 Z " fill="#58A2F6" transform="translate(192,320)"/>
<path d="M0 0 C1.38983849 0.24114784 1.38983849 0.24114784 2.80775452 0.48716736 C7.88500871 1.20713481 12.95616128 1.17649322 18.07592773 1.20532227 C19.71606087 1.22017166 19.71606087 1.22017166 21.389328 1.23532104 C24.9873949 1.26679585 28.58547497 1.2916379 32.18359375 1.31640625 C34.68466018 1.33698789 37.18572323 1.35798467 39.68678284 1.37937927 C45.58682687 1.42884991 51.48689129 1.47414735 57.38698393 1.51740164 C64.76779025 1.57176872 72.14854044 1.63265348 79.52929688 1.69335938 C92.68615967 1.80078799 105.84306046 1.9024479 119 2 C119 2.33 119 2.66 119 3 C115.66894457 3.74600154 112.59588471 4.12411765 109.18473816 4.12025452 C108.24389374 4.12162918 107.30304932 4.12300385 106.33369446 4.12442017 C105.31373886 4.12082489 104.29378326 4.11722961 103.24291992 4.11352539 C101.61785522 4.11374443 101.61785522 4.11374443 99.95996094 4.1139679 C96.38344309 4.11327192 92.80697749 4.1054942 89.23046875 4.09765625 C86.74896778 4.09579095 84.26746644 4.09436758 81.78596497 4.09336853 C75.25773093 4.08955215 68.72951918 4.07972934 62.20129395 4.06866455 C55.53849711 4.05789079 48.8756938 4.05386686 42.21289062 4.04882812 C29.14191758 4.03810631 16.07095998 4.02123289 3 4 C2.67 3.01 2.34 2.02 2 1 C1.34 0.67 0.68 0.34 0 0 Z " fill="#5B49F6" transform="translate(595,716)"/>
<path d="M0 0 C4.29 0 8.58 0 13 0 C13 9.24 13 18.48 13 28 C-1.19 28 -15.38 28 -30 28 C-30 25.69 -30 23.38 -30 21 C-29.01 20.34 -28.02 19.68 -27 19 C-27 20.98 -27 22.96 -27 25 C-14.79 25 -2.58 25 10 25 C10 17.41 10 9.82 10 2 C6.7 1.67 3.4 1.34 0 1 C0 0.67 0 0.34 0 0 Z " fill="#4771FC" transform="translate(490,473)"/>
<path d="M0 0 C0.33 0 0.66 0 1 0 C0.99555878 1.26596512 0.99111755 2.53193024 0.98654175 3.83625793 C0.94590695 15.79704656 0.91597308 27.75782109 0.89637566 39.71866322 C0.88596158 45.86707765 0.87184587 52.01543612 0.84912109 58.16381836 C0.82730789 64.10308567 0.81541352 70.04229933 0.81024551 75.98160362 C0.80656495 78.24167411 0.7993779 80.50174183 0.78853989 82.76178932 C0.77391228 85.93997043 0.77202675 89.11793294 0.77294922 92.29614258 C0.76575867 93.21972061 0.75856812 94.14329865 0.75115967 95.09486389 C0.77136725 101.57594564 1.65925181 107.66349405 3 114 C-0.06581229 110.09805709 -2.24844577 107.00348504 -2.25396729 101.94174194 C-2.25960693 101.1429361 -2.26524658 100.34413025 -2.27105713 99.52111816 C-2.26700867 98.65353882 -2.26296021 97.78595947 -2.25878906 96.89208984 C-2.2622937 95.97122589 -2.26579834 95.05036194 -2.26940918 94.10159302 C-2.27821671 91.0546313 -2.27237783 88.00790163 -2.265625 84.9609375 C-2.26697262 82.83826656 -2.26891397 80.71559591 -2.27142334 78.59292603 C-2.27437386 74.13923205 -2.27008181 69.68561825 -2.26074219 65.23193359 C-2.24938938 59.5427576 -2.25588109 53.8537712 -2.26788712 48.16460228 C-2.27514326 43.77721756 -2.27279987 39.38987712 -2.26763153 35.002491 C-2.26630324 32.90627647 -2.26791382 30.81005784 -2.27259064 28.71384811 C-2.277713 25.77055106 -2.26986418 22.8275524 -2.25878906 19.88427734 C-2.26283752 19.02884338 -2.26688599 18.17340942 -2.27105713 17.29205322 C-2.22986813 11.33443204 -1.3500276 5.79843003 0 0 Z " fill="#4C52F8" transform="translate(567,578)"/>
<path d="M0 0 C14.19 0 28.38 0 43 0 C43 10 43 10 41 13 C41 9.37 41 5.74 41 2 C28.13 2 15.26 2 2 2 C2 11.24 2 20.48 2 30 C1.34 30 0.68 30 0 30 C0 20.1 0 10.2 0 0 Z " fill="#5571FB" transform="translate(520,517)"/>
<path d="M0 0 C0.66 0.33 1.32 0.66 2 1 C1.56429688 1.43828125 1.12859375 1.8765625 0.6796875 2.328125 C-8.76569934 12.38684865 -13.31829341 24.12946812 -13.2746582 37.81176758 C-13.27976913 38.65358078 -13.28488007 39.49539398 -13.29014587 40.36271667 C-13.30395414 43.1233955 -13.3030915 45.88382216 -13.30078125 48.64453125 C-13.30467346 50.5797281 -13.3090092 52.5149241 -13.31376648 54.45011902 C-13.32121022 58.49908216 -13.32095116 62.54795809 -13.31567383 66.59692383 C-13.30988675 71.761331 -13.32680088 76.92537865 -13.3500185 82.08972645 C-13.36481987 86.08511917 -13.36561877 90.08042662 -13.36250877 94.0758419 C-13.36301894 95.97865192 -13.3681988 97.8814671 -13.37832069 99.78425026 C-13.52392239 113.09845536 -13.52392239 113.09845536 -10.54582214 126.00541687 C-10 128 -10 128 -11 131 C-11.48198463 129.75108386 -11.96045677 128.50081192 -12.4375 127.25 C-12.70433594 126.55390625 -12.97117187 125.8578125 -13.24609375 125.140625 C-14.99670447 120.16997903 -15.15995766 115.53337918 -15.17700195 110.29101562 C-15.18357315 109.41237854 -15.19014435 108.53374146 -15.19691467 107.628479 C-15.2166197 104.7210684 -15.22830715 101.81370951 -15.23828125 98.90625 C-15.24235678 97.90990036 -15.2464323 96.91355072 -15.25063133 95.88700867 C-15.27148513 90.60826832 -15.28578705 85.32955387 -15.29516602 80.05078125 C-15.30619898 74.62175429 -15.34056496 69.19314075 -15.38033772 63.76425934 C-15.40660254 59.57067145 -15.41486683 55.37718034 -15.41844749 51.18351746 C-15.42329188 49.18382491 -15.43484389 47.18413606 -15.45348549 45.18452454 C-15.57584929 31.18318198 -14.42673242 20.10264802 -7.05078125 7.83984375 C-5.8502852 5.8773421 -5.8502852 5.8773421 -5 3 C-2.5625 1.25 -2.5625 1.25 0 0 Z " fill="#0878FB" transform="translate(286,302)"/>
<path d="M0 0 C0.66 0 1.32 0 2 0 C-1.56727319 22.19636649 -15.95335516 42.07471896 -31 58 C-31.99773438 59.05960938 -31.99773438 59.05960938 -33.015625 60.140625 C-37.58225 64.86075 -37.58225 64.86075 -41 66 C-39.81498565 61.85244978 -37.97805373 59.88341071 -34.58984375 57.265625 C-32.73236917 55.83578585 -32.73236917 55.83578585 -30.25 53.25 C-28 51 -28 51 -26 50 C-26 49.34 -26 48.68 -26 48 C-25.34 48 -24.68 48 -24 48 C-24 47.01 -24 46.02 -24 45 C-22.35903575 43.30802131 -20.68820019 41.64485126 -19 40 C-10.31948088 28.02746765 -4.44785953 14.03024398 0 0 Z " fill="#836AF4" transform="translate(826,731)"/>
<path d="M0 0 C1.485 0.99 1.485 0.99 3 2 C3.32279968 3.87295532 3.32279968 3.87295532 3.2487793 6.17431641 C3.22853195 7.03505768 3.20828461 7.89579895 3.18742371 8.78262329 C3.15006607 9.71287323 3.11270844 10.64312317 3.07421875 11.6015625 C3.04777786 12.55316254 3.02133698 13.50476257 2.99409485 14.48519897 C2.90613974 17.53242392 2.79705764 20.57848253 2.6875 23.625 C2.62426121 25.68745785 2.56239451 27.74995827 2.50195312 29.8125 C2.35056786 34.87563166 2.18022864 39.93781628 2 45 C4.64 45 7.28 45 10 45 C9.34 45.99 8.68 46.98 8 48 C5.36 48 2.72 48 0 48 C0 32.16 0 16.32 0 0 Z " fill="#4A74FC" transform="translate(521,408)"/>
<path d="M0 0 C0.99 0.33 1.98 0.66 3 1 C3 1.66 3 2.32 3 3 C6.3 3 9.6 3 13 3 C12.67 3.66 12.34 4.32 12 5 C4.768976 6.24879111 -2.26027615 5.9454376 -9.5625 5.5625 C-11.21862305 5.48418945 -11.21862305 5.48418945 -12.90820312 5.40429688 C-15.60584136 5.27583791 -18.3029899 5.14093867 -21 5 C-21.33 4.34 -21.66 3.68 -22 3 C-22.99 3 -23.98 3 -25 3 C-25 2.34 -25 1.68 -25 1 C-24.21625 1.185625 -23.4325 1.37125 -22.625 1.5625 C-20.02910225 2.25962266 -20.02910225 2.25962266 -18 1 C-18 1.66 -18 2.32 -18 3 C-16.68 3 -15.36 3 -14 3 C-13.67 2.34 -13.34 1.68 -13 1 C-13 1.66 -13 2.32 -13 3 C-11.02013918 2.88652381 -9.04108402 2.7589065 -7.0625 2.625 C-5.40927734 2.52058594 -5.40927734 2.52058594 -3.72265625 2.4140625 C-2.82417969 2.27742187 -1.92570312 2.14078125 -1 2 C-0.67 1.34 -0.34 0.68 0 0 Z " fill="#52A5F9" transform="translate(413,200)"/>
<path d="M0 0 C9.9 0 19.8 0 30 0 C30 4.29 30 8.58 30 13 C29.67 13 29.34 13 29 13 C29 9.37 29 5.74 29 2 C20.09 2 11.18 2 2 2 C2 4.97 2 7.94 2 11 C0 7 0 7 0 0 Z " fill="#3D6CFB" transform="translate(413,517)"/>
<path d="M0 0 C0.72256485 0.00141495 1.4451297 0.0028299 2.18959045 0.00428772 C4.4714899 0.009834 6.75328704 0.02237605 9.03515625 0.03515625 C10.59309753 0.04017821 12.15104037 0.04473989 13.70898438 0.04882812 C17.50524706 0.05978575 21.30143438 0.07701253 25.09765625 0.09765625 C25.09765625 0.75765625 25.09765625 1.41765625 25.09765625 2.09765625 C19.89126184 3.16260056 14.88453657 3.24732288 9.59765625 3.22265625 C8.76878906 3.22652344 7.93992187 3.23039063 7.0859375 3.234375 C3.49505272 3.22866612 0.23426459 3.12303532 -3.30859375 2.46484375 C-6.13406162 1.77124217 -6.13406162 1.77124217 -8.90234375 4.09765625 C-11.52734375 3.84765625 -11.52734375 3.84765625 -13.90234375 3.09765625 C-14.23234375 2.43765625 -14.56234375 1.77765625 -14.90234375 1.09765625 C-9.90244783 0.27618387 -5.07057357 -0.03816605 0 0 Z " fill="#52A8FB" transform="translate(327.90234375,202.90234375)"/>
<path d="M0 0 C2 3 2 3 3 16 C-6.57 16 -16.14 16 -26 16 C-26 13.69 -26 11.38 -26 9 C-25.67 9 -25.34 9 -25 9 C-25 10.65 -25 12.3 -25 14 C-16.42 14 -7.84 14 1 14 C0.67 9.38 0.34 4.76 0 0 Z " fill="#3853FA" transform="translate(607,485)"/>
<path d="M0 0 C9.57 0 19.14 0 29 0 C28.34 4.62 27.68 9.24 27 14 C26.67 14 26.34 14 26 14 C25.91615922 9.72412002 26.15271797 6.23641013 27 2 C18.42 2 9.84 2 1 2 C0.67 2.99 0.34 3.98 0 5 C0 3.35 0 1.7 0 0 Z " fill="#4A61F9" transform="translate(581,517)"/>
<path d="M0 0 C-1.54407091 1.54407091 -3.05590957 1.21648176 -5.20703125 1.31640625 C-6.09495361 1.35830078 -6.98287598 1.40019531 -7.89770508 1.44335938 C-8.8595874 1.48267578 -9.82146973 1.52199219 -10.8125 1.5625 C-12.27949341 1.62727539 -12.27949341 1.62727539 -13.77612305 1.69335938 C-21.49212708 2.00604459 -29.19411065 2.07249571 -36.9152832 1.96313477 C-38.94344226 1.94134 -40.97201327 1.96573623 -43 2 C-44.58403524 3.58403524 -44.21974935 5.2771638 -44.31640625 7.47265625 C-44.35830078 8.37177734 -44.40019531 9.27089844 -44.44335938 10.19726562 C-44.48267578 11.14279297 -44.52199219 12.08832031 -44.5625 13.0625 C-44.60568359 14.01189453 -44.64886719 14.96128906 -44.69335938 15.93945312 C-44.79979276 18.29281353 -44.90181008 20.64628354 -45 23 C-45.33 23 -45.66 23 -46 23 C-46.02887512 19.35418313 -46.04675585 15.70839537 -46.0625 12.0625 C-46.07087891 11.02158203 -46.07925781 9.98066406 -46.08789062 8.90820312 C-46.09272461 7.42416992 -46.09272461 7.42416992 -46.09765625 5.91015625 C-46.10289307 4.99371338 -46.10812988 4.07727051 -46.11352539 3.13305664 C-46 1 -46 1 -45 0 C-41.93424821 -0.1729281 -38.88895971 -0.2841922 -35.8203125 -0.3515625 C-34.89660858 -0.37471527 -33.97290466 -0.39786804 -33.02120972 -0.42172241 C-31.06253714 -0.46944148 -29.10380246 -0.51466564 -27.14501953 -0.55761719 C-24.14461973 -0.62456224 -21.14463807 -0.70236469 -18.14453125 -0.78125 C-16.24480711 -0.82617868 -14.34506778 -0.8704705 -12.4453125 -0.9140625 C-11.09519577 -0.94990952 -11.09519577 -0.94990952 -9.71780396 -0.98648071 C-8.88038666 -1.0033493 -8.04296936 -1.0202179 -7.18017578 -1.03759766 C-6.44372833 -1.05456696 -5.70728088 -1.07153625 -4.94851685 -1.08901978 C-3 -1 -3 -1 0 0 Z " fill="#669BFE" transform="translate(414,459)"/>
<path d="M0 0 C1.65 0 3.3 0 5 0 C3.68 0.33 2.36 0.66 1 1 C1.33 15.52 1.66 30.04 2 45 C2.33 44.34 2.66 43.68 3 43 C5.3140622 42.26924352 7.64828869 41.59861742 10 41 C6.48487252 44.91685634 5.37985925 45.92402815 0 47 C0 31.49 0 15.98 0 0 Z " fill="#2A45F9" transform="translate(521,564)"/>
<path d="M0 0 C1.25159912 0.00523682 2.50319824 0.01047363 3.79272461 0.01586914 C4.78942421 0.01799156 4.78942421 0.01799156 5.80625916 0.02015686 C7.93590735 0.02577021 10.06545175 0.03832485 12.19506836 0.05102539 C13.63582205 0.05603868 15.07657739 0.06060188 16.51733398 0.06469727 C20.05577938 0.07574394 23.59416375 0.09301747 27.13256836 0.11352539 C26.80256836 0.77352539 26.47256836 1.43352539 26.13256836 2.11352539 C17.18974797 3.38082347 7.10490756 3.93680379 -1.86743164 3.11352539 C-2.52743164 2.45352539 -3.18743164 1.79352539 -3.86743164 1.11352539 C-2.86743164 0.11352539 -2.86743164 0.11352539 0 0 Z " fill="#5D9DFC" transform="translate(524.867431640625,202.886474609375)"/>
<path d="M0 0 C0.33 0 0.66 0 1 0 C1.95267263 7.97602562 1.98941394 15.67427621 1.5625 23.6875 C1.51029297 24.78255859 1.45808594 25.87761719 1.40429688 27.00585938 C1.2762779 29.67098163 1.14141505 32.33556082 1 35 C-1.22311152 31.42826323 -1.2449261 28.49228371 -1.23046875 24.3359375 C-1.22853516 23.04945313 -1.22660156 21.76296875 -1.22460938 20.4375 C-1.21840576 19.77105469 -1.21220215 19.10460937 -1.20581055 18.41796875 C-1.18749887 16.37487377 -1.18530142 14.33223118 -1.18554688 12.2890625 C-1.14032817 2.28065634 -1.14032817 2.28065634 0 0 Z " fill="#866CF6" transform="translate(832,675)"/>
<path d="M0 0 C0 3 0 3 -1.96875 5.26171875 C-2.8040625 6.06222656 -3.639375 6.86273438 -4.5 7.6875 C-5.3353125 8.49574219 -6.170625 9.30398438 -7.03125 10.13671875 C-8.00578125 11.05904297 -8.00578125 11.05904297 -9 12 C-6.67427031 14.32572969 -1.16406466 14.26493126 2.09765625 14.80664062 C5.65224658 15.43144566 7.95701066 15.97134044 11 18 C2.63051177 17.25166929 -5.6769795 16.14302815 -14 15 C-9.59156563 9.70987876 -4.92440206 4.81191572 0 0 Z " fill="#2767FA" transform="translate(546,312)"/>
<path d="M0 0 C0.99 0.66 1.98 1.32 3 2 C-4.79066777 7.15261744 -12.48619133 12.09620294 -21 16 C-21 15.01 -21 14.02 -21 13 C-20.09121094 12.56300781 -20.09121094 12.56300781 -19.1640625 12.1171875 C-8.18911052 7.61295475 -8.18911052 7.61295475 0 0 Z " fill="#816BF5" transform="translate(777,800)"/>
<path d="M0 0 C0.66 0.33 1.32 0.66 2 1 C1.56429688 1.43828125 1.12859375 1.8765625 0.6796875 2.328125 C-6.45042242 9.92122907 -11.03184121 18.7655743 -13 29 C-13.66 28.34 -14.32 27.68 -15 27 C-12.94153195 20.20360548 -10.72016877 13.94034251 -7.05078125 7.83984375 C-5.8502852 5.8773421 -5.8502852 5.8773421 -5 3 C-2.5625 1.25 -2.5625 1.25 0 0 Z " fill="#167CFD" transform="translate(286,302)"/>
<path d="M0 0 C3.62276315 1.3255581 6.63505348 2.94346955 9.8125 5.125 C10.60269531 5.66382813 11.39289062 6.20265625 12.20703125 6.7578125 C12.79871094 7.16773438 13.39039063 7.57765625 14 8 C12.68 8.33 11.36 8.66 10 9 C10 9.99 10 10.98 10 12 C9.67 12.66 9.34 13.32 9 14 C7.6860942 12.04260958 6.37391698 10.08405875 5.0625 8.125 C4.33160156 7.03445313 3.60070312 5.94390625 2.84765625 4.8203125 C1 2 1 2 0 0 Z " fill="#3A5EF8" transform="translate(553,413)"/>
<path d="M0 0 C-0.33 0.66 -0.66 1.32 -1 2 C-2.60910557 2.20541773 -4.21911098 2.40519334 -5.83203125 2.578125 C-9.29703998 3.25239697 -12.37978884 4.77977438 -15.5703125 6.2578125 C-18.43322678 7.13233615 -20.15137675 6.80085849 -23 6 C-19.65836994 3.77224663 -16.45287175 2.87261136 -12.625 1.875 C-11.635 1.60236328 -11.635 1.60236328 -10.625 1.32421875 C-7.00469039 0.36505306 -3.74589021 -0.21694345 0 0 Z " fill="#52A8F8" transform="translate(306,206)"/>
<path d="M0 0 C0.99 0.33 1.98 0.66 3 1 C3 2.65 3 4.3 3 6 C15.87 6.495 15.87 6.495 29 7 C29 7.33 29 7.66 29 8 C19.76 8 10.52 8 1 8 C-0.35439668 5.29120665 -0.06501451 2.99066732 0 0 Z " fill="#6E94FE" transform="translate(413,491)"/>
<path d="M0 0 C0.33 0.66 0.66 1.32 1 2 C-0.28699102 5.86097306 -1.53766238 5.96775835 -5 8 C-6.13394465 9.05294861 -7.25840408 10.11617148 -8.375 11.1875 C-11.23872511 13.73653004 -11.8661856 13.98725577 -15.9375 14.375 C-16.948125 14.25125 -17.95875 14.1275 -19 14 C-19 13.67 -19 13.34 -19 13 C-18.01 12.814375 -17.02 12.62875 -16 12.4375 C-9.42013413 10.58232484 -4.60703778 4.79899768 0 0 Z " fill="#3F47F6" transform="translate(508,706)"/>
<path d="M0 0 C2.4291373 3.01327002 4.09184125 6.0405505 5.6875 9.5625 C6.12449219 10.51253906 6.56148437 11.46257812 7.01171875 12.44140625 C8 15 8 15 8 18 C7.34 18 6.68 18 6 18 C5.65066406 17.14535156 5.30132813 16.29070312 4.94140625 15.41015625 C4.48636719 14.30542969 4.03132812 13.20070313 3.5625 12.0625 C3.11003906 10.96035156 2.65757812 9.85820312 2.19140625 8.72265625 C1.25575392 6.13431084 1.25575392 6.13431084 0 5 C-0.04063832 3.33382885 -0.042721 1.66611905 0 0 Z " fill="#7C72F4" transform="translate(817,274)"/>
<path d="M0 0 C4.17443363 3.50074982 8.3145494 6.97950843 12 11 C12 11.66 12 12.32 12 13 C11.01 12.67 10.02 12.34 9 12 C9 11.34 9 10.68 9 10 C8.443125 9.79375 7.88625 9.5875 7.3125 9.375 C4.02987629 7.42316968 2.29326754 5.05769006 0 2 C0 1.34 0 0.68 0 0 Z " fill="#7875F4" transform="translate(790,239)"/>
<path d="M0 0 C0.33 0 0.66 0 1 0 C0.88490339 1.41750563 0.75746342 2.83401169 0.625 4.25 C0.55539062 5.03890625 0.48578125 5.8278125 0.4140625 6.640625 C-0.01507113 9.085877 -0.78600638 10.84836903 -2 13 C-2.66 13 -3.32 13 -4 13 C-4.33 13.99 -4.66 14.98 -5 16 C-6 14 -6 14 -5.29296875 11.50390625 C-4.92816406 10.53324219 -4.56335938 9.56257812 -4.1875 8.5625 C-3.83042969 7.59441406 -3.47335937 6.62632812 -3.10546875 5.62890625 C-2 3 -2 3 0 0 Z " fill="#6651F9" transform="translate(749,681)"/>
<path d="M0 0 C0.99 0.33 1.98 0.66 3 1 C2.88658509 3.48020497 2.75985314 5.95844969 2.625 8.4375 C2.5940625 9.14455078 2.563125 9.85160156 2.53125 10.58007812 C2.42719371 12.39239188 2.22080108 14.19817988 2 16 C1.34 16.33 0.68 16.66 0 17 C0 11.39 0 5.78 0 0 Z " fill="#866DF9" transform="translate(831,653)"/>
<path d="M0 0 C1.10865985 0.91122727 2.21172219 1.82926659 3.3125 2.75 C3.92738281 3.26046875 4.54226563 3.7709375 5.17578125 4.296875 C7 6 7 6 10 10 C6.37 9.34 2.74 8.68 -1 8 C-1 7.67 -1 7.34 -1 7 C0.65 6.67 2.3 6.34 4 6 C3.34 5.38125 2.68 4.7625 2 4.125 C0 2 0 2 0 0 Z " fill="#3F51F7" transform="translate(487,666)"/>
<path d="M0 0 C3.92734211 3.77024843 7.44406161 7.88470051 11 12 C6.91958698 12 5.48873198 10.35977354 2.51953125 7.734375 C0.39499021 5.30944898 0.07547434 3.1699221 0 0 Z " fill="#504BF7" transform="translate(572,696)"/>
<path d="M0 0 C0 0.33 0 0.66 0 1 C-5.05002222 2.03590199 -9.87416389 2.10251672 -15 2 C-15 1.34 -15 0.68 -15 0 C-9.62374766 -0.84888195 -5.34629602 -1.0024305 0 0 Z " fill="#7E6DF4" transform="translate(718,827)"/>
<path d="M0 0 C-1.41632134 1.10460959 -2.83307264 2.20866788 -4.25 3.3125 C-5.03890625 3.92738281 -5.8278125 4.54226563 -6.640625 5.17578125 C-8.7462297 6.80379018 -10.86609343 8.40935863 -13 10 C-11.69063102 7.07909997 -10.24380538 5.24380538 -8 3 C-7.67 2.01 -7.34 1.02 -7 0 C-2.25 -1.125 -2.25 -1.125 0 0 Z " fill="#4A53F8" transform="translate(589,552)"/>
<path d="M0 0 C2.39105598 2.14926381 3.63278854 3.99036913 4.75 7 C5.01296875 7.680625 5.2759375 8.36125 5.546875 9.0625 C6 11 6 11 5 14 C4.67 12.68 4.34 11.36 4 10 C3.34 10 2.68 10 2 10 C0.39644899 6.49223216 -0.22036864 3.85645121 0 0 Z " fill="#3082FD" transform="translate(381,350)"/>
<path d="M0 0 C0.33 0.99 0.66 1.98 1 3 C-1.64 5.31 -4.28 7.62 -7 10 C-7 5.69032084 -4.83274712 4.10253255 -2 1 C-1.34 0.67 -0.68 0.34 0 0 Z " fill="#6053F9" transform="translate(670,635)"/>
<path d="M0 0 C6.93 0.495 6.93 0.495 14 1 C12.68 2.32 11.36 3.64 10 5 C9.67 4.34 9.34 3.68 9 3 C6.88153715 2.31270746 6.88153715 2.31270746 4.4375 1.875 C3.61121094 1.70742188 2.78492188 1.53984375 1.93359375 1.3671875 C1.29550781 1.24601563 0.65742188 1.12484375 0 1 C0 0.67 0 0.34 0 0 Z " fill="#394BF7" transform="translate(481,691)"/>
<path d="M0 0 C2.2985113 4.5970226 3.69448102 7.8702582 2.0625 12.875 C1.711875 13.57625 1.36125 14.2775 1 15 C0.67 15 0.34 15 0 15 C0 10.05 0 5.1 0 0 Z " fill="#566AFA" transform="translate(580,518)"/>
<path d="M0 0 C0.99 0.66 1.98 1.32 3 2 C1.75336669 2.50833591 0.50250613 3.00631145 -0.75 3.5 C-1.44609375 3.7784375 -2.1421875 4.056875 -2.859375 4.34375 C-5 5 -5 5 -9 5 C-9 4.34 -9 3.68 -9 3 C-7.56879256 2.44191911 -6.12969645 1.90403538 -4.6875 1.375 C-3.88699219 1.07335937 -3.08648438 0.77171875 -2.26171875 0.4609375 C-1.51535156 0.30882812 -0.76898437 0.15671875 0 0 Z " fill="#7E6BF3" transform="translate(747,817)"/>
<path d="M0 0 C0 0.66 0 1.32 0 2 C0.66 2.33 1.32 2.66 2 3 C-2.8333472 3.08333357 -7.23692563 2.95261487 -12 2 C-12 1.67 -12 1.34 -12 1 C-10.56274129 0.83126522 -9.12518162 0.66509263 -7.6875 0.5 C-6.88699219 0.4071875 -6.08648438 0.314375 -5.26171875 0.21875 C-3 0 -3 0 0 0 Z " fill="#3668FC" transform="translate(529,385)"/>
<path d="M0 0 C1.32 0.33 2.64 0.66 4 1 C0.535 3.97 0.535 3.97 -3 7 C-2.25 2.25 -2.25 2.25 0 0 Z " fill="#656FFB" transform="translate(571,550)"/>
<path d="M0 0 C-0.33 0.66 -0.66 1.32 -1 2 C-3.72265625 2.6328125 -3.72265625 2.6328125 -7.0625 3.125 C-8.16722656 3.29257812 -9.27195312 3.46015625 -10.41015625 3.6328125 C-11.69212891 3.81457031 -11.69212891 3.81457031 -13 4 C-10.96180154 1.96180154 -9.70582202 1.32158941 -7.0625 0.3125 C-6.37285156 0.04050781 -5.68320312 -0.23148437 -4.97265625 -0.51171875 C-3 -1 -3 -1 0 0 Z " fill="#445EFC" transform="translate(596,459)"/>
<path d="M0 0 C2.5 2.3125 2.5 2.3125 5 5 C5 5.99 5 6.98 5 8 C2.36 6.35 -0.28 4.7 -3 3 C-2.01 2.67 -1.02 2.34 0 2 C0 1.34 0 0.68 0 0 Z " fill="#3A55F7" transform="translate(462,597)"/>
<path d="M0 0 C5.61 0.33 11.22 0.66 17 1 C14.30898766 3.69101234 12.80924054 3.29887549 9.0625 3.3125 C8.00160156 3.32925781 6.94070313 3.34601563 5.84765625 3.36328125 C3 3 3 3 0 0 Z " fill="#5D9DFE" transform="translate(310,458)"/>
<path d="M0 0 C0.268125 0.639375 0.53625 1.27875 0.8125 1.9375 C1.88667752 4.33131686 1.88667752 4.33131686 5 5 C5.5625 6.9375 5.5625 6.9375 6 9 C6.66 9.66 7.32 10.32 8 11 C6.25 10.9375 6.25 10.9375 4 10 C1.55272534 6.7838181 0 4.07605096 0 0 Z " fill="#2375FB" transform="translate(391,414)"/>
<path d="M0 0 C0.95837449 3.04626176 1.01658162 5.09213636 0.25 8.1875 C0.01023437 9.22970703 0.01023437 9.22970703 -0.234375 10.29296875 C-0.61335938 11.13794922 -0.61335938 11.13794922 -1 12 C-1.99 12.33 -2.98 12.66 -4 13 C-3.52140759 11.39566191 -3.04210442 9.79153584 -2.5625 8.1875 C-2.29566406 7.29417969 -2.02882813 6.40085937 -1.75390625 5.48046875 C-1.19612127 3.64526945 -0.60655425 1.81966274 0 0 Z " fill="#2469FD" transform="translate(450,422)"/>
<path d="M0 0 C0.66 0.33 1.32 0.66 2 1 C0.35 2.98 -1.3 4.96 -3 7 C-3.33 6.01 -3.66 5.02 -4 4 C-4.66 3.67 -5.32 3.34 -6 3 C-4.03533587 1.93224776 -2.03144641 0.93446535 0 0 Z " fill="#2560F9" transform="translate(469,413)"/>
<path d="M0 0 C0 3 0 3 -1 5 C0.32 5.66 1.64 6.32 3 7 C0.125 7.125 0.125 7.125 -3 7 C-3.66 6.34 -4.32 5.68 -5 5 C-3.35 3.35 -1.7 1.7 0 0 Z " fill="#6896FD" transform="translate(541,319)"/>
<path d="M0 0 C0.66 0.33 1.32 0.66 2 1 C0.02 3.31 -1.96 5.62 -4 8 C-4.66 7.01 -5.32 6.02 -6 5 C-4.60210322 2.20420645 -2.7371003 1.40192942 0 0 Z " fill="#2D8BFD" transform="translate(286,302)"/>
<path d="M0 0 C3.35620271 1.38877354 5.07298728 2.91677965 7 6 C7 6.66 7 7.32 7 8 C5.68 7.34 4.36 6.68 3 6 C3 5.01 3 4.02 3 3 C2.01 2.67 1.02 2.34 0 2 C0 1.34 0 0.68 0 0 Z " fill="#7B75F5" transform="translate(802,253)"/>
<path d="M0 0 C2.29633824 3.44450737 2.54016485 5.93812283 3 10 C2.34 10 1.68 10 1 10 C0.63883954 8.5225254 0.28624952 7.04295325 -0.0625 5.5625 C-0.25972656 4.73878906 -0.45695313 3.91507812 -0.66015625 3.06640625 C-0.82837891 2.04353516 -0.82837891 2.04353516 -1 1 C-0.67 0.67 -0.34 0.34 0 0 Z " fill="#7E72F5" transform="translate(825,292)"/>
<path d="M0 0 C0 0.66 0 1.32 0 2 C-2.64 2.33 -5.28 2.66 -8 3 C-8 2.34 -8 1.68 -8 1 C-5.07175348 0.02391783 -3.04386724 -0.08226668 0 0 Z " fill="#826EF6" transform="translate(731,823)"/>
<path d="M0 0 C-1.32 0.33 -2.64 0.66 -4 1 C-4 1.66 -4 2.32 -4 3 C-5.98 3 -7.96 3 -10 3 C-9 1 -9 1 -6.125 -0.1875 C-3 -1 -3 -1 0 0 Z " fill="#5346F9" transform="translate(620,675)"/>
<path d="M0 0 C0.33 0.66 0.66 1.32 1 2 C-0.125 3.5 -0.125 3.5 -2 5 C-5.1875 5.1875 -5.1875 5.1875 -8 5 C-5.37352812 3.24901874 -2.71224618 1.61268692 0 0 Z " fill="#3677FD" transform="translate(365,483)"/>
<path d="M0 0 C-0.99 0 -1.98 0 -3 0 C-3.33 1.98 -3.66 3.96 -4 6 C-6 3 -6 3 -6 0 C-3.50907189 -1.24546405 -2.58919267 -0.7767578 0 0 Z " fill="#3A57F9" transform="translate(582,464)"/>
<path d="M0 0 C2.31 0 4.62 0 7 0 C7 0.33 7 0.66 7 1 C4.69 1 2.38 1 0 1 C0 0.67 0 0.34 0 0 Z " fill="#6A6EE0" transform="translate(320,831)"/>
<path d="M0 0 C1.98 0 3.96 0 6 0 C5.67 0.66 5.34 1.32 5 2 C3.35 1.67 1.7 1.34 0 1 C0 0.67 0 0.34 0 0 Z " fill="#6A6EDE" transform="translate(312,830)"/>
<path d="M0 0 C4 1 4 1 4 1 Z " fill="#6670E3" transform="translate(716,203)"/>
<path d="M0 0 C4 1 4 1 4 1 Z " fill="#6275E4" transform="translate(676,201)"/>
<path d="M0 0 C4 1 4 1 4 1 Z " fill="#5B82EA" transform="translate(580,201)"/>
<path d="M0 0 C4 1 4 1 4 1 Z " fill="#5984E8" transform="translate(564,201)"/>
<path d="M0 0 C4 1 4 1 4 1 Z " fill="#5886E8" transform="translate(556,201)"/>
<path d="M0 0 C4 1 4 1 4 1 Z " fill="#5887E9" transform="translate(548,201)"/>
<path d="M0 0 C4 1 4 1 4 1 Z " fill="#568AE8" transform="translate(524,201)"/>
<path d="M0 0 C4 1 4 1 4 1 Z " fill="#528EE9" transform="translate(484,201)"/>
<path d="M0 0 C4 1 4 1 4 1 Z " fill="#5190E9" transform="translate(476,201)"/>
<path d="M0 0 C4 1 4 1 4 1 Z " fill="#5190E7" transform="translate(460,201)"/>
<path d="M0 0 C0.66 0.66 1.32 1.32 2 2 C1.01 1.67 0.02 1.34 -1 1 C-0.67 0.67 -0.34 0.34 0 0 Z " fill="#4F93E9" transform="translate(429,200)"/>
<path d="M0 0 C4 1 4 1 4 1 Z " fill="#4E95E9" transform="translate(404,201)"/>
<path d="M0 0 C4 1 4 1 4 1 Z " fill="#4C96E9" transform="translate(380,201)"/>
<path d="M0 0 C4 1 4 1 4 1 Z " fill="#4E96E9" transform="translate(372,201)"/>
<path d="M0 0 C4 1 4 1 4 1 Z " fill="#4D97EB" transform="translate(364,201)"/>
<path d="M0 0 C4 1 4 1 4 1 Z " fill="#4F98EB" transform="translate(348,201)"/>
<path d="M0 0 C3 1 3 1 3 1 Z " fill="#7365E0" transform="translate(692,831)"/>
<path d="M0 0 C3 1 3 1 3 1 Z " fill="#7362DE" transform="translate(707,830)"/>
<path d="M0 0 C3 1 3 1 3 1 Z " fill="#6A6EDE" transform="translate(305,829)"/>
<path d="M0 0 C0.99 0.495 0.99 0.495 2 1 C1.01 1.495 1.01 1.495 0 2 C0 1.34 0 0.68 0 0 Z " fill="#6A71E1" transform="translate(280,822)"/>
<path d="" fill="#657BE4" transform="translate(0,0)"/>
<path d="" fill="#549BEC" transform="translate(0,0)"/>
<path d="M0 0 C3 1 3 1 3 1 Z " fill="#6072E2" transform="translate(684,201)"/>
<path d="M0 0 C3 1 3 1 3 1 Z " fill="#6177E5" transform="translate(661,201)"/>
<path d="M0 0 C3 1 3 1 3 1 Z " fill="#568AE9" transform="translate(533,201)"/>
<path d="M0 0 C3 1 3 1 3 1 Z " fill="#558CEA" transform="translate(517,201)"/>
<path d="M0 0 C3 1 3 1 3 1 Z " fill="#558DE9" transform="translate(509,201)"/>
<path d="M0 0 C3 1 3 1 3 1 Z " fill="#5092E9" transform="translate(445,201)"/>
<path d="M0 0 C3 1 3 1 3 1 Z " fill="#5095E9" transform="translate(421,201)"/>
<path d="M0 0 C3 1 3 1 3 1 Z " fill="#4F97EA" transform="translate(332,201)"/>
<path d="M0 0 C2 1 2 1 2 1 Z " fill="#7363DF" transform="translate(699,831)"/>
<path d="M0 0 C2 1 2 1 2 1 Z " fill="#7263E1" transform="translate(696,831)"/>
<path d="M0 0 C2 1 2 1 2 1 Z " fill="#7364E1" transform="translate(688,831)"/>
<path d="M0 0 C2 1 2 1 2 1 Z " fill="#7464E1" transform="translate(704,830)"/>
<path d="M0 0 C2 1 2 1 2 1 Z " fill="#7664E2" transform="translate(714,829)"/>
<path d="M0 0 C2 1 2 1 2 1 Z " fill="#7561E0" transform="translate(745,821)"/>
<path d="M0 0 C2 1 2 1 2 1 Z " fill="#6773E0" transform="translate(264,815)"/>
<path d="M0 0 C2 1 2 1 2 1 Z " fill="#657BE5" transform="translate(193,728)"/>
<path d="M0 0 C2 1 2 1 2 1 Z " fill="#549BED" transform="translate(192,307)"/>
<path d="M0 0 C2 1 2 1 2 1 Z " fill="#529BEA" transform="translate(193,304)"/>
<path d="M0 0 C2 1 2 1 2 1 Z " fill="#539AE9" transform="translate(200,283)"/>
<path d="" fill="#5198E6" transform="translate(0,0)"/>
<path d="M0 0 C2 1 2 1 2 1 Z " fill="#6472E2" transform="translate(699,201)"/>
<path d="M0 0 C2 1 2 1 2 1 Z " fill="#6573E2" transform="translate(694,201)"/>
<path d="M0 0 C2 1 2 1 2 1 Z " fill="#5E79E6" transform="translate(636,201)"/>
<path d="M0 0 C2 1 2 1 2 1 Z " fill="#5F7BE7" transform="translate(630,201)"/>
<path d="M0 0 C2 1 2 1 2 1 Z " fill="#5D7EE8" transform="translate(612,201)"/>
<path d="M0 0 C2 1 2 1 2 1 Z " fill="#5B81E8" transform="translate(588,201)"/>
<path d="M0 0 C2 1 2 1 2 1 Z " fill="#5984E7" transform="translate(572,201)"/>
<path d="M0 0 C2 1 2 1 2 1 Z " fill="#5787E7" transform="translate(540,201)"/>
<path d="M0 0 C2 1 2 1 2 1 Z " fill="#4F94E8" transform="translate(396,201)"/>
<path d="M0 0 C2 1 2 1 2 1 Z " fill="#4F97E9" transform="translate(326,201)"/>
<path d="" fill="#000000" transform="translate(0,0)"/>
<path d="" fill="#151428" transform="translate(0,0)"/>
<path d="" fill="#000000" transform="translate(0,0)"/>
<path d="" fill="#6B70DE" transform="translate(0,0)"/>
<path d="" fill="#6874E2" transform="translate(0,0)"/>
<path d="" fill="#6975E0" transform="translate(0,0)"/>
<path d="" fill="#7860DF" transform="translate(0,0)"/>
<path d="" fill="#6A74E0" transform="translate(0,0)"/>
<path d="" fill="#6974DF" transform="translate(0,0)"/>
<path d="" fill="#785FE1" transform="translate(0,0)"/>
<path d="" fill="#7961DF" transform="translate(0,0)"/>
<path d="" fill="#6878E2" transform="translate(0,0)"/>
<path d="" fill="#6879E3" transform="translate(0,0)"/>
<path d="" fill="#6A7AE5" transform="translate(0,0)"/>
<path d="" fill="#6878E2" transform="translate(0,0)"/>
<path d="" fill="#795FDF" transform="translate(0,0)"/>
<path d="" fill="#697BE1" transform="translate(0,0)"/>
<path d="" fill="#687BE3" transform="translate(0,0)"/>
<path d="" fill="#7862E1" transform="translate(0,0)"/>
<path d="" fill="#7861E1" transform="translate(0,0)"/>
<path d="" fill="#687CE5" transform="translate(0,0)"/>
<path d="" fill="#7960E3" transform="translate(0,0)"/>
<path d="" fill="#677CE3" transform="translate(0,0)"/>
<path d="" fill="#7962E2" transform="translate(0,0)"/>
<path d="" fill="#677FE6" transform="translate(0,0)"/>
<path d="" fill="#559EEC" transform="translate(0,0)"/>
<path d="" fill="#7667E3" transform="translate(0,0)"/>
<path d="" fill="#7369E1" transform="translate(0,0)"/>
<path d="" fill="#7066E2" transform="translate(0,0)"/>
<path d="" fill="#7366E0" transform="translate(0,0)"/>
<path d="" fill="#549CE9" transform="translate(0,0)"/>
<path d="" fill="#7268E0" transform="translate(0,0)"/>
<path d="" fill="#7168DD" transform="translate(0,0)"/>
<path d="" fill="#7168DE" transform="translate(0,0)"/>
<path d="" fill="#529AE9" transform="translate(0,0)"/>
<path d="" fill="#5199E7" transform="translate(0,0)"/>
<path d="" fill="#6F68DE" transform="translate(0,0)"/>
<path d="" fill="#6F68E1" transform="translate(0,0)"/>
<path d="" fill="#6E68DD" transform="translate(0,0)"/>
<path d="" fill="#4D9BE7" transform="translate(0,0)"/>
<path d="" fill="#519AE9" transform="translate(0,0)"/>
<path d="" fill="#5298E8" transform="translate(0,0)"/>
<path d="" fill="#6C6BE0" transform="translate(0,0)"/>
<path d="" fill="#4F98E8" transform="translate(0,0)"/>
<path d="" fill="#696DE2" transform="translate(0,0)"/>
<path d="" fill="#6C6CE1" transform="translate(0,0)"/>
<path d="" fill="#529AE8" transform="translate(0,0)"/>
<path d="" fill="#4F96E6" transform="translate(0,0)"/>
<path d="" fill="#509BEC" transform="translate(0,0)"/>
<path d="" fill="#6A6FE1" transform="translate(0,0)"/>
<path d="" fill="#6971E3" transform="translate(0,0)"/>
<path d="" fill="#686FE2" transform="translate(0,0)"/>
<path d="" fill="#6870E1" transform="translate(0,0)"/>
<path d="" fill="#4F96E7" transform="translate(0,0)"/>
<path d="" fill="#6870E2" transform="translate(0,0)"/>
<path d="" fill="#6572E3" transform="translate(0,0)"/>
<path d="" fill="#5297EA" transform="translate(0,0)"/>
<path d="" fill="#6372E3" transform="translate(0,0)"/>
<path d="" fill="#6373E1" transform="translate(0,0)"/>
<path d="" fill="#5F79E5" transform="translate(0,0)"/>
<path d="" fill="#617AE5" transform="translate(0,0)"/>
<path d="" fill="#607AE6" transform="translate(0,0)"/>
<path d="" fill="#5F7AE7" transform="translate(0,0)"/>
<path d="" fill="#5D7BE6" transform="translate(0,0)"/>
<path d="" fill="#5F7CE8" transform="translate(0,0)"/>
<path d="" fill="#5E7CE7" transform="translate(0,0)"/>
<path d="" fill="#5D7EE8" transform="translate(0,0)"/>
<path d="" fill="#5E7EE7" transform="translate(0,0)"/>
<path d="" fill="#5D7FE7" transform="translate(0,0)"/>
<path d="" fill="#5C7EE7" transform="translate(0,0)"/>
<path d="" fill="#5D80E8" transform="translate(0,0)"/>
<path d="" fill="#5D82E9" transform="translate(0,0)"/>
<path d="" fill="#5A82E8" transform="translate(0,0)"/>
<path d="" fill="#5A84E8" transform="translate(0,0)"/>
<path d="" fill="#5885E7" transform="translate(0,0)"/>
<path d="" fill="#5887E8" transform="translate(0,0)"/>
<path d="" fill="#558AEA" transform="translate(0,0)"/>
<path d="" fill="#538FE8" transform="translate(0,0)"/>
<path d="" fill="#5391EA" transform="translate(0,0)"/>
<path d="" fill="#5092E8" transform="translate(0,0)"/>
<path d="" fill="#5092EA" transform="translate(0,0)"/>
<path d="" fill="#4D97EA" transform="translate(0,0)"/>
<path d="" fill="#4E96EA" transform="translate(0,0)"/>
<path d="" fill="#5098EC" transform="translate(0,0)"/>
<path d="" fill="#4F98EB" transform="translate(0,0)"/>
<path d="" fill="#5097EA" transform="translate(0,0)"/>
<path d="" fill="#5096EA" transform="translate(0,0)"/>
<path d="" fill="#4E97EB" transform="translate(0,0)"/>
<path d="" fill="#5097EC" transform="translate(0,0)"/>
<path d="" fill="#5096EA" transform="translate(0,0)"/>
<path d="" fill="#5096E9" transform="translate(0,0)"/>
<path d="" fill="#4F96EA" transform="translate(0,0)"/>
<path d="" fill="#4D93E4" transform="translate(0,0)"/>
<path d="" fill="#000000" transform="translate(0,0)"/>
<path d="" fill="#010306" transform="translate(0,0)"/>
</svg>
