<?xml version="1.0" encoding="UTF-8"?>
<svg version="1.1" xmlns="http://www.w3.org/2000/svg" width="1024" height="1024">
<path d="M0 0 C337.92 0 675.84 0 1024 0 C1024 337.92 1024 675.84 1024 1024 C686.08 1024 348.16 1024 0 1024 C0 686.08 0 348.16 0 0 Z " fill="#FEFEFE" transform="translate(0,0)"/>
<path d="M0 0 C1.56184051 -0.00187333 3.12368055 -0.00417609 4.68551987 -0.00686532 C8.93403715 -0.01292555 13.18253459 -0.01285662 17.43105519 -0.01167095 C22.03051686 -0.01146546 26.6299724 -0.01699985 31.22943115 -0.02172852 C40.22581154 -0.03000455 49.22218538 -0.032782 58.21856926 -0.03334089 C65.54064366 -0.03381764 72.86271593 -0.03588027 80.18478966 -0.03904152 C100.99272208 -0.04784087 121.80064937 -0.05246219 142.60858367 -0.05171105 C143.72833013 -0.05167109 144.84807659 -0.05163113 146.00175476 -0.05158997 C147.68345129 -0.05152864 147.68345129 -0.05152864 149.39912149 -0.05146609 C167.54508492 -0.05106013 185.69102755 -0.06061873 203.83698497 -0.07472833 C222.51669185 -0.08913704 241.19638862 -0.09599601 259.8761012 -0.09513456 C270.34404866 -0.09480407 280.81197434 -0.09748559 291.27991676 -0.10831261 C300.19697176 -0.11747712 309.1139951 -0.11954463 318.03105281 -0.11280318 C322.56897233 -0.10956731 327.10683133 -0.10937313 331.64474487 -0.11815643 C381.95233276 -0.20941453 381.95233276 -0.20941453 402.88237 4.32121277 C403.90193787 4.53479431 404.92150574 4.74837585 405.9719696 4.96842957 C415.66864398 7.10799299 424.84568303 10.17754452 433.94487 14.13371277 C434.6333905 14.43116394 435.32191101 14.72861511 436.03129578 15.03507996 C468.48368955 29.3876806 493.82674863 56.02624561 507.04740906 88.87297058 C519.12058161 120.94984514 519.10061078 154.49144201 519.09025371 188.303285 C519.09004745 192.51419989 519.09558974 196.72510818 519.10031128 200.9360199 C519.10857093 209.1649702 519.11136401 217.39391334 519.11192366 225.62286744 C519.11240117 232.32318145 519.11446757 239.02349312 519.11762428 245.72380638 C519.12641899 264.78335409 519.13104565 283.8428962 519.13029381 302.90244595 C519.13023387 304.43944378 519.13023387 304.43944378 519.13017273 306.00749207 C519.13011141 307.54639985 519.13011141 307.54639985 519.13004885 309.11639669 C519.12964298 325.71787697 519.1392007 342.31933452 519.1533111 358.92080823 C519.16773545 376.02877746 519.17457793 393.13673565 519.17371732 410.2447111 C519.17338738 419.82459678 519.1760445 429.40445862 519.18689537 438.98433876 C519.19608068 447.14512556 519.1981108 455.30587773 519.19138595 463.46666751 C519.18816034 467.6161305 519.18791695 471.76552739 519.1967392 475.91498375 C519.30132652 528.52019743 516.38641954 581.2454131 478.50737 621.61027527 C474.24932034 625.80341563 469.68944521 629.50826758 464.94487 633.13371277 C464.09408875 633.80015808 463.2433075 634.46660339 462.366745 635.15324402 C429.0326559 660.45321883 388.27109226 667.31527991 347.34457397 667.26742554 C345.80778298 667.26929794 344.27099246 667.27160034 342.73420268 667.27429086 C338.54571485 667.28036254 334.35724711 667.28028077 330.16875589 667.27909648 C325.63746423 667.27889129 321.10617883 667.28442264 316.57489014 667.28915405 C307.70858209 667.29743655 298.84228069 667.30020784 289.9759691 667.30076643 C282.76061838 667.30124289 275.54526984 667.30330412 268.32991982 667.30646706 C247.83206492 667.31526838 227.33421525 667.31988744 206.83635845 667.31913658 C205.73287771 667.31909663 204.62939697 667.31905667 203.49247742 667.3190155 C202.38763446 667.31897462 201.28279151 667.31893374 200.14446846 667.31889162 C182.2621542 667.31848567 164.37986105 667.3280437 146.49755289 667.34215387 C128.09590201 667.35655812 109.6942614 667.36342178 91.29260474 667.36256009 C80.97783346 667.36222944 70.66308428 667.3649183 60.3483181 667.37573814 C51.56144546 667.38489677 42.77460495 667.38697492 33.98772957 667.38022872 C29.51487995 667.37698987 25.04209177 667.37680987 20.5692482 667.38558197 C-29.26348239 667.47700925 -77.17814071 663.31718633 -117.05513 630.13371277 C-117.58316223 629.69672058 -118.11119446 629.25972839 -118.65522766 628.80949402 C-146.67622105 605.30043212 -161.08336961 570.38320685 -164.65443039 534.6187191 C-166.21382634 516.79962732 -166.34477272 499.0441354 -166.31657934 481.17552662 C-166.31197945 476.8454765 -166.31907527 472.51544125 -166.32453918 468.18539429 C-166.33335635 459.73995766 -166.3315457 451.2945569 -166.3257139 442.84911896 C-166.32116623 435.9740239 -166.3205978 429.09893877 -166.32276154 422.22384262 C-166.323068 421.23909491 -166.32337447 420.25434721 -166.32369022 419.23975866 C-166.32432978 417.23819602 -166.32497821 415.23663338 -166.3256354 413.23507075 C-166.33131637 394.53750958 -166.32481638 375.83996814 -166.31403467 357.1424102 C-166.30510401 341.16131109 -166.30665157 325.18024105 -166.31587219 309.19914246 C-166.32661937 290.56395439 -166.33076433 271.92878355 -166.32464767 253.29359281 C-166.32401068 251.29946669 -166.32338194 249.30534057 -166.32276154 247.31121445 C-166.32245298 246.33050848 -166.32214443 245.34980251 -166.32182653 244.33937819 C-166.32011267 237.48784581 -166.32298621 230.63632451 -166.32772064 223.78479385 C-166.33337934 215.41299976 -166.33170988 207.04124307 -166.32115915 198.66945316 C-166.31596817 194.41272269 -166.31373051 190.15605417 -166.32045746 185.89932442 C-166.39753814 132.60813061 -163.23506126 82.75286453 -123.99263 42.69621277 C-90.57229379 9.49552906 -45.67741989 -0.05280629 0 0 Z " fill="#6C87EA" transform="translate(336.0551300048828,178.8662872314453)"/>
<path d="M0 0 C3.87805083 3.34791926 7.52634483 6.9043524 11.16552734 10.50830078 C11.90158203 11.18376953 12.63763672 11.85923828 13.39599609 12.55517578 C35.42780599 33.13578862 47.83552552 65.42946373 49.29370117 95.11791992 C49.75284852 111.19705071 48.31879901 126.74194244 45.16552734 142.50830078 C38.56552734 142.50830078 31.96552734 142.50830078 25.16552734 142.50830078 C26.60302734 134.57080078 26.60302734 134.57080078 27.05004883 132.12963867 C27.16936768 131.46182373 27.28868652 130.79400879 27.41162109 130.10595703 C27.53206787 129.44088135 27.65251465 128.77580566 27.77661133 128.09057617 C28.35571417 124.24552235 28.73612335 120.37293675 29.16552734 116.50830078 C18.60552734 116.50830078 8.04552734 116.50830078 -2.83447266 116.50830078 C-2.83447266 120.13830078 -2.83447266 123.76830078 -2.83447266 127.50830078 C-3.22478653 131.14342399 -3.66125991 134.7126121 -4.20947266 138.32080078 C-4.33580078 139.2225 -4.46212891 140.12419922 -4.59228516 141.05322266 C-6.34919873 153.02658866 -6.34919873 153.02658866 -9.46337891 156.13330078 C-10.10146484 156.58705078 -10.73955078 157.04080078 -11.39697266 157.50830078 C-21.66576992 165.96275682 -28.00649961 179.52698887 -29.83447266 192.50830078 C-30.02056639 195.47305379 -30.08885937 198.43708807 -30.15087891 201.40673828 C-30.17166 202.2416983 -30.1924411 203.07665833 -30.21385193 203.93692017 C-30.27886735 206.58563568 -30.33800756 209.23444437 -30.39697266 211.88330078 C-30.44020361 213.68669556 -30.48381932 215.49008116 -30.52783203 217.29345703 C-30.63449905 221.69831117 -30.73589961 226.10325838 -30.83447266 230.50830078 C-37.14881194 233.77801703 -37.14881194 233.77801703 -40.67431641 234.64111328 C-41.34527344 234.80740234 -42.01623047 234.97369141 -42.70751953 235.14501953 C-43.38878906 235.30615234 -44.07005859 235.46728516 -44.77197266 235.63330078 C-45.449375 235.80216797 -46.12677734 235.97103516 -46.82470703 236.14501953 C-66.50042918 240.93661438 -90.51407652 240.65387377 -109.83447266 234.50830078 C-111.05392578 234.13447266 -112.27337891 233.76064453 -113.52978516 233.37548828 C-132.239833 227.16621966 -147.675734 217.04604212 -161.83447266 203.50830078 C-162.50736328 202.89857422 -163.18025391 202.28884766 -163.87353516 201.66064453 C-181.42973175 185.18859554 -191.77619018 162.06097091 -197.64697266 139.13330078 C-197.85418945 138.32538086 -198.06140625 137.51746094 -198.27490234 136.68505859 C-202.38632322 119.73324741 -201.96266465 101.24414313 -199.52197266 84.07080078 C-199.4043457 83.23830811 -199.28671875 82.40581543 -199.16552734 81.5480957 C-198.25959594 75.82810046 -196.70839052 71.13005436 -194.83447266 65.50830078 C-184.93447266 65.01330078 -184.93447266 65.01330078 -174.83447266 64.50830078 C-175.43259766 66.79767578 -176.03072266 69.08705078 -176.64697266 71.44580078 C-178.84884167 80.06775151 -180.37171992 88.73178436 -181.83447266 97.50830078 C-170.61447266 97.50830078 -159.39447266 97.50830078 -147.83447266 97.50830078 C-147.83447266 93.54830078 -147.83447266 89.58830078 -147.83447266 85.50830078 C-147.02607587 75.33201186 -145.16196065 65.43891624 -142.83447266 55.50830078 C-145.80447266 55.01330078 -145.80447266 55.01330078 -148.83447266 54.50830078 C-148.17447266 54.03392578 -147.51447266 53.55955078 -146.83447266 53.07080078 C-132.5208306 40.84456486 -126.13648204 25.85666973 -123.83447266 7.50830078 C-123.83447266 6.84830078 -123.83447266 6.18830078 -123.83447266 5.50830078 C-123.83447266 -1.82503255 -123.83447266 -9.15836589 -123.83447266 -16.49169922 C-118.35631758 -18.77779916 -113.02661245 -20.90531924 -107.20947266 -22.17919922 C-106.18595703 -22.40994141 -105.16244141 -22.64068359 -104.10791016 -22.87841797 C-68.40355746 -29.56765827 -28.68184333 -23.32260617 0 0 Z " fill="#FDFDFE" transform="translate(587.83447265625,396.49169921875)"/>
<path d="M0 0 C1.33053909 -0.00856522 1.33053909 -0.00856522 2.68795776 -0.01730347 C4.13654427 -0.01898026 4.13654427 -0.01898026 5.61439514 -0.02069092 C7.14939667 -0.02813828 7.14939667 -0.02813828 8.71540833 -0.03573608 C12.10500257 -0.05035276 15.49454993 -0.05716101 18.88417053 -0.06268311 C21.24627686 -0.06843756 23.60838319 -0.07419526 25.9704895 -0.07995605 C30.92943031 -0.09046643 35.88835492 -0.09630801 40.8473053 -0.09979248 C47.17518672 -0.10525925 53.50285102 -0.12924828 59.83066463 -0.15776443 C64.7148499 -0.17647482 69.59898392 -0.18160101 74.48320198 -0.18312836 C76.8141911 -0.18613946 79.14517965 -0.19411535 81.47613335 -0.20731354 C102.00529428 -0.31519848 118.56785232 0.83743978 134.25135803 15.64825439 C144.03746784 26.28460543 147.67474678 37.88503752 147.72132874 52.06060791 C147.72789993 52.93793076 147.73447113 53.8152536 147.74124146 54.71916199 C147.76088408 57.61089174 147.77261866 60.5025697 147.78260803 63.39434814 C147.78668356 64.38761549 147.79075909 65.38088284 147.79495811 66.40424919 C147.81578329 71.66469995 147.83009872 76.92512491 147.8394928 82.18560791 C147.85053234 87.58981729 147.88491432 92.99361215 147.9246645 98.39767551 C147.95094522 102.5784323 147.9591949 106.75909213 147.96277428 110.93992424 C147.96761291 112.93041715 147.97914807 114.92090654 147.99781227 116.91131783 C148.1547597 134.76214871 145.90168766 149.12169215 133.35682678 162.89044189 C118.20764749 176.95753696 100.68254722 176.62637401 81.29432678 176.82794189 C79.08467173 176.86116613 76.8750354 176.89566039 74.66542053 176.93145752 C69.29185093 177.01577494 63.91826143 177.08436513 58.54432678 177.14044189 C58.53498108 177.901875 58.52563538 178.66330811 58.51600647 179.44781494 C58.46221741 182.9085081 58.37858495 186.36786207 58.29432678 189.82794189 C58.28014709 191.02612549 58.26596741 192.22430908 58.25135803 193.45880127 C58.21913147 194.61573486 58.18690491 195.77266846 58.15370178 196.96466064 C58.13275452 198.02773438 58.11180725 199.09080811 58.09022522 200.18609619 C57.41564677 203.83684476 56.1338315 205.51852457 53.54432678 208.14044189 C50.29432678 209.39044189 50.29432678 209.39044189 46.54432678 209.14044189 C41.27654143 205.7331614 37.16894325 200.67327628 33.03260803 196.02325439 C21.3058612 181.73683317 21.3058612 181.73683317 4.95082092 175.24493408 C1.53572486 175.35164603 -1.83557814 175.60842261 -5.23008728 175.9944458 C-14.67126154 176.61377689 -24.30991056 170.76772998 -31.45567322 165.14044189 C-40.73270429 156.7653444 -46.59311874 145.39112943 -47.64393044 132.90317345 C-47.71959995 130.58523647 -47.73751593 128.27477883 -47.73033142 125.95562744 C-47.73544235 125.08601379 -47.74055328 124.21640015 -47.74581909 123.32043457 C-47.7596114 120.47260471 -47.75876596 117.62501974 -47.75645447 114.77716064 C-47.76034748 112.77852795 -47.76468338 110.77989608 -47.7694397 108.78126526 C-47.77687996 104.60124017 -47.77662686 100.42129957 -47.77134705 96.24127197 C-47.76555966 90.91220899 -47.7824766 85.5834944 -47.80569172 80.25448895 C-47.82049945 76.12866733 -47.82129114 72.00292822 -47.81818199 67.87708473 C-47.81869181 65.91369755 -47.82386504 63.95030532 -47.83399391 61.9869442 C-47.91716233 43.61071761 -45.85591243 28.17379972 -32.71348572 14.20684814 C-24.08715637 6.31181662 -11.91196756 0.04610914 0 0 Z " fill="#FEFEFE" transform="translate(305.45567321777344,274.85955810546875)"/>
<path d="M0 0 C1.1122847 -0.00700928 2.2245694 -0.01401855 3.37055969 -0.02124023 C7.00910185 -0.03869444 10.64685176 -0.02724083 14.28540039 -0.01367188 C16.83785652 -0.01637057 19.39031165 -0.02025613 21.94276428 -0.02526855 C27.27770785 -0.0311468 32.6123736 -0.0230435 37.94726562 -0.00390625 C44.08110515 0.0178454 50.21441229 0.01081105 56.34823889 -0.01121187 C62.29097078 -0.03168018 68.23353996 -0.02934942 74.17630196 -0.01768494 C76.68590941 -0.01503224 79.19553062 -0.01823559 81.70512199 -0.02760315 C101.19425985 -0.08439346 116.82619407 0.92965889 131.94555664 14.70507812 C145.32767788 29.14876187 145.67228037 46.04488055 145.66430664 64.56835938 C145.67142577 66.59653427 145.67912726 68.6247072 145.68737793 70.65287781 C145.70075657 74.88639943 145.7024215 79.11973477 145.6965332 83.35327148 C145.69064416 88.73585767 145.72122764 94.11753971 145.76165009 99.49995136 C145.78769963 103.68428733 145.79038895 107.86841054 145.78675842 112.05281639 C145.78843363 114.03524229 145.79791888 116.01767976 145.81590271 118.0000248 C145.94491834 133.97676244 144.51267147 148.52673213 134.19555664 161.51757812 C133.61805664 162.38382813 133.04055664 163.25007812 132.44555664 164.14257812 C124.94824394 172.05640819 113.04981714 178.98614208 101.95929813 179.6517992 C100.72914305 179.65820942 100.72914305 179.65820942 99.47413635 179.66474915 C98.05524864 179.6754821 98.05524864 179.6754821 96.60769653 179.68643188 C95.57651703 179.68912079 94.54533752 179.69180969 93.48291016 179.69458008 C92.39130081 179.70115128 91.29969147 179.70772247 90.17500305 179.7144928 C86.55815561 179.73421956 82.94134977 179.7458898 79.32446289 179.75585938 C77.4677361 179.76197267 77.4677361 179.76197267 75.57349968 179.76820946 C69.6921849 179.78692147 63.81088326 179.80148408 57.92954594 179.80982143 C51.16999687 179.81956464 44.41077782 179.84580866 37.65134484 179.88632232 C31.77487523 179.92031769 25.89851451 179.93198279 20.02195549 179.93602562 C17.53465482 179.94087703 15.04735729 179.95244937 12.56012154 179.97106361 C-6.91198204 180.10768157 -22.60418364 179.13376548 -37.61694336 165.20507812 C-50.7297038 151.08846999 -51.40560736 135.04627854 -51.30053711 116.82226562 C-51.30069235 114.62134758 -51.30218545 112.42042926 -51.3049469 110.21951294 C-51.30632548 105.6252217 -51.29386151 101.0312447 -51.27099609 96.43701172 C-51.2425799 90.56861026 -51.24536537 84.7007289 -51.2580862 78.83228874 C-51.26506255 74.29391082 -51.25723229 69.75565171 -51.24482918 65.21728897 C-51.24033607 63.05409324 -51.23995901 60.89088466 -51.24389458 58.72768784 C-51.24682691 55.69889191 -51.23020457 52.67079684 -51.20849609 49.64208984 C-51.21299774 48.76182129 -51.21749939 47.88155273 -51.22213745 46.97460938 C-51.06822794 33.95560137 -45.58670734 22.89594034 -36.83569336 13.39648438 C-26.45020094 3.78990389 -13.92329383 -0.11040425 0 0 Z " fill="#FEFEFE" transform="translate(618.804443359375,549.482421875)"/>
<path d="M0 0 C3.47681295 2.01329926 5.70512046 4.11536139 7 8 C7.17369394 10.06758575 7.34405153 12.13553922 7.49267578 14.20507812 C10.43903786 52.69239428 28.1503833 89.52868451 55 117 C55.85980469 117.92167969 56.71960938 118.84335937 57.60546875 119.79296875 C77.59682091 140.72925926 112.33367569 161.9115786 142.0625 163.125 C142.701875 163.08375 143.34125 163.0425 144 163 C143.36191406 162.37351562 142.72382813 161.74703125 142.06640625 161.1015625 C140.82697266 159.87566406 140.82697266 159.87566406 139.5625 158.625 C138.73878906 157.81289063 137.91507813 157.00078125 137.06640625 156.1640625 C134.02558687 152.9795371 133.46616287 150.56361364 133.53125 146.11328125 C134.27617285 142.75492072 136.18556715 141.16332557 138.6875 138.93359375 C142.2390706 137.49976711 145.42135527 137.90501919 149 139 C151.78013801 140.85203175 153.9808031 143.13778038 156.2734375 145.5546875 C156.92325592 146.21203888 157.57307434 146.86939026 158.24258423 147.54666138 C160.30372782 149.64020284 162.33895591 151.75707101 164.375 153.875 C165.76535347 155.29191042 167.15726613 156.70729266 168.55078125 158.12109375 C171.09179852 160.7123013 173.62952989 163.30630993 176.14599609 165.92138672 C176.65037201 166.44465546 177.15474792 166.96792419 177.67440796 167.50704956 C179.80976536 169.9119997 180.94679708 171.6009781 181.375 174.8125 C180.59467884 181.44522984 175.32884693 185.95969269 170.7734375 190.45703125 C170.18454742 191.0454631 169.59565735 191.63389496 168.98892212 192.24015808 C167.75247306 193.47360361 166.51361217 194.70463574 165.27246094 195.93334961 C163.36850578 197.81893155 161.47279115 199.71251081 159.578125 201.60742188 C158.37286865 202.80776661 157.16715556 204.00765294 155.9609375 205.20703125 C155.39321625 205.77363968 154.825495 206.34024811 154.24057007 206.92402649 C149.20220084 211.90145895 149.20220084 211.90145895 144.1875 212.3125 C140.86772673 212.28232024 140.00955479 212.0060988 137.0625 210.125 C134.02920439 206.99978634 133.47969061 204.61309457 133.51953125 200.22265625 C134.46886551 195.83102052 137.87073798 193.03241832 141 190 C141.90363281 189.09636719 142.80726563 188.19273437 143.73828125 187.26171875 C144.48464844 186.51535156 145.23101562 185.76898437 146 185 C145.36723145 184.87995605 144.73446289 184.75991211 144.08251953 184.63623047 C108.31294744 177.75920838 77.3557484 164.47230465 50 140 C49.10796875 139.22914063 48.2159375 138.45828125 47.296875 137.6640625 C11.54339125 106.40718253 -7.84449097 60.48839277 -13 14 C-13.32287627 9.1492333 -13.07552239 5.98678829 -10 2 C-6.23124125 -0.51250583 -4.46849866 -0.53016086 0 0 Z " fill="#FCFDFE" transform="translate(343,512)"/>
<path d="M0 0 C2.70567626 1.82339052 4.53728718 3.07457436 6 6 C6.68680074 10.90571956 5.97975343 13.52697402 3.125 17.4375 C1.5078125 19.49609375 1.5078125 19.49609375 0 21 C-0.66 21 -1.32 21 -2 21 C-2.2475 21.598125 -2.495 22.19625 -2.75 22.8125 C-4.16846907 25.29482087 -5.69264738 26.36328035 -8 28 C-7.40799805 28.08975098 -6.81599609 28.17950195 -6.20605469 28.27197266 C34.06902855 34.50335837 68.3624596 49.73718862 98 78 C98.83144531 78.76699219 99.66289063 79.53398437 100.51953125 80.32421875 C112.50125026 91.72524055 122.10003341 105.52490594 130 120 C130.34369629 120.62696777 130.68739258 121.25393555 131.04150391 121.89990234 C142.12755936 142.40208186 156.37509667 175.05457845 152 199 C150.63866637 202.09975028 149.10804974 204.44597513 146 206 C141.81855989 206.39447548 139.69053952 206.45035186 136.125 204.125 C133.01524498 201.01524498 132.77283716 198.8787036 132.23828125 194.6015625 C127.7991838 160.85853903 117.01235607 128.80671359 94 103 C93.236875 102.12859375 92.47375 101.2571875 91.6875 100.359375 C89.48778326 97.87726219 87.25542013 95.43149382 85 93 C84.45085937 92.39671875 83.90171875 91.7934375 83.3359375 91.171875 C61.61389689 68.272778 27.17045843 52.64156427 -4 50 C-3.36191406 50.62648438 -2.72382812 51.25296875 -2.06640625 51.8984375 C-1.24011719 52.71570313 -0.41382813 53.53296875 0.4375 54.375 C1.26121094 55.18710937 2.08492187 55.99921875 2.93359375 56.8359375 C5.53379742 59.55902414 5.93951797 60.47582243 6.375 64.25 C5.88072704 69.19272958 4.46171699 70.53828301 1 74 C-2.14745612 75.57372806 -4.64599944 75.94303153 -8 75 C-10.15405273 73.38989258 -10.15405273 73.38989258 -12.49609375 71.20703125 C-13.81262939 69.98161621 -13.81262939 69.98161621 -15.15576172 68.73144531 C-19.66184294 64.40406019 -24.1177151 60.03106271 -28.52612305 55.60424805 C-30.08851972 54.03638932 -31.65632806 52.4740797 -33.22460938 50.91210938 C-34.22427993 49.91177961 -35.2236411 48.91114056 -36.22265625 47.91015625 C-37.11734619 47.01433838 -38.01203613 46.11852051 -38.93383789 45.19555664 C-41.43947996 42.53299737 -41.91987223 41.50079859 -42.5 37.875 C-41.31698948 28.7066685 -29.87028894 20.71693603 -23.47338867 14.34301758 C-21.67052659 12.54557764 -19.87315015 10.74277339 -18.07617188 8.93945312 C-16.93000853 7.79394953 -15.78353558 6.64875561 -14.63671875 5.50390625 C-14.10028244 4.96544571 -13.56384613 4.42698517 -13.01115417 3.87220764 C-8.31502864 -0.79418085 -6.60088981 -1.45443335 0 0 Z " fill="#FCFDFE" transform="translate(542,282)"/>
<path d="M0 0 C2.203125 1.453125 2.203125 1.453125 4 4 C4.48641711 7.09865715 4.37702087 10.12333252 4.25 13.25 C4.23195313 14.09046875 4.21390625 14.9309375 4.1953125 15.796875 C4.14830798 17.86507395 4.07656724 19.93268441 4 22 C4.57771652 21.98889694 5.15543304 21.97779388 5.75065613 21.96635437 C11.76891606 21.85565189 17.78688636 21.78028795 23.8059082 21.7253418 C26.05147044 21.70021277 28.296951 21.66610385 30.54223633 21.62280273 C33.77185218 21.56208224 37.00038584 21.53377369 40.23046875 21.51171875 C41.23272995 21.48591232 42.23499115 21.4601059 43.2676239 21.43351746 C47.98646256 21.43162282 50.26441889 21.46590144 54.1730957 24.30395508 C56 27 56 27 56 30.625 C55.05456241 33.81585187 54.63628553 35.10187442 52 37 C48.81175432 38.59412284 45.37103338 38.10174735 41.875 38.0625 C40.74384766 38.05573242 40.74384766 38.05573242 39.58984375 38.04882812 C37.72652873 38.03703499 35.86325445 38.01909942 34 38 C33.92523437 38.54785156 33.85046875 39.09570312 33.7734375 39.66015625 C31.03796378 56.15345365 22.31025571 74.84944808 11.1171875 87.3359375 C10.56417969 88.15964844 10.56417969 88.15964844 10 89 C11.12640887 92.37922662 11.57182508 92.65059645 14.47265625 94.41796875 C15.20000977 94.86390381 15.92736328 95.30983887 16.67675781 95.76928711 C17.46405273 96.23729736 18.25134766 96.70530762 19.0625 97.1875 C19.86655273 97.6729126 20.67060547 98.1583252 21.49902344 98.65844727 C27.42541009 102.18719319 33.46650647 105.40191335 39.69555664 108.36206055 C48.62692946 112.62692946 48.62692946 112.62692946 52 116 C51.54929577 122.08450704 51.54929577 122.08450704 49.875 124.875 C46.90866324 126.65480205 44.45017287 126.80353661 41 127 C38.01874885 126.23867463 35.33506613 125.00788501 32.5625 123.6875 C31.39376343 123.14923584 31.39376343 123.14923584 30.20141602 122.60009766 C21.03093743 118.25477019 12.39874004 112.90324418 4.1796875 106.9609375 C3.00792969 106.11402344 3.00792969 106.11402344 1.8125 105.25 C1.17957031 104.76015625 0.54664063 104.2703125 -0.10546875 103.765625 C-2.06448254 102.754194 -2.06448254 102.754194 -4.46484375 103.6484375 C-7.04084763 105.02177701 -9.1068816 106.54037863 -11.375 108.375 C-20.87387413 115.47305979 -37.49612341 127.29323712 -49.625 126.875 C-53 126 -53 126 -54.9375 124.3125 C-56.3613395 121.2135552 -56.55153827 119.37817188 -56 116 C-51.95140921 110.92686787 -46.97226041 108.8825518 -41.125 106.3125 C-31.74146278 102.03871269 -23.34804462 97.0270061 -15 91 C-15.35191406 90.47792969 -15.70382812 89.95585938 -16.06640625 89.41796875 C-17.7206751 86.95168281 -19.36104257 84.47648633 -21 82 C-21.56460938 81.15695312 -22.12921875 80.31390625 -22.7109375 79.4453125 C-35.4233141 60.06037624 -35.4233141 60.06037624 -36 51 C-33.55795207 47.59593318 -32.08958249 46.2001274 -27.9375 45.4375 C-24.21784496 46.14977437 -23.43402055 47.11388183 -21 50 C-19.44744525 52.62060091 -18.1036872 55.33505545 -16.75 58.0625 C-13.45570785 64.52600209 -9.91450252 70.27485546 -5.43359375 75.99609375 C-4 78 -4 78 -4 80 C7.22596157 69.37612288 13.91095739 53.68587444 18 39 C17.05896927 38.99635437 16.11793854 38.99270874 15.14839172 38.98895264 C6.27590825 38.95199603 -2.59622836 38.89421626 -11.46844769 38.81609726 C-16.02967954 38.77660402 -20.59071781 38.74442468 -25.15209961 38.72900391 C-29.55491651 38.71384937 -33.95720127 38.67942558 -38.35978127 38.63169098 C-40.03862696 38.6168647 -41.71754863 38.60895827 -43.39645958 38.60811615 C-45.75015227 38.60574839 -48.10237203 38.5786869 -50.45581055 38.54589844 C-51.49483017 38.55344398 -51.49483017 38.55344398 -52.55484009 38.56114197 C-57.26863354 38.45967648 -59.69764559 37.34628953 -63 34 C-63.85917455 31.05506618 -63.3985621 29.13867651 -63 26 C-61.45661909 23.82523599 -60.36334727 23.18167363 -58 22 C-56.48835608 21.91022272 -54.97279821 21.88242567 -53.45849609 21.88647461 C-52.51767181 21.88655014 -51.57684753 21.88662567 -50.60751343 21.88670349 C-49.58976837 21.89186478 -48.57202332 21.89702606 -47.5234375 21.90234375 C-46.48305328 21.9037587 -45.44266907 21.90517365 -44.37075806 21.90663147 C-41.03880979 21.91224134 -37.70692805 21.92479553 -34.375 21.9375 C-32.11979264 21.94251373 -29.86458422 21.94707686 -27.609375 21.95117188 C-22.07289386 21.96221397 -16.53645168 21.97896173 -11 22 C-11.04640625 20.74703125 -11.0928125 19.4940625 -11.140625 18.203125 C-11.17814813 16.55210719 -11.21454771 14.90106358 -11.25 13.25 C-11.28351562 12.425 -11.31703125 11.6 -11.3515625 10.75 C-11.45014269 4.63802833 -11.45014269 4.63802833 -9.203125 1.453125 C-5.97123932 -0.67854428 -3.78237235 -0.54033891 0 0 Z " fill="#7B74E4" transform="translate(670,575)"/>
<path d="M0 0 C0.69867188 -0.01933594 1.39734375 -0.03867187 2.1171875 -0.05859375 C5.61028616 -0.02563999 7.78370853 0.48299045 10.70703125 2.40234375 C14.10509523 7.17815768 15.78188546 12.29763737 17.6875 17.8125 C18.1426821 19.09507656 18.5993619 20.37712238 19.05737305 21.65869141 C20.1033166 24.59122632 21.14116807 27.52648442 22.17480469 30.46337891 C25.43887665 39.71823644 28.78681886 48.94331402 32.11514282 58.17520142 C33.28914951 61.43516079 34.45993504 64.69625813 35.62963867 67.95776367 C36.00202164 68.99497055 36.3744046 70.03217743 36.7580719 71.10081482 C37.48738253 73.13251549 38.21578533 75.1645423 38.94322205 77.19691467 C40.54036264 81.64334204 42.15884607 86.07609095 43.87646484 90.47753906 C44.16023483 91.20901154 44.44400482 91.94048401 44.7363739 92.69412231 C45.47948487 94.59538763 46.23560293 96.49155551 46.99291992 98.38720703 C48.27110345 102.49660581 48.66246925 105.87418841 47.125 109.9375 C46 111.625 46 111.625 44 112.625 C39.81784176 113.10755672 37.57752255 112.94841263 33.875 110.875 C29.58127023 106.8324991 27.95706653 101.03995096 26 95.625 C24.68 91.995 23.36 88.365 22 84.625 C7.48 84.625 -7.04 84.625 -22 84.625 C-24.75403877 92.33714623 -24.75403877 92.33714623 -27.47338867 100.06152344 C-27.8263501 101.02606445 -28.17931152 101.99060547 -28.54296875 102.984375 C-28.89383545 103.96889648 -29.24470215 104.95341797 -29.60620117 105.96777344 C-31.27591798 109.15102755 -33.00862641 110.66282747 -36 112.625 C-40.41801492 113.33503811 -42.25891226 113.11905849 -46 110.625 C-48.28148265 107.20277603 -48.0929305 105.78233699 -47.47433472 101.83319092 C-46.66879316 98.08311849 -45.38713241 94.55989566 -44.03515625 90.9765625 C-43.73015198 90.1461998 -43.42514771 89.3158371 -43.11090088 88.46031189 C-42.10276758 85.72051257 -41.08290605 82.98524977 -40.0625 80.25 C-38.60606429 76.31502198 -37.1545898 72.3782201 -35.703125 68.44140625 C-35.32388382 67.41540817 -34.94464264 66.3894101 -34.5539093 65.33232117 C-31.66858238 57.50494787 -28.87483447 49.64776594 -26.109375 41.77734375 C-24.9031846 38.36141858 -23.69612046 34.94580305 -22.48898315 31.5302124 C-21.70731043 29.3092651 -20.93035801 27.08665059 -20.15823364 24.86236572 C-19.07276752 21.7381838 -17.96986063 18.62066095 -16.86328125 15.50390625 C-16.38752655 14.1114695 -16.38752655 14.1114695 -15.90216064 12.69090271 C-12.8673895 4.24021173 -9.5147987 -0.26332469 0 0 Z " fill="#499FF2" transform="translate(354,307.375)"/>
<path d="M0 0 C14.19 0 28.38 0 43 0 C43 8.57673282 42.80735014 16.32094906 41.5625 24.6875 C41.42779297 25.66138672 41.29308594 26.63527344 41.15429688 27.63867188 C40.14767827 34.70464346 40.14767827 34.70464346 39 37 C31.19197547 36.50713466 23.50593759 35.72281831 15.77734375 34.5 C10.54019603 33.80676845 5.2645812 33.4387151 0 33 C0 22.11 0 11.22 0 0 Z " fill="#6783EA" transform="translate(522,513)"/>
<path d="M0 0 C14.19 0 28.38 0 43 0 C43 10.89 43 21.78 43 33 C39.535 33.28875 36.07 33.5775 32.5 33.875 C22.96374252 34.68729 13.48294916 35.70624496 4 37 C0.48194927 24.68682245 0 12.82145391 0 0 Z " fill="#658CED" transform="translate(460,513)"/>
<path d="M0 0 C8.20882568 0.86360846 16.38254357 1.96180457 24.5625 3.0625 C29.326875 3.701875 34.09125 4.34125 39 5 C39 15.56 39 26.12 39 37 C24.48 37 9.96 37 -5 37 C-2.375 4.75 -2.375 4.75 0 0 Z " fill="#5F8FEE" transform="translate(464,457)"/>
<path d="M0 0 C2.6607835 3.99117526 2.94120326 7.62709684 3.625 12.3125 C3.82609375 13.54709961 3.82609375 13.54709961 4.03125 14.80664062 C5.1697534 22.4102169 5 29.07908016 5 37 C-9.19 37 -23.38 37 -38 37 C-38 26.44 -38 15.88 -38 5 C-25.1875 3.625 -25.1875 3.625 -21.21948242 3.20556641 C-14.07879442 2.42513393 -7.04508084 1.40486829 0 0 Z " fill="#6488EC" transform="translate(560,457)"/>
<path d="M0 0 C7.58452618 15.22117969 13 30.83415831 13 48 C2.11 48 -8.78 48 -20 48 C-20.45375 44.205 -20.9075 40.41 -21.375 36.5 C-22.55335983 26.66278245 -23.75489611 16.82899662 -25 7 C-22.92890566 6.30963522 -20.85756057 5.6200161 -18.78515625 4.93359375 C-16.80964307 4.27139508 -14.83869681 3.59550113 -12.87109375 2.91015625 C-11.82050781 2.54792969 -10.76992188 2.18570312 -9.6875 1.8125 C-8.70136719 1.46832031 -7.71523438 1.12414062 -6.69921875 0.76953125 C-4 0 -4 0 0 0 Z " fill="#6A84EA" transform="translate(605,446)"/>
<path d="M0 0 C11.22 0 22.44 0 34 0 C35.375 13.1875 35.375 13.1875 35.79443359 17.25854492 C36.63589141 25.2140933 37.70730699 33.10527984 39 41 C35.42211911 42.20438651 31.83698135 43.38552174 28.25 44.5625 C26.72632813 45.07586914 26.72632813 45.07586914 25.171875 45.59960938 C24.1921875 45.91865234 23.2125 46.23769531 22.203125 46.56640625 C20.85202637 47.01415405 20.85202637 47.01415405 19.47363281 47.47094727 C16.8086498 48.04092537 15.4723105 48.13957014 13 47 C11.875 45.33618164 11.875 45.33618164 11 43.16015625 C10.67201416 42.35296143 10.34402832 41.5457666 10.00610352 40.71411133 C9.67408936 39.83907959 9.3420752 38.96404785 9 38.0625 C8.65187256 37.16748779 8.30374512 36.27247559 7.94506836 35.3503418 C3.58771641 23.76576409 1.36617066 12.29553597 0 0 Z " fill="#5E8CED" transform="translate(406,513)"/>
<path d="M0 0 C0.96679688 0.00902344 1.93359375 0.01804688 2.9296875 0.02734375 C3.65414062 0.03894531 4.37859375 0.05054688 5.125 0.0625 C5.125 0.3925 5.125 0.7225 5.125 1.0625 C3.6090625 1.248125 3.6090625 1.248125 2.0625 1.4375 C-1.79963821 1.95593457 -1.79963821 1.95593457 -5.125 3.0625 C-9.32363512 4.18213603 -13.29097914 4.48298933 -17.6171875 4.71875 C-18.36226563 4.8321875 -19.10734375 4.945625 -19.875 5.0625 C-20.205 5.7225 -20.535 6.3825 -20.875 7.0625 C-21.885625 7.000625 -22.89625 6.93875 -23.9375 6.875 C-27.58534634 7.04870697 -29.64697443 7.74243293 -32.90600586 9.21362305 C-34.96858244 10.10284546 -37.04401045 10.84419444 -39.171875 11.5625 C-39.90277344 11.81 -40.63367188 12.0575 -41.38671875 12.3125 C-42.89296136 12.81720956 -44.40081722 13.31712719 -45.91015625 13.8125 C-46.99876953 14.18375 -46.99876953 14.18375 -48.109375 14.5625 C-48.76131836 14.7790625 -49.41326172 14.995625 -50.08496094 15.21875 C-51.98524804 15.98961349 -51.98524804 15.98961349 -53.47363281 17.67578125 C-53.93608398 18.13339844 -54.39853516 18.59101563 -54.875 19.0625 C-57.0625 18.75 -57.0625 18.75 -58.875 18.0625 C-58.875 18.7225 -58.875 19.3825 -58.875 20.0625 C-61.30799445 21.64897813 -63.73161475 23.12407923 -66.25 24.5625 C-67.63434022 25.36194371 -69.0172191 26.16392466 -70.3984375 26.96875 C-71.325354 27.49952148 -71.325354 27.49952148 -72.27099609 28.04101562 C-74.04850992 29.09160749 -74.04850992 29.09160749 -75.875 31.0625 C-76.865 31.0625 -77.855 31.0625 -78.875 31.0625 C-79.205 32.0525 -79.535 33.0425 -79.875 34.0625 C-80.926875 34.6503125 -80.926875 34.6503125 -82 35.25 C-85.52617413 37.47302282 -87.712478 40.20396406 -90.32421875 43.41796875 C-90.83597656 43.96066406 -91.34773438 44.50335938 -91.875 45.0625 C-92.535 45.0625 -93.195 45.0625 -93.875 45.0625 C-94.11347656 45.784375 -94.35195312 46.50625 -94.59765625 47.25 C-96.0663917 50.48391293 -97.86900734 52.49462594 -100.3125 55.0625 C-103.33424862 58.24852819 -105.6338155 61.29887822 -107.875 65.0625 C-108.865 65.5575 -108.865 65.5575 -109.875 66.0625 C-111.39501649 69.95665629 -111.39501649 69.95665629 -111.875 74.0625 C-112.865 74.5575 -112.865 74.5575 -113.875 75.0625 C-114.96341816 77.13251545 -115.97294527 79.24444791 -116.9375 81.375 C-117.46472656 82.52613281 -117.99195313 83.67726563 -118.53515625 84.86328125 C-119.56694901 87.32694968 -120.35267541 89.46737153 -120.875 92.0625 C-121.01679688 92.73667969 -121.15859375 93.41085937 -121.3046875 94.10546875 C-121.45164063 94.81316406 -121.59859375 95.52085937 -121.75 96.25 C-123.03529418 102.08178255 -125.01541238 107.62700175 -127 113.25 C-128.73420702 118.62652219 -128.73420702 118.62652219 -128.3125 124.125 C-127.875 126.0625 -127.875 126.0625 -128.875 128.4375 C-130.13035492 131.06505705 -130.13035492 131.06505705 -129.375 134 C-128.77916831 137.64946911 -129.69935255 139.60903561 -130.875 143.0625 C-130.55987039 144.73270424 -130.22449179 146.39914665 -129.875 148.0625 C-129.86017941 149.79467778 -129.90307124 151.52807081 -129.99609375 153.2578125 C-130.04443359 154.22074219 -130.09277344 155.18367187 -130.14257812 156.17578125 C-130.19865234 157.16964844 -130.25472656 158.16351563 -130.3125 159.1875 C-130.41579577 161.16924841 -130.51867889 163.15101837 -130.62109375 165.1328125 C-130.66935303 166.00695801 -130.7176123 166.88110352 -130.76733398 167.78173828 C-130.85035364 169.54039958 -130.875 171.30188028 -130.875 173.0625 C-130.88285522 174.61614258 -130.88285522 174.61614258 -130.89086914 176.20117188 C-130.90793595 179.59033829 -130.92039644 182.97945969 -130.92993164 186.36865234 C-130.93497724 187.83122472 -130.94181321 189.29379202 -130.95043945 190.75634766 C-130.96256375 192.86882762 -130.96823921 194.98124161 -130.97265625 197.09375 C-130.97789307 198.35767578 -130.98312988 199.62160156 -130.98852539 200.92382812 C-131.02147996 204.09260974 -131.02147996 204.09260974 -129.875 207.0625 C-130.19194824 207.99489502 -130.50889648 208.92729004 -130.83544922 209.88793945 C-132.64603932 215.72399688 -131.80657021 221.83540426 -131.5078125 227.85546875 C-131.38937782 230.65253432 -131.28201074 233.44996883 -131.17675781 236.24755859 C-131.14901464 236.96975869 -131.12127148 237.69195879 -131.09268761 238.43604374 C-130.80200483 246.36936827 -130.75119921 254.3003044 -130.7421875 262.23828125 C-130.74132393 262.94447475 -130.74046036 263.65066826 -130.73957062 264.37826157 C-130.73671193 267.93960519 -130.73882157 271.50091633 -130.74462891 275.06225586 C-130.7504841 278.73471875 -130.74692377 282.40711106 -130.74105644 286.07957172 C-130.73746181 288.94905647 -130.73858162 291.81852403 -130.74118423 294.68800926 C-130.74216825 296.69893313 -130.73915078 298.70985769 -130.73605347 300.72077942 C-130.73920563 301.92191879 -130.74235779 303.12305817 -130.74560547 304.3605957 C-130.74679886 305.94575737 -130.74679886 305.94575737 -130.74801636 307.5629425 C-130.875 310.0625 -130.875 310.0625 -131.875 312.0625 C-131.9717685 314.30699904 -132.00131168 316.55447192 -132.00198364 318.80105591 C-132.00354363 319.50201382 -132.00510362 320.20297172 -132.00671089 320.92517078 C-132.01071576 323.28623518 -132.00753301 325.64723585 -132.00439453 328.00830078 C-132.00574897 329.6968998 -132.00752914 331.38549852 -132.00970459 333.07409668 C-132.01427872 337.67408673 -132.01248816 342.27405444 -132.0093255 346.8740449 C-132.00679601 351.69523587 -132.00914163 356.51642492 -132.01071167 361.33761597 C-132.01253408 369.45017845 -132.01012774 377.56273186 -132.00537109 385.67529297 C-131.99995398 395.02150843 -132.00167217 404.36770199 -132.0071975 413.7139169 C-132.01175735 421.75151001 -132.01236442 429.78909657 -132.00975883 437.82669055 C-132.00820848 442.62041702 -132.00796743 447.41413325 -132.01129532 452.20785904 C-132.01421494 456.73042048 -132.01212431 461.25295421 -132.00640106 465.7755127 C-132.00509405 467.42327707 -132.00543188 469.07104384 -132.00766373 470.71880722 C-132.01916559 480.08511001 -131.7656454 489.36938429 -131.10028744 498.71356773 C-130.82728476 502.77179433 -130.76094461 506.77676328 -130.77734375 510.84375 C-130.77946617 511.90849548 -130.77946617 511.90849548 -130.78163147 512.99475098 C-130.78707168 515.18405042 -130.79958757 517.3732334 -130.8125 519.5625 C-130.81753584 521.07942557 -130.82209499 522.5963528 -130.82617188 524.11328125 C-130.83698764 527.7630564 -130.85413154 531.41276679 -130.875 535.0625 C-131.205 535.0625 -131.535 535.0625 -131.875 535.0625 C-132.7341617 530.43627559 -133.16991621 525.84728 -133.42914295 521.15530872 C-133.4712651 520.41006273 -133.51338724 519.66481675 -133.55678581 518.89698755 C-133.94997137 511.45775783 -134.01790187 504.02614971 -134.00871277 496.57756042 C-134.01058765 495.10203997 -134.01289101 493.62652 -134.01557809 492.1510008 C-134.02161916 488.15029614 -134.02157172 484.14961261 -134.02038372 480.14890444 C-134.02017773 475.81256398 -134.02571726 471.47622996 -134.03044128 467.13989258 C-134.03870666 458.6631534 -134.04149428 450.18642119 -134.04205366 441.70967831 C-134.04253091 434.80862623 -134.04459599 427.90757641 -134.04775429 421.00652504 C-134.05655062 401.38262827 -134.06117541 381.75873694 -134.06042381 362.13483819 C-134.06036388 360.55179324 -134.06036388 360.55179324 -134.06030273 358.93676758 C-134.06026185 357.88009509 -134.06022097 356.82342261 -134.06017885 355.73472974 C-134.05977296 338.63458807 -134.06933097 321.53446847 -134.0834411 304.43433317 C-134.09786 286.8190249 -134.10470823 269.20372737 -134.10384732 251.58841306 C-134.10351719 241.72182202 -134.10618283 231.85525412 -134.11702538 221.98866844 C-134.12620343 213.58372177 -134.12824657 205.17880872 -134.12151595 196.77385917 C-134.11828677 192.49896121 -134.11806057 188.22412746 -134.1268692 183.94923592 C-134.22974504 130.61933991 -131.08567178 80.7130301 -91.8125 40.625 C-68.65673183 17.62142128 -33.36713003 -0.40691622 0 0 Z " fill="#32A1F3" transform="translate(303.875,180.9375)"/>
<path d="M0 0 C0 15.84 0 31.68 0 48 C-9.12159924 46.17568015 -15.66067088 40.46792581 -21 33 C-34.8774828 11.15828043 -34.8774828 11.15828043 -33.54467773 4.84228516 C-33.36493408 4.23433105 -33.18519043 3.62637695 -33 3 C-29.75217654 2.48516795 -26.50149819 1.99104258 -23.25 1.5 C-21.89841797 1.28537109 -21.89841797 1.28537109 -20.51953125 1.06640625 C-13.46097339 0.01513167 -7.30850919 0 0 0 Z " fill="#6684EB" transform="translate(503,564)"/>
<path d="M0 0 C12.375 0 12.375 0 17.10546875 0.875 C18.60883789 1.14570312 18.60883789 1.14570312 20.14257812 1.421875 C21.14740234 1.61265625 22.15222656 1.8034375 23.1875 2 C24.23486328 2.19078125 25.28222656 2.3815625 26.36132812 2.578125 C28.90926797 3.04350214 31.45524867 3.5175462 34 4 C32.90903669 9.89725811 31.42885129 15.03781154 28.5625 20.3125 C28.21904541 20.94986084 27.87559082 21.58722168 27.52172852 22.24389648 C23.65195392 29.08871489 18.6115273 34.54808201 13 40 C12.32453125 40.66128906 11.6490625 41.32257812 10.953125 42.00390625 C7.27373071 45.38211119 4.95569578 46.34810141 0 48 C0 32.16 0 16.32 0 0 Z " fill="#697FEA" transform="translate(522,564)"/>
<path d="M0 0 C0.33 0 0.66 0 1 0 C2.03637805 8.13385983 2.14134578 16.19532115 2.12698364 24.38464355 C2.12813759 25.82570291 2.12972695 27.26676197 2.13171089 28.70782042 C2.13586658 32.64507811 2.13383058 36.58231141 2.13072467 40.51956916 C2.12845542 44.77456813 2.13195777 49.02956301 2.13470459 53.28456116 C2.13914496 61.61117211 2.13819352 69.93777404 2.13529195 78.26438534 C2.13303111 85.03322684 2.13272835 91.80206582 2.13381577 98.57090759 C2.13404561 100.01744601 2.13404561 100.01744601 2.13428011 101.49320742 C2.13459984 103.45244777 2.13492406 105.41168812 2.1352527 107.37092847 C2.13810241 125.73118136 2.13482843 144.09142925 2.12945233 162.45168132 C2.12498476 178.19646843 2.12576083 193.94124817 2.13037109 209.68603516 C2.13572582 227.98179702 2.13782777 246.27755451 2.13475883 264.57331705 C2.13444029 266.52524217 2.13412592 268.47716729 2.13381577 270.42909241 C2.13366149 271.38940989 2.13350721 272.34972738 2.13334826 273.33914539 C2.13248581 280.09775632 2.13394015 286.85636447 2.13629532 293.61497498 C2.13910348 301.8544453 2.13833358 310.0939061 2.13301457 318.33337533 C2.1303913 322.53509188 2.1293492 326.73679257 2.13266373 330.93850899 C2.13565501 334.78875761 2.13398689 338.63897575 2.12868617 342.48922163 C2.12757405 343.87805481 2.12812628 345.26689059 2.13056196 346.65572208 C2.14272195 354.16882794 1.95025867 361.54203536 1 369 C0.67 369 0.34 369 0 369 C-1.18431762 361.53862411 -1.1398924 354.1403829 -1.12698364 346.60116577 C-1.12813685 345.13423296 -1.12972572 343.66730044 -1.13171089 342.20036852 C-1.13587667 338.18246042 -1.13382596 334.16457614 -1.13072467 330.14666796 C-1.12845963 325.80854667 -1.13195566 321.47042944 -1.13470459 317.13230896 C-1.1391492 308.63965879 -1.13819169 300.14701747 -1.13529195 291.65436696 C-1.13303309 284.75291082 -1.13272749 277.85145716 -1.13381577 270.95000076 C-1.133969 269.96756378 -1.13412223 268.9851268 -1.13428011 267.97291899 C-1.13459983 265.97711065 -1.13492405 263.98130231 -1.1352527 261.98549397 C-1.13810358 243.2753317 -1.13482645 224.56517432 -1.12945233 205.85501285 C-1.12498326 189.79852174 -1.12576184 173.74203786 -1.13037109 157.68554688 C-1.13572136 139.03898583 -1.1378304 120.39242908 -1.13475883 101.74586737 C-1.13444028 99.75803415 -1.13412591 97.77020093 -1.13381577 95.78236771 C-1.13366149 94.80431274 -1.13350721 93.82625777 -1.13334826 92.81856477 C-1.13248457 85.92384575 -1.13394278 79.02912945 -1.13629532 72.13441086 C-1.13909846 63.73447937 -1.1383441 55.33455722 -1.13301457 46.9346268 C-1.13038475 42.64835866 -1.1293604 38.36210612 -1.13266373 34.07583809 C-1.13564133 30.15293585 -1.13400937 26.23006366 -1.12868617 22.30716415 C-1.12756828 20.88738697 -1.1281393 19.46760725 -1.13056196 18.0478317 C-1.13360169 16.1185919 -1.12988657 14.18934499 -1.12584114 12.26010704 C-1.12567879 11.18831621 -1.12551644 10.11652537 -1.12534916 9.01225603 C-0.99728962 5.93486718 -0.57049045 3.02409572 0 0 Z " fill="#8A6EDF" transform="translate(853,326)"/>
<path d="M0 0 C13.38596582 4.46198861 20.5944342 13.79951572 27 26 C34 40.35660377 34 40.35660377 34 44 C31.14714436 44.48827131 28.29307398 44.965595 25.4375 45.4375 C24.65697266 45.57220703 23.87644531 45.70691406 23.07226562 45.84570312 C15.31845208 47.11226231 7.96538051 47.46897463 0 48 C0 32.16 0 16.32 0 0 Z " fill="#5D89ED" transform="translate(522,396)"/>
<path d="M0 0 C0 15.84 0 31.68 0 48 C-24.375 45.67857143 -24.375 45.67857143 -34 43 C-29.71077092 26.61026287 -19.99972038 10.21858514 -5 1.375 C-2 0 -2 0 0 0 Z " fill="#5A91EE" transform="translate(503,396)"/>
<path d="M0 0 C2.31 0.66 4.62 1.32 7 2 C7 2.33 7 2.66 7 3 C4.93839618 3.31835861 2.87564187 3.62926615 0.8125 3.9375 C-0.91033203 4.19853516 -0.91033203 4.19853516 -2.66796875 4.46484375 C-13.65431735 5.91951971 -24.64368641 6.14515484 -35.70796204 6.12698364 C-37.25615592 6.12813831 -38.80434953 6.12972814 -40.35254258 6.13171089 C-44.57192227 6.13585651 -48.79127912 6.13383526 -53.01065886 6.13072467 C-57.57436308 6.12845134 -62.13806351 6.13195971 -66.70176697 6.13470459 C-75.62687678 6.1391401 -84.55197817 6.13819585 -93.47708831 6.13529195 C-100.73071509 6.1330299 -107.98433951 6.13272887 -115.23796654 6.13381577 C-116.27188049 6.133969 -117.30579444 6.13412223 -118.37103912 6.13428011 C-120.47161133 6.13459984 -122.57218353 6.13492406 -124.67275574 6.1352527 C-144.34584759 6.13810081 -164.01893478 6.13483059 -183.69202586 6.12945233 C-200.56820512 6.12498158 -217.4443775 6.12576375 -234.32055664 6.13037109 C-253.93293263 6.13572295 -273.54530455 6.13782967 -293.15768117 6.13475883 C-295.24882487 6.13444029 -297.33996858 6.13412592 -299.43111229 6.13381577 C-300.45992899 6.13366149 -301.4887457 6.13350721 -302.54873866 6.13334826 C-309.79523771 6.1324852 -317.04173416 6.1339414 -324.2882328 6.13629532 C-333.11654599 6.13910014 -341.94485029 6.13834046 -350.77316246 6.13301457 C-355.27641642 6.13038732 -359.77965555 6.12935605 -364.28290939 6.13266373 C-368.40617873 6.13564652 -372.52941951 6.1340008 -376.65268626 6.12868617 C-378.14300861 6.12757051 -379.63333338 6.1281343 -381.12365416 6.13056196 C-388.16570316 6.14115202 -395.03799589 6.12028167 -402 5 C-402 4.67 -402 4.34 -402 4 C-400.77395794 3.99739563 -400.77395794 3.99739563 -399.52314734 3.99473864 C-351.11532567 3.89178466 -302.70751781 3.78368824 -254.29972272 3.66888306 C-248.49164466 3.65511293 -242.6835665 3.64138592 -236.87548828 3.62768555 C-235.71916961 3.62495724 -234.56285093 3.62222894 -233.3714923 3.61941796 C-214.63097316 3.57530307 -195.89044799 3.53468318 -177.14991829 3.49534739 C-157.93063881 3.4549292 -138.71137055 3.41077261 -119.49210763 3.36312145 C-107.62598642 3.33381982 -95.75986608 3.30745913 -83.89373025 3.28482103 C-75.76457593 3.2690334 -67.63543537 3.24962543 -59.50629631 3.22733159 C-54.81123368 3.21456369 -50.11618165 3.2034293 -45.42110634 3.19658089 C-41.12666342 3.19028174 -36.83225706 3.17945858 -32.5378342 3.1649667 C-30.98057677 3.16052283 -29.42331346 3.15776979 -27.86604998 3.15683801 C-25.75602869 3.15533337 -23.64611385 3.14777908 -21.53611374 3.1386652 C-19.77497085 3.13467814 -19.77497085 3.13467814 -17.97824931 3.13061053 C-15.44448882 3.01949297 -13.41898003 2.68124989 -11 2 C-9.08438746 1.93311409 -7.16664408 1.91468281 -5.25 1.9375 C-4.26515625 1.94652344 -3.2803125 1.95554687 -2.265625 1.96484375 C-1.14414062 1.98224609 -1.14414062 1.98224609 0 2 C0 1.34 0 0.68 0 0 Z " fill="#8075E4" transform="translate(719,840)"/>
<path d="M0 0 C1.65474528 2.48211793 2.55100296 4.23443535 3.51220703 6.98071289 C3.93241623 8.17193504 3.93241623 8.17193504 4.3611145 9.38722229 C4.65702484 10.2404155 4.95293518 11.0936087 5.2578125 11.97265625 C5.56572723 12.85150986 5.87364197 13.73036346 6.19088745 14.635849 C6.84007504 16.49195266 7.48717034 18.34878926 8.13232422 20.20629883 C9.12302698 23.05682308 10.12155357 25.90451734 11.12109375 28.75195312 C11.75046771 30.55452427 12.3793895 32.35725336 13.0078125 34.16015625 C13.3077713 35.01537369 13.6077301 35.87059113 13.91677856 36.75172424 C14.19061371 37.54272018 14.46444885 38.33371613 14.74658203 39.14868164 C14.98925812 39.84578751 15.2319342 40.54289337 15.48196411 41.26112366 C16 43 16 43 16 45 C5.44 45 -5.12 45 -16 45 C-14.14251772 38.80839239 -12.27009851 32.7034341 -10.1171875 26.62109375 C-9.85745148 25.88294937 -9.59771545 25.14480499 -9.33010864 24.3842926 C-8.78846176 22.84717252 -8.24563984 21.31046599 -7.70166016 19.77416992 C-6.86620998 17.41265378 -6.03643987 15.04919078 -5.20703125 12.68554688 C-4.67742059 11.18477678 -4.14748487 9.68412134 -3.6171875 8.18359375 C-3.3692746 7.47641708 -3.12136169 6.76924042 -2.86593628 6.04063416 C-1.11479305 1.11479305 -1.11479305 1.11479305 0 0 Z " fill="#F9FBFE" transform="translate(354,329)"/>
<path d="M0 0 C0.33 0 0.66 0 1 0 C2.16145358 36.28305371 3.20910834 72.5564052 3.18847656 108.86091995 C3.18749853 111.00321955 3.1884734 113.14551193 3.18969727 115.28781128 C3.19080889 119.25440846 3.18092979 123.22092195 3.16796875 127.1875 C3.16677536 128.3641774 3.16558197 129.5408548 3.16435242 130.75318909 C3.15805313 131.81819138 3.15175385 132.88319366 3.14526367 133.98046875 C3.14145187 134.90754639 3.13764008 135.83462402 3.13371277 136.78979492 C3 139 3 139 2 141 C1.9032315 143.24449904 1.87368832 145.49197192 1.87301636 147.73855591 C1.87145637 148.43951382 1.86989638 149.14047172 1.86828911 149.86267078 C1.86428424 152.22373518 1.86746699 154.58473585 1.87060547 156.94580078 C1.86925103 158.6343998 1.86747086 160.32299852 1.86529541 162.01159668 C1.86072128 166.61158673 1.86251184 171.21155444 1.8656745 175.8115449 C1.86820399 180.63273587 1.86585837 185.45392492 1.86428833 190.27511597 C1.86246592 198.38767845 1.86487226 206.50023186 1.86962891 214.61279297 C1.87504602 223.95900843 1.87332783 233.30520199 1.8678025 242.6514169 C1.86324265 250.68901001 1.86263558 258.72659657 1.86524117 266.76419055 C1.86679152 271.55791702 1.86703257 276.35163325 1.86370468 281.14535904 C1.86078506 285.66792048 1.86287569 290.19045421 1.86859894 294.7130127 C1.86990595 296.36077707 1.86956812 298.00854384 1.86733627 299.65630722 C1.85583441 309.02261001 2.1093546 318.30688429 2.77471256 327.65106773 C3.04771524 331.70929433 3.11405539 335.71426328 3.09765625 339.78125 C3.0962413 340.49108032 3.09482635 341.20091064 3.09336853 341.93225098 C3.08792832 344.12155042 3.07541243 346.3107334 3.0625 348.5 C3.05746416 350.01692557 3.05290501 351.5338528 3.04882812 353.05078125 C3.03801236 356.7005564 3.02086846 360.35026679 3 364 C2.67 364 2.34 364 2 364 C-1.18358771 346.38046432 -0.1394963 328.038454 -0.11606562 310.19772494 C-0.11170486 306.02552401 -0.1132115 301.8533244 -0.1139679 297.68112183 C-0.1144896 290.47100386 -0.11137996 283.26089502 -0.10573006 276.05077934 C-0.09756684 265.62645115 -0.09499492 255.20212732 -0.09374207 244.77779628 C-0.09155909 227.86073213 -0.08491953 210.94367284 -0.07543945 194.02661133 C-0.06624577 177.60343449 -0.05917452 161.18025897 -0.05493164 144.75708008 C-0.05466892 143.74298089 -0.05440619 142.72888169 -0.05413551 141.68405222 C-0.05283037 136.59608472 -0.05156669 131.5081172 -0.05032361 126.42014968 C-0.0399745 84.28009642 -0.0223768 42.14004849 0 0 Z " fill="#2892F0" transform="translate(170,352)"/>
<path d="M0 0 C10.93338751 5.58300639 25.38690691 13.10784667 32 24 C32 24.66 32 25.32 32 26 C25.91643021 29.09212176 20.81987029 30.56699236 14 31 C13.45472656 29.47632813 13.45472656 29.47632813 12.8984375 27.921875 C8.62486401 13.16270659 8.62486401 13.16270659 0 2 C0 1.34 0 0.68 0 0 Z " fill="#6085EB" transform="translate(560,403)"/>
<path d="M0 0 C0.21615967 0.56396484 0.43231934 1.12792969 0.6550293 1.70898438 C1.65732668 4.30936707 2.67231402 6.90462328 3.6875 9.5 C4.02716797 10.386875 4.36683594 11.27375 4.71679688 12.1875 C6.74180877 17.33519379 8.98081691 21.88402374 12.15551758 26.42382812 C12.43419678 26.94396484 12.71287598 27.46410156 13 28 C12.67 28.66 12.34 29.32 12 30 C1.37716103 23.80193657 -9.77348089 17.21680287 -17 7 C-17 6.34 -17 5.68 -17 5 C-14.91999989 4.15838146 -12.83585854 3.32699237 -10.75 2.5 C-9.58984375 2.0359375 -8.4296875 1.571875 -7.234375 1.09375 C-4 0 -4 0 0 0 Z " fill="#5F86EC" transform="translate(450,573)"/>
<path d="M0 0 C0.33 0.66 0.66 1.32 1 2 C-0.32 2.33 -1.64 2.66 -3 3 C-3 3.66 -3 4.32 -3 5 C-7.37924925 7.45665202 -11.03167534 8.41549122 -16 9 C-16.33 9.33 -16.66 9.66 -17 10 C-19.59172104 10.24385577 -22.15732749 10.42175204 -24.75561523 10.55200195 C-25.56017119 10.59404157 -26.36472715 10.63608118 -27.1936636 10.67939472 C-36.76352289 11.13925034 -46.33121391 11.16417719 -55.91015625 11.16796875 C-57.85827151 11.17119308 -59.80638655 11.17455797 -61.75450134 11.17805481 C-65.79914919 11.18398393 -69.84377586 11.18590073 -73.88842773 11.18530273 C-79.05266082 11.1852004 -84.21675864 11.19895395 -89.38095951 11.21607494 C-93.38824585 11.22721421 -97.39549937 11.2292215 -101.40279961 11.22869301 C-103.30726025 11.22986629 -105.21172193 11.23425113 -107.11616707 11.24202538 C-109.77553961 11.25188335 -112.43461628 11.24892659 -115.09399414 11.24291992 C-116.2513633 11.25134918 -116.2513633 11.25134918 -117.43211365 11.25994873 C-122.83599844 11.22911909 -127.77356095 10.35411161 -133 9 C-133 8.67 -133 8.34 -133 8 C-132.4183823 7.99853344 -131.8367646 7.99706688 -131.23752213 7.99555588 C-117.03798425 7.95838695 -102.83867717 7.89923971 -88.63933182 7.81609726 C-81.77240901 7.77641029 -74.90559909 7.74396565 -68.03857422 7.72900391 C-61.4053834 7.71453076 -54.77250705 7.67930169 -48.1394577 7.63169098 C-45.61510011 7.61691045 -43.09069253 7.60896091 -40.56629181 7.60811615 C-37.01680135 7.60573483 -33.46826927 7.57855942 -29.91894531 7.54589844 C-28.37065788 7.55344398 -28.37065788 7.55344398 -26.79109192 7.56114197 C-17.16289434 7.42502565 -8.40047455 4.66693031 0 0 Z " fill="#7362E0" transform="translate(741,721)"/>
<path d="M0 0 C0.99 0.33 1.98 0.66 3 1 C2.60167969 1.6290625 2.20335937 2.258125 1.79296875 2.90625 C-4.59756193 13.230611 -7.12318635 22.11582566 -7.20532227 34.21826172 C-7.21522186 35.12621994 -7.22512146 36.03417816 -7.23532104 36.96965027 C-7.26678639 39.95630326 -7.29163406 42.94297213 -7.31640625 45.9296875 C-7.33698871 48.00619916 -7.35798552 50.08270675 -7.37937927 52.15921021 C-7.4344665 57.613858 -7.48393447 63.06854277 -7.53222656 68.52325439 C-7.58253926 74.09366124 -7.63817426 79.66401467 -7.69335938 85.234375 C-7.80077759 96.15620431 -7.90225861 107.0780801 -8 118 C-10.92229151 112.73987528 -11.12559066 107.8987931 -11.12939453 101.95336914 C-11.13114685 101.26311646 -11.13289917 100.57286377 -11.13470459 99.86169434 C-11.13909402 97.5861558 -11.13619244 95.31069554 -11.1328125 93.03515625 C-11.13348706 91.43916306 -11.13445836 89.84316997 -11.13571167 88.24717712 C-11.13718529 84.89906844 -11.13504741 81.55098644 -11.13037109 78.20288086 C-11.12471563 73.95017613 -11.12792817 69.69753511 -11.13394356 65.4448328 C-11.13759398 62.14417561 -11.13638953 58.84353297 -11.13381577 55.54287529 C-11.13315664 53.9774824 -11.13393869 52.41208811 -11.13629532 50.84669685 C-11.158996 31.50609312 -11.158996 31.50609312 -10 22 C-9.67 21.67 -9.34 21.34 -9 21 C-8.60851239 19.48834346 -8.26027543 17.96530368 -7.9375 16.4375 C-7.76089844 15.61121094 -7.58429688 14.78492188 -7.40234375 13.93359375 C-7.26957031 13.29550781 -7.13679688 12.65742188 -7 12 C-6.34 12 -5.68 12 -5 12 C-5 10.68 -5 9.36 -5 8 C-4.34 8 -3.68 8 -3 8 C-2.87625 7.236875 -2.7525 6.47375 -2.625 5.6875 C-2 3 -2 3 0 0 Z " fill="#3BA0F3" transform="translate(266,294)"/>
<path d="M0 0 C1.875 0.625 1.875 0.625 4 2 C11.87358285 18.1615648 8.20309456 45.1950304 8.1875 62.75 C8.18756042 63.79851135 8.18762085 64.84702271 8.18768311 65.92730713 C8.17783142 77.93239113 8.12384332 89.9041734 7.125 101.875 C7.00741333 103.28797363 7.00741333 103.28797363 6.88745117 104.72949219 C6.28040954 110.71959046 6.28040954 110.71959046 4 113 C4.00444122 111.80476212 4.00888245 110.60952423 4.01345825 109.37806702 C4.05406717 98.09359891 4.08401457 86.80914571 4.10362434 75.52462101 C4.11404494 69.72365833 4.12817268 63.92275481 4.15087891 58.12182617 C4.17266871 52.51972818 4.18458159 46.91768697 4.18975449 41.31554985 C4.19343923 39.18221582 4.20063454 37.04888477 4.21146011 34.91557503 C4.22605653 31.91899107 4.22797453 28.92263939 4.22705078 25.92602539 C4.23424133 25.05136124 4.24143188 24.17669708 4.24884033 23.27552795 C4.22181508 15.13112795 2.31144768 7.75986008 0 0 Z " fill="#3A8CEF" transform="translate(448,302)"/>
<path d="M0 0 C0.33 0 0.66 0 1 0 C1.00423194 0.57277679 1.00846388 1.14555359 1.01282406 1.73568726 C1.1166319 15.74458889 1.22533887 29.75344556 1.33933926 43.76226807 C1.39435625 50.53713415 1.44778224 57.31200547 1.49731445 64.08691406 C1.54519823 70.63571583 1.59771189 77.18447135 1.65294075 83.73321533 C1.67318393 86.22079285 1.69192439 88.70838311 1.70907402 91.19598389 C1.79203271 103.09786824 1.92418887 114.94649504 2.78184509 126.82006836 C3.05630274 130.82069605 3.11382462 134.77149429 3.09765625 138.78125 C3.09553383 139.84599548 3.09553383 139.84599548 3.09336853 140.93225098 C3.08792832 143.12155042 3.07541243 145.3107334 3.0625 147.5 C3.05746416 149.01692557 3.05290501 150.5338528 3.04882812 152.05078125 C3.03801236 155.7005564 3.02086846 159.35026679 3 163 C2.67 163 2.34 163 2 163 C-1.14071742 145.64040011 -0.13498694 127.58419836 -0.10139394 110.00623012 C-0.09506764 106.12789892 -0.09454937 102.24956664 -0.09336853 98.37123108 C-0.0902822 91.05485108 -0.08210586 83.73848634 -0.07201904 76.422113 C-0.06077325 68.08088806 -0.05532629 59.73966232 -0.05032361 51.39843166 C-0.03992044 34.26561234 -0.02237424 17.13280779 0 0 Z " fill="#2B79EB" transform="translate(170,553)"/>
<path d="M0 0 C0.99 0.495 0.99 0.495 2 1 C-6.60211342 8.01148594 -12.52510733 12.16630279 -24 12 C-24.99 12.33 -25.98 12.66 -27 13 C-28.39746326 13.05881519 -29.7978551 13.05951743 -31.19604492 13.02172852 C-32.03668991 13.00163223 -32.8773349 12.98153595 -33.74345398 12.96083069 C-34.64666885 12.93379562 -35.54988373 12.90676056 -36.48046875 12.87890625 C-37.40845779 12.85529526 -38.33644684 12.83168427 -39.29255676 12.80735779 C-42.25769495 12.73075991 -45.22256942 12.64671871 -48.1875 12.5625 C-50.1972527 12.50927545 -52.20701829 12.45653507 -54.21679688 12.40429688 C-59.14474687 12.27606026 -64.07227024 12.13776449 -69 12 C-69 20.58 -69 29.16 -69 38 C-69.99 38.495 -69.99 38.495 -71 39 C-70.88201056 35.03047101 -70.75778201 31.06119219 -70.62768555 27.09204102 C-70.58428777 25.74085853 -70.5426163 24.38961947 -70.50268555 23.03833008 C-70.44510048 21.09963299 -70.38085702 19.16113724 -70.31640625 17.22265625 C-70.27974854 16.05484619 -70.24309082 14.88703613 -70.20532227 13.68383789 C-70 11 -70 11 -69 10 C-67.59053662 9.89332771 -66.17589843 9.85381168 -64.76245117 9.84228516 C-63.40919991 9.82689194 -63.40919991 9.82689194 -62.02861023 9.81118774 C-60.5507177 9.80023575 -60.5507177 9.80023575 -59.04296875 9.7890625 C-56.95897701 9.76095741 -54.87499276 9.73229278 -52.79101562 9.703125 C-49.50431826 9.66212365 -46.21775517 9.62524496 -42.9309082 9.59863281 C-22.75050048 10.01800819 -22.75050048 10.01800819 -4.375 2.75 C-1.9609375 1.109375 -1.9609375 1.109375 0 0 Z " fill="#3F8CEE" transform="translate(433,441)"/>
<path d="M0 0 C2.31454976 0.02433868 4.62910479 0.04818027 6.94366455 0.07154846 C13.00002101 0.13401683 19.05628263 0.20318661 25.11254883 0.27380371 C31.3067599 0.34482611 37.50103758 0.40943932 43.6953125 0.47460938 C55.82298988 0.60314073 67.95057667 0.73875952 80.078125 0.87890625 C80.078125 1.20890625 80.078125 1.53890625 80.078125 1.87890625 C79.25346473 1.88110609 79.25346473 1.88110609 78.41214466 1.88335037 C64.98000423 1.92054553 51.54811664 1.97997519 38.11617756 2.06280899 C31.62032925 2.10220815 25.12461498 2.13443384 18.62866211 2.14990234 C12.35205291 2.16511851 6.07581238 2.19965253 -0.2006321 2.24721527 C-2.58739824 2.26197791 -4.97421703 2.2699443 -7.36102867 2.2707901 C-23.34404053 2.28214334 -36.34151288 2.57499536 -49.99609375 11.8046875 C-50.63160156 12.15917969 -51.26710938 12.51367188 -51.921875 12.87890625 C-52.581875 12.54890625 -53.241875 12.21890625 -53.921875 11.87890625 C-48.61513365 6.26892254 -44.35557629 3.88028737 -36.921875 1.87890625 C-36.591875 1.54890625 -36.261875 1.21890625 -35.921875 0.87890625 C-24.19727801 -1.11915082 -11.82994231 -0.14514985 0 0 Z " fill="#138DEF" transform="translate(329.921875,273.12109375)"/>
<path d="M0 0 C14.19 0 28.38 0 43 0 C43 10.89 43 21.78 43 33 C37.5240625 33.495 37.5240625 33.495 31.9375 34 C30.23194946 34.15662109 30.23194946 34.15662109 28.49194336 34.31640625 C23.30537252 34.77601622 18.20682346 35.11816904 13 35 C13 34.67 13 34.34 13 34 C16.72846692 33.49468813 20.45787508 32.9966867 24.1875 32.5 C25.24259766 32.35691406 26.29769531 32.21382812 27.38476562 32.06640625 C28.40634766 31.93105469 29.42792969 31.79570313 30.48046875 31.65625 C31.41785889 31.53056641 32.35524902 31.40488281 33.32104492 31.27539062 C36 31 36 31 41 31 C41 21.1 41 11.2 41 1 C27.8 1 14.6 1 1 1 C1.33 3.31 1.66 5.62 2 8 C2.0633117 10.14500031 2.0866101 12.29170098 2.0625 14.4375 C2.05347656 15.48808594 2.04445313 16.53867187 2.03515625 17.62109375 C2.02355469 18.40613281 2.01195312 19.19117188 2 20 C1.67 20 1.34 20 1 20 C0 14 0 14 0 0 Z " fill="#4373E9" transform="translate(460,513)"/>
<path d="M0 0 C2.31 0.66 4.62 1.32 7 2 C7 2.33 7 2.66 7 3 C-6.86547763 5.87589486 -20.97223796 5.25243957 -35.0546875 5.1953125 C-37.76994722 5.19045481 -40.48520678 5.1886339 -43.20046997 5.18673706 C-49.5819945 5.1805612 -55.96344917 5.16420407 -62.34494317 5.14403808 C-69.61960562 5.12155663 -76.8942717 5.1106551 -84.16896033 5.10064721 C-99.11267891 5.07983361 -114.05633241 5.0447348 -129 5 C-129 4.67 -129 4.34 -129 4 C-128.41616169 3.99576806 -127.83232338 3.99153612 -127.230793 3.98717594 C-113.02581208 3.88387876 -98.82088039 3.77524237 -84.61598587 3.66066074 C-77.74661192 3.60537879 -70.87723278 3.55190508 -64.0078125 3.50268555 C-57.38125597 3.45520106 -50.7547518 3.40268104 -44.12825775 3.34705925 C-41.59727015 3.32664355 -39.06626826 3.30792917 -36.53525543 3.29092598 C-32.9964327 3.26686477 -29.45770864 3.23681225 -25.91894531 3.20532227 C-24.34154068 3.19668907 -24.34154068 3.19668907 -22.73226929 3.18788147 C-21.76755707 3.17809265 -20.80284485 3.16830383 -19.80889893 3.15821838 C-18.9719109 3.15176583 -18.13492287 3.14531328 -17.27257156 3.1386652 C-15.05421724 3.00330817 -13.14154273 2.56698209 -11 2 C-9.08438746 1.93311409 -7.16664408 1.91468281 -5.25 1.9375 C-4.26515625 1.94652344 -3.2803125 1.95554687 -2.265625 1.96484375 C-1.14414062 1.98224609 -1.14414062 1.98224609 0 2 C0 1.34 0 0.68 0 0 Z " fill="#6949D9" transform="translate(719,840)"/>
<path d="M0 0 C7.76809023 -2.35982238 15.35125919 -3.03038522 23 0 C30.82632188 5.39348718 37.20352513 12.86275623 43.52563477 19.88500977 C44.16892227 20.59485016 44.81220978 21.30469055 45.47499084 22.03604126 C46.69198563 23.39389307 47.89087736 24.76826175 49.06809998 26.16073608 C51.95589519 29.4382045 53.40338714 30.83699294 57.73242188 32.01977539 C61.43516569 31.99736638 63.08150023 31.21098467 66 29 C65.375 31.4375 65.375 31.4375 64 34 C60.48697629 35.27746317 58.66377321 35.25907548 55.17895508 33.89892578 C51.34690603 31.60987905 48.82999637 28.9264562 45.88671875 25.6171875 C44.70976635 24.35352449 43.53065711 23.09186752 42.34960938 21.83203125 C40.51635556 19.86362354 38.69872963 17.88768575 36.91577148 15.87353516 C28.72621054 6.47379867 28.72621054 6.47379867 17.25801086 2.79544067 C15.122469 2.75954285 13.01861219 2.81811251 10.88598633 2.92626953 C6.67724893 3.00612369 3.94252585 2.33461064 0 1 C0 0.67 0 0.34 0 0 Z " fill="#3689EF" transform="translate(296,451)"/>
<path d="M0 0 C2.97 0 5.94 0 9 0 C9 10.56 9 21.12 9 32 C-5.52 32 -20.04 32 -35 32 C-34.67 27.71 -34.34 23.42 -34 19 C-33.67 19 -33.34 19 -33 19 C-33 22.63 -33 26.26 -33 30 C-19.47 30 -5.94 30 8 30 C8 20.43 8 10.86 8 1 C5.36 1 2.72 1 0 1 C0 0.67 0 0.34 0 0 Z " fill="#5286EC" transform="translate(494,462)"/>
<path d="M0 0 C1.99403612 3.98807224 2.21556226 5.10155359 1.9765625 9.31640625 C1.925 10.32767578 1.8734375 11.33894531 1.8203125 12.38085938 C1.75585938 13.43080078 1.69140625 14.48074219 1.625 15.5625 C1.51280008 17.64712355 1.40081133 19.73175847 1.2890625 21.81640625 C1.23443848 22.73881104 1.17981445 23.66121582 1.12353516 24.61157227 C1.03073403 26.40578847 1 28.20338546 1 30 C0.99214478 31.55364258 0.99214478 31.55364258 0.98413086 33.13867188 C0.96706405 36.52783829 0.95460356 39.91695969 0.94506836 43.30615234 C0.94002276 44.76872472 0.93318679 46.23129202 0.92456055 47.69384766 C0.91243625 49.80632762 0.90676079 51.91874161 0.90234375 54.03125 C0.89710693 55.29517578 0.89187012 56.55910156 0.88647461 57.86132812 C0.85352004 61.03010974 0.85352004 61.03010974 2 64 C1.0625 67.1875 1.0625 67.1875 0 70 C-0.33 70 -0.66 70 -1 70 C-1.14533383 64.34821459 -1.28758674 58.69636207 -1.42724609 53.04443359 C-1.4749461 51.13035092 -1.52342124 49.21628738 -1.57275391 47.30224609 C-1.89266163 34.8650173 -2.06921497 22.44139059 -2 10 C-1.67 10 -1.34 10 -1 10 C-0.67 6.7 -0.34 3.4 0 0 Z " fill="#43A6F3" transform="translate(172,324)"/>
<path d="M0 0 C0.33 0 0.66 0 1 0 C1.16611254 5.12955515 0.63860988 9.78155825 -0.5625 14.75 C-0.73813477 15.47880371 -0.91376953 16.20760742 -1.09472656 16.95849609 C-4.12128057 28.93500268 -8.42549503 40.50703619 -14.1875 51.4375 C-14.66848145 52.35039795 -14.66848145 52.35039795 -15.15917969 53.28173828 C-17.04869274 56.70489635 -19.09815598 59.38126271 -22 62 C-20.84885706 57.48397771 -19.45076043 53.94252765 -17 50 C-16.30420546 47.80869466 -16.30420546 47.80869466 -16 46 C-15.34 46 -14.68 46 -14 46 C-13.67 44.68 -13.34 43.36 -13 42 C-12.34 42 -11.68 42 -11 42 C-10.87753906 41.32582031 -10.75507812 40.65164063 -10.62890625 39.95703125 C-9.88946431 36.48027628 -8.92658815 33.10144942 -7.9375 29.6875 C-7.57527344 28.43324219 -7.21304688 27.17898438 -6.83984375 25.88671875 C-6.56269531 24.93410156 -6.28554688 23.98148438 -6 23 C-5.34 23 -4.68 23 -4 23 C-3.87882813 21.92621094 -3.75765625 20.85242188 -3.6328125 19.74609375 C-3.46384385 18.30986025 -3.29455596 16.87366428 -3.125 15.4375 C-3.00705078 14.38079102 -3.00705078 14.38079102 -2.88671875 13.30273438 C-2.33366097 8.6868291 -1.38804164 4.43823397 0 0 Z " fill="#7952D9" transform="translate(850,720)"/>
<path d="M0 0 C0 15.84 0 31.68 0 48 C-13 47 -13 47 -17 45 C-12.05 45.33 -7.1 45.66 -2 46 C-2 31.81 -2 17.62 -2 3 C-3.65 3.33 -5.3 3.66 -7 4 C-3.17391304 0 -3.17391304 0 0 0 Z " fill="#4481EB" transform="translate(503,396)"/>
<path d="M0 0 C2 1 2 1 3.18359375 4.1484375 C3.61415388 5.55349476 4.03112525 6.96275799 4.4375 8.375 C4.65559326 9.13087402 4.87368652 9.88674805 5.09838867 10.66552734 C8.87802425 24.31475557 10.57091432 37.85401196 10 52 C9.67 52 9.34 52 9 52 C8.6603981 50.12612523 8.32861309 48.25083303 8 46.375 C7.814375 45.33085937 7.62875 44.28671875 7.4375 43.2109375 C7.01245108 40.09138206 7 37.1424288 7 34 C6.59327404 31.77703759 6.59327404 31.77703759 6 29.6875 C4.87499679 25.02903599 4.84821726 20.78115641 5 16 C4.34 16 3.68 16 3 16 C2.49193553 14.27318563 1.99389533 12.54342021 1.5 10.8125 C1.08234375 9.36810547 1.08234375 9.36810547 0.65625 7.89453125 C0.03322392 5.14654124 -0.12302812 2.80401584 0 0 Z " fill="#7963DE" transform="translate(843,272)"/>
<path d="M0 0 C-34.12590615 17.65435196 -34.12590615 17.65435196 -50 17 C-48.68 16.67 -47.36 16.34 -46 16 C-46 15.34 -46 14.68 -46 14 C-44.453125 13.9071875 -44.453125 13.9071875 -42.875 13.8125 C-34.97574586 12.84093398 -27.2633168 9.54087103 -20.0625 6.25 C-16.69441095 4.87526977 -13.60774879 4.36813763 -10 4 C-10 3.34 -10 2.68 -10 2 C-8.71211992 1.46987262 -7.41953322 0.9511671 -6.125 0.4375 C-5.40570312 0.14746094 -4.68640625 -0.14257812 -3.9453125 -0.44140625 C-2 -1 -2 -1 0 0 Z " fill="#7A57DB" transform="translate(783,824)"/>
<path d="M0 0 C0.33 0 0.66 0 1 0 C1 5.28 1 10.56 1 16 C-10.22 16 -21.44 16 -33 16 C-33 15.34 -33 14.68 -33 14 C-22.44 14 -11.88 14 -1 14 C-0.67 9.38 -0.34 4.76 0 0 Z " fill="#558EEE" transform="translate(439,478)"/>
<path d="M0 0 C0.33 0 0.66 0 1 0 C1 15 1 15 -0.625 19.875 C-1.15426641 22.13767211 -1.15426641 22.13767211 -0.4375 24.9375 C0 28 0 28 -0.93359375 30.234375 C-2.24900653 33.64577517 -2.42067392 36.66868485 -2.625 40.3125 C-2.69976562 41.56675781 -2.77453125 42.82101562 -2.8515625 44.11328125 C-2.90054688 45.06589844 -2.94953125 46.01851563 -3 47 C-3.33 47 -3.66 47 -4 47 C-4.9 14.7 -4.9 14.7 0 0 Z " fill="#2B9EF2" transform="translate(175,290)"/>
<path d="M0 0 C0.33 0 0.66 0 1 0 C1.83963615 11.18505161 2.1286409 22.28599731 2.0625 33.5 C2.05746416 35.01692557 2.05290501 36.5338528 2.04882812 38.05078125 C2.03801236 41.7005564 2.02086846 45.35026679 2 49 C1.67 49 1.34 49 1 49 C0.11865859 44.28223126 -0.30147432 39.59797071 -0.5625 34.8125 C-0.6251001 33.68158936 -0.6251001 33.68158936 -0.68896484 32.52783203 C-1.26208301 21.59648027 -0.82412572 10.90494927 0 0 Z " fill="#4B80EB" transform="translate(171,667)"/>
<path d="M0 0 C6.6 0.33 13.2 0.66 20 1 C20 1.33 20 1.66 20 2 C15.75266168 2.98142381 11.52675467 3.30920379 7.1875 3.5625 C6.49462891 3.60568359 5.80175781 3.64886719 5.08789062 3.69335938 C3.39211314 3.79861453 1.69607948 3.89972863 0 4 C-1.485 9.445 -1.485 9.445 -3 15 C-3.33 15 -3.66 15 -4 15 C-4 12.36 -4 9.72 -4 7 C-3.34 7 -2.68 7 -2 7 C-2.33 5.68 -2.66 4.36 -3 3 C-2.01 2.67 -1.02 2.34 0 2 C0 1.34 0 0.68 0 0 Z " fill="#408AED" transform="translate(393,459)"/>
<path d="M0 0 C14.78132118 1.92710706 14.78132118 1.92710706 21 4 C18.00519083 4.8723412 15.36424089 5.10829766 12.25 5.0625 C11.45078125 5.05347656 10.6515625 5.04445313 9.828125 5.03515625 C9.22484375 5.02355469 8.6215625 5.01195312 8 5 C8.66 6.65 9.32 8.3 10 10 C8.89134015 9.08877273 7.78827781 8.17073341 6.6875 7.25 C6.07261719 6.73953125 5.45773437 6.2290625 4.82421875 5.703125 C2.94067671 3.94461466 1.48426344 2.10080364 0 0 Z " fill="#447FEB" transform="translate(537,331)"/>
<path d="M0 0 C7.59 0 15.18 0 23 0 C23 0.99 23 1.98 23 3 C15.8926749 5.36910837 6.96651183 3.43017855 0 1 C0 0.67 0 0.34 0 0 Z " fill="#4C9AF1" transform="translate(296,451)"/>
<path d="M0 0 C1.4540625 0.0309375 1.4540625 0.0309375 2.9375 0.0625 C0.5144174 2.91223834 -1.71885733 3.81191715 -5.25 4.9375 C-9.83163727 6.4991456 -13.56318589 8.41329811 -17.50390625 11.20703125 C-18.01824219 11.48933594 -18.53257812 11.77164062 -19.0625 12.0625 C-19.7225 11.7325 -20.3825 11.4025 -21.0625 11.0625 C-15.75575865 5.45251629 -11.49620129 3.06388112 -4.0625 1.0625 C-3.0625 0.0625 -3.0625 0.0625 0 0 Z " fill="#3CA2F4" transform="translate(297.0625,273.9375)"/>
<path d="M0 0 C0 0.66 0 1.32 0 2 C1.216875 2.226875 2.43375 2.45375 3.6875 2.6875 C7.95560284 3.72609696 10.15028884 5.615968 13 9 C8.58329354 9 5.2611079 6.69584966 1.4453125 4.6640625 C-2.63919964 2.54223801 -6.53502454 1.13341685 -11 0 C-11 -0.33 -11 -0.66 -11 -1 C-6.70700357 -2.26264601 -4.12168689 -1.62950412 0 0 Z " fill="#3795F0" transform="translate(422,276)"/>
<path d="M0 0 C3.96463026 1.63529114 6.84273534 4.36773479 9.9375 7.25 C10.44990234 7.71535156 10.96230469 8.18070313 11.49023438 8.66015625 C14.98458182 11.88365847 18.02284594 15.2936351 21 19 C20.67 19.66 20.34 20.32 20 21 C15.99516527 18.10761936 13.64568654 15.14490891 11 11 C9.24817805 8.94351337 7.89267056 7.94096881 5.5 6.625 C2.64042519 4.76627638 1.54136441 3.00160438 0 0 Z " fill="#7164E0" transform="translate(802,214)"/>
<path d="M0 0 C2.31 0.66 4.62 1.32 7 2 C7 2.33 7 2.66 7 3 C-7.59681093 5.48063781 -7.59681093 5.48063781 -15 4 C-11.65060119 1.97441119 -9.13037449 1.78261013 -5.25 1.875 C-4.26515625 1.89304687 -3.2803125 1.91109375 -2.265625 1.9296875 C-1.14414062 1.96449219 -1.14414062 1.96449219 0 2 C0 1.34 0 0.68 0 0 Z " fill="#7351D9" transform="translate(719,840)"/>
<path d="M0 0 C0.33 0.66 0.66 1.32 1 2 C-0.32 2.33 -1.64 2.66 -3 3 C-3 3.66 -3 4.32 -3 5 C-7.99296295 7.9445679 -12.33557626 8.63495936 -18 9 C-18 8.34 -18 7.68 -18 7 C-17.20335937 6.74605469 -16.40671875 6.49210938 -15.5859375 6.23046875 C-10.17694824 4.47353428 -4.9784197 2.76578872 0 0 Z " fill="#765FDF" transform="translate(741,721)"/>
<path d="M0 0 C3.63 1.98 7.26 3.96 11 6 C10.01 6.495 10.01 6.495 9 7 C8.01 6.67 7.02 6.34 6 6 C6.30035156 6.54269531 6.60070312 7.08539063 6.91015625 7.64453125 C7.29042969 8.35996094 7.67070313 9.07539063 8.0625 9.8125 C8.44535156 10.52019531 8.82820312 11.22789062 9.22265625 11.95703125 C10 14 10 14 9 17 C8.51789062 16.00097656 8.03578125 15.00195312 7.5390625 13.97265625 C6.90135911 12.66911549 6.26332089 11.36573849 5.625 10.0625 C5.30789063 9.40314453 4.99078125 8.74378906 4.6640625 8.06445312 C3.04522631 4.38695193 3.04522631 4.38695193 0 2 C0 1.34 0 0.68 0 0 Z " fill="#4778E9" transform="translate(560,403)"/>
<path d="M0 0 C1.33146252 3.03449597 0.90811159 4.29248987 -0.109375 7.53125 C-0.64467241 8.85889357 -1.19198141 10.18174508 -1.75 11.5 C-2.14832031 12.49580078 -2.14832031 12.49580078 -2.5546875 13.51171875 C-4.00364049 17.0356287 -5.53244039 20.08649589 -8 23 C-7.67 20.69 -7.34 18.38 -7 16 C-6.34 16 -5.68 16 -5 16 C-4.80664062 15.34773437 -4.61328125 14.69546875 -4.4140625 14.0234375 C-3.01359552 9.3228602 -1.58791274 4.64159109 0 0 Z " fill="#685DDF" transform="translate(701,619)"/>
<path d="M0 0 C0.66 0 1.32 0 2 0 C1.71601983 6.67353409 -1.07805532 10.71077185 -5 16 C-6 14 -6 14 -5.25 11.6875 C-4 9 -4 9 -2.4375 6.4375 C-1.12887975 4.21853522 -0.46467564 2.50924843 0 0 Z " fill="#815CDB" transform="translate(834,766)"/>
<path d="M0 0 C1.875 0.625 1.875 0.625 4 2 C6.03569718 6.37674895 6.19117978 10.22050561 6 15 C5.01 15.495 5.01 15.495 4 16 C3.81824219 15.14728516 3.81824219 15.14728516 3.6328125 14.27734375 C2.58677946 9.45754536 1.40795516 4.7267066 0 0 Z " fill="#3D90F0" transform="translate(448,302)"/>
<path d="M0 0 C2.06681445 2.61071299 3.93109607 5.33837839 5.75 8.125 C6.19859375 8.80820312 6.6471875 9.49140625 7.109375 10.1953125 C7.40328125 10.79085937 7.6971875 11.38640625 8 12 C7.67 12.66 7.34 13.32 7 14 C5.35 13.01 3.7 12.02 2 11 C2.33 10.34 2.66 9.68 3 9 C2.34 8.34 1.68 7.68 1 7 C0.67 7 0.34 7 0 7 C0 4.69 0 2.38 0 0 Z " fill="#4B75E9" transform="translate(455,589)"/>
<path d="M0 0 C2.9667903 2.57360122 4.49144778 5.51704221 6.25 9 C6.79140625 10.051875 7.3328125 11.10375 7.890625 12.1875 C9 15 9 15 8 18 C5 12.25 5 12.25 5 10 C4.34 10 3.68 10 3 10 C2.49596232 8.70990357 1.99690074 7.41786211 1.5 6.125 C1.2215625 5.40570313 0.943125 4.68640625 0.65625 3.9453125 C0 2 0 2 0 0 Z " fill="#6E58DC" transform="translate(832,248)"/>
<path d="M0 0 C0.27457031 0.55429687 0.54914063 1.10859375 0.83203125 1.6796875 C1.64634869 3.2974285 2.47853214 4.90624671 3.32421875 6.5078125 C3.77410156 7.37148438 4.22398437 8.23515625 4.6875 9.125 C5.14511719 9.99382812 5.60273438 10.86265625 6.07421875 11.7578125 C6.37972656 12.49773437 6.68523437 13.23765625 7 14 C6.67 14.66 6.34 15.32 6 16 C4 14.25 4 14.25 2 12 C2 10.68 2 9.36 2 8 C1.34 8 0.68 8 0 8 C-1.125 2.25 -1.125 2.25 0 0 Z " fill="#3795F2" transform="translate(259,415)"/>
<path d="M0 0 C7.48291572 6.15034169 7.48291572 6.15034169 10 10 C7.125 10.125 7.125 10.125 4 10 C3.34 9.34 2.68 8.68 2 8 C2.99 7.67 3.98 7.34 5 7 C4.175 6.21625 3.35 5.4325 2.5 4.625 C0 2 0 2 0 0 Z " fill="#5468E5" transform="translate(478,666)"/>
<path d="M0 0 C0.99 0 1.98 0 3 0 C2.05944297 5.68046944 1.13782924 9.72424312 -3 14 C-3.99 13.67 -4.98 13.34 -6 13 C-5.195625 12.34 -4.39125 11.68 -3.5625 11 C-0.24851076 7.12020772 -0.25422975 4.99985175 0 0 Z " fill="#3091F1" transform="translate(323,405)"/>
<path d="M0 0 C0 4.09089094 -1.69866948 5.44918487 -4.33203125 8.4140625 C-6.36890116 10.35075848 -8.29054445 11.28279118 -11 12 C-8.22095576 8.39753524 -5.25893558 5.17317412 -2 2 C-1.34 1.34 -0.68 0.68 0 0 Z " fill="#735BDD" transform="translate(754,709)"/>
<path d="M0 0 C3.43631923 1.43700622 4.63923708 2.26409485 6.4375 5.4375 C6.1075 6.0975 5.7775 6.7575 5.4375 7.4375 C4.7775 6.798125 4.1175 6.15875 3.4375 5.5 C-0.41940912 2.84837498 -2.94090033 2.75082879 -7.5625 2.4375 C-4.84096392 -0.39289753 -3.9798801 -0.62840212 0 0 Z " fill="#4588ED" transform="translate(342.5625,509.5625)"/>
<path d="M0 0 C0.66 0.99 1.32 1.98 2 3 C1.21516341 4.48280196 0.42190666 5.9611498 -0.375 7.4375 C-0.81585937 8.26121094 -1.25671875 9.08492187 -1.7109375 9.93359375 C-3 12 -3 12 -5 13 C-4.54554036 11.58208592 -4.08625056 10.16571954 -3.625 8.75 C-3.24214844 7.56664062 -3.24214844 7.56664062 -2.8515625 6.359375 C-2.04826333 4.13372042 -1.10288338 2.09068328 0 0 Z " fill="#745DDD" transform="translate(762,693)"/>
<path d="M0 0 C0.99 0.66 1.98 1.32 3 2 C2.38461538 8.52307692 2.38461538 8.52307692 0.4375 10.9375 C-0.036875 11.288125 -0.51125 11.63875 -1 12 C-1.66 11.67 -2.32 11.34 -3 11 C-2.34 10.01 -1.68 9.02 -1 8 C-0.34 8 0.32 8 1 8 C0.67 5.36 0.34 2.72 0 0 Z " fill="#6F5AE0" transform="translate(719,689)"/>
<path d="M0 0 C0 3.77910478 -0.99703962 4.46106101 -3.5 7.1875 C-4.47453125 8.26064453 -4.47453125 8.26064453 -5.46875 9.35546875 C-5.9740625 9.89816406 -6.479375 10.44085938 -7 11 C-7.33 9.68 -7.66 8.36 -8 7 C-5.36 4.69 -2.72 2.38 0 0 Z " fill="#3CA8F3" transform="translate(207,229)"/>
<path d="M0 0 C0.99 0 1.98 0 3 0 C3.33 2.97 3.66 5.94 4 9 C3.01 9.495 3.01 9.495 2 10 C1.34 6.7 0.68 3.4 0 0 Z " fill="#6D74E5" transform="translate(690,451)"/>
<path d="M0 0 C0.99 0 1.98 0 3 0 C3 0.66 3 1.32 3 2 C3.63808594 2.19335938 4.27617188 2.38671875 4.93359375 2.5859375 C5.75988281 2.84632813 6.58617187 3.10671875 7.4375 3.375 C8.26121094 3.63023437 9.08492187 3.88546875 9.93359375 4.1484375 C12 5 12 5 13 7 C8.27934033 5.45730076 3.58335908 3.92205381 -1 2 C-0.67 1.34 -0.34 0.68 0 0 Z " fill="#6861E1" transform="translate(727,549)"/>
<path d="M0 0 C1.485 0.99 1.485 0.99 3 2 C3.56737589 9.14893617 3.56737589 9.14893617 1 13 C-0.00496852 9.98509443 -0.10335303 7.95818308 -0.0625 4.8125 C-0.05347656 3.91144531 -0.04445313 3.01039063 -0.03515625 2.08203125 C-0.02355469 1.39496094 -0.01195312 0.70789063 0 0 Z " fill="#907DE3" transform="translate(851,316)"/>
<path d="M0 0 C0.33 0 0.66 0 1 0 C1 1.65 1 3.3 1 5 C1.66 5 2.32 5 3 5 C3 5.66 3 6.32 3 7 C4.65 7 6.3 7 8 7 C5 9 5 9 1 9 C-0.4783226 6.04335481 -0.06032783 3.25770263 0 0 Z " fill="#4777EA" transform="translate(463,541)"/>
<path d="M0 0 C1.485 0.99 1.485 0.99 3 2 C2.67 5.96 2.34 9.92 2 14 C1.67 14 1.34 14 1 14 C0.67 9.38 0.34 4.76 0 0 Z " fill="#6597EF" transform="translate(385,514)"/>
<path d="M0 0 C-4.455 2.97 -4.455 2.97 -9 6 C-9.66 5.67 -10.32 5.34 -11 5 C-4.92783505 -1.23195876 -4.92783505 -1.23195876 0 0 Z " fill="#2F9DF2" transform="translate(287,280)"/>
<path d="M0 0 C0.33 0 0.66 0 1 0 C1.33 2.64 1.66 5.28 2 8 C2.33 8 2.66 8 3 8 C3 9.65 3 11.3 3 13 C2.01 13.495 2.01 13.495 1 14 C-0.38226016 11.23547967 -0.09525387 8.9538637 -0.0625 5.875 C-0.05347656 4.77929688 -0.04445313 3.68359375 -0.03515625 2.5546875 C-0.02355469 1.71164062 -0.01195312 0.86859375 0 0 Z " fill="#6398EF" transform="translate(328,518)"/>
<path d="M0 0 C2 2 2 2 2 5 C2.66 5 3.32 5 4 5 C4.79953138 8.28696233 5.09658936 9.71023192 4 13 C3.32694982 11.39850114 2.66177773 9.79368971 2 8.1875 C1.62875 7.29417969 1.2575 6.40085937 0.875 5.48046875 C0 3 0 3 0 0 Z " fill="#467CEC" transform="translate(358,563)"/>
<path d="M0 0 C-1 1.5625 -1 1.5625 -3 3 C-5.76614782 2.96726452 -8.26030547 2.49404328 -11 2 C-7.36576791 -0.32590854 -4.22911669 -0.16265833 0 0 Z " fill="#896DDD" transform="translate(715,842)"/>
<path d="M0 0 C6.52307692 -0.36923077 6.52307692 -0.36923077 8.9375 1.5 C9.288125 1.995 9.63875 2.49 10 3 C8.72125 3.061875 7.4425 3.12375 6.125 3.1875 C5.40570313 3.22230469 4.68640625 3.25710938 3.9453125 3.29296875 C3.30335938 3.19628906 2.66140625 3.09960938 2 3 C1.34 2.01 0.68 1.02 0 0 Z " fill="#7D81E8" transform="translate(307,842)"/>
<path d="M0 0 C1.1875 1.5625 1.1875 1.5625 2 4 C0.625 7.75 0.625 7.75 -1 11 C-1.33 11 -1.66 11 -2 11 C-1.85892253 9.54119891 -1.71197585 8.08296449 -1.5625 6.625 C-1.48128906 5.81289063 -1.40007812 5.00078125 -1.31640625 4.1640625 C-1 2 -1 2 0 0 Z " fill="#4086ED" transform="translate(411,467)"/>
<path d="M0 0 C1.15941038 3.47823115 0.70820884 5.45895578 0 9 C-0.99 9.33 -1.98 9.66 -3 10 C-2.69201674 8.51988629 -2.378482 7.04092675 -2.0625 5.5625 C-1.88847656 4.73878906 -1.71445312 3.91507812 -1.53515625 3.06640625 C-1 1 -1 1 0 0 Z " fill="#3193F1" transform="translate(311,398)"/>
<path d="M0 0 C3.31012244 3.31012244 3.50351065 4.53159589 4 9 C3.01 9.495 3.01 9.495 2 10 C1.34 6.7 0.68 3.4 0 0 Z " fill="#6F60DF" transform="translate(761,580)"/>
<path d="M0 0 C0.33 0.66 0.66 1.32 1 2 C1.66 2 2.32 2 3 2 C4.125 7.625 4.125 7.625 3 11 C2.49384702 9.73160474 1.99530901 8.46016898 1.5 7.1875 C1.2215625 6.47980469 0.943125 5.77210938 0.65625 5.04296875 C0 3 0 3 0 0 Z " fill="#2F92F0" transform="translate(367,363)"/>
<path d="M0 0 C0 3 0 3 -1.3125 4.38671875 C-2.875 5.59114583 -4.4375 6.79557292 -6 8 C-5.67 6.68 -5.34 5.36 -5 4 C-4.34 4 -3.68 4 -3 4 C-3 3.34 -3 2.68 -3 2 C-2.01 1.34 -1.02 0.68 0 0 Z " fill="#7550D8" transform="translate(820,791)"/>
<path d="M0 0 C0 3 0 3 -2.5 5.6875 C-3.325 6.450625 -4.15 7.21375 -5 8 C-5 7.01 -5 6.02 -5 5 C-4.34 5 -3.68 5 -3 5 C-2.87625 4.360625 -2.7525 3.72125 -2.625 3.0625 C-2.41875 2.381875 -2.2125 1.70125 -2 1 C-1.34 0.67 -0.68 0.34 0 0 Z " fill="#7953DA" transform="translate(827,782)"/>
<path d="M0 0 C0.33 0.66 0.66 1.32 1 2 C-0.32 3.65 -1.64 5.3 -3 7 C-3.99 6.67 -4.98 6.34 -6 6 C-4.02 4.02 -2.04 2.04 0 0 Z " fill="#5E64E3" transform="translate(508,707)"/>
<path d="M0 0 C0.99 0 1.98 0 3 0 C3.1875 2.875 3.1875 2.875 3 6 C2.01 6.66 1.02 7.32 0 8 C0 5.36 0 2.72 0 0 Z " fill="#669BF0" transform="translate(385,486)"/>
<path d="M0 0 C0.99 0.33 1.98 0.66 3 1 C3 2.98 3 4.96 3 7 C2.01 7.495 2.01 7.495 1 8 C-0.35439668 5.29120665 -0.06501451 2.99066732 0 0 Z " fill="#7981E8" transform="translate(672,472)"/>
<path d="M0 0 C0.99 0.33 1.98 0.66 3 1 C3.33 3.97 3.66 6.94 4 10 C1.16625119 6.79663178 0.4794463 4.21912747 0 0 Z " fill="#2D94F0" transform="translate(363,352)"/>
<path d="M0 0 C2 1 2 1 2 1 Z M-5 2 C-3.68 2 -2.36 2 -1 2 C-1 2.66 -1 3.32 -1 4 C-0.01 4.33 0.98 4.66 2 5 C-0.31 5 -2.62 5 -5 5 C-5 4.01 -5 3.02 -5 2 Z " fill="#6095F0" transform="translate(541,305)"/>
<path d="M0 0 C0.99 0.66 1.98 1.32 3 2 C0.1875 4.0625 0.1875 4.0625 -3 6 C-3.99 5.67 -4.98 5.34 -6 5 C-4.02 3.35 -2.04 1.7 0 0 Z " fill="#3AA7F4" transform="translate(242,199)"/>
</svg>
